SplineFontDB: 3.2
FontName: KoreeneSans-SemiBold
FullName: Koreene Sans SemiBold
FamilyName: Koreene Sans SemiBold
Weight: Demi
Copyright: (C) Copyright HanYang I&C Co.,Ltd. All rights reserved.
Version: 2.52
ItalicAngle: 0
UnderlinePosition: -244
UnderlineWidth: 90
Ascent: 1638
Descent: 410
InvalidEm: 0
sfntRevision: 0x00020147
LayerCount: 2
Layer: 0 1 "Back" 1
Layer: 1 1 "Fore" 0
XUID: [1021 531 -1996577725 6566693]
StyleMap: 0x0040
FSType: 0
OS2Version: 4
OS2_WeightWidthSlopeOnly: 0
OS2_UseTypoMetrics: 1
CreationTime: 1068260456
ModificationTime: 1706985982
PfmFamily: 81
TTFWeight: 600
TTFWidth: 5
LineGap: 512
VLineGap: 0
Panose: 0 0 0 0 0 0 0 0 0 0
OS2TypoAscent: 1940
OS2TypoAOffset: 0
OS2TypoDescent: -470
OS2TypoDOffset: 0
OS2TypoLinegap: 512
OS2WinAscent: 2196
OS2WinAOffset: 0
OS2WinDescent: 726
OS2WinDOffset: 0
HheadAscent: 1940
HheadAOffset: 0
HheadDescent: -470
HheadDOffset: 0
OS2SubXSize: 410
OS2SubYSize: 410
OS2SubXOff: 0
OS2SubYOff: 574
OS2SupXSize: 410
OS2SupYSize: 410
OS2SupXOff: 0
OS2SupYOff: 1926
OS2StrikeYSize: 204
OS2StrikeYPos: 1024
OS2CapHeight: 1470
OS2XHeight: 1066
OS2Vendor: 'HY  '
OS2CodePages: 2000019f.00000000
OS2UnicodeRanges: e10002ff.4000001b.00000000.00000000
Lookup: 1 0 0 "'aalt' Access All Alternates lookup 0" { "'aalt' Access All Alternates lookup 0 subtable"  } ['aalt' ('DFLT' <'dflt' > 'cyrl' <'dflt' > 'grek' <'dflt' > 'hang' <'dflt' > 'jamo' <'dflt' > 'latn' <'dflt' > ) ]
Lookup: 3 0 0 "'aalt' Access All Alternates lookup 1" { "'aalt' Access All Alternates lookup 1 subtable"  } ['aalt' ('DFLT' <'dflt' > 'cyrl' <'dflt' > 'grek' <'dflt' > 'hang' <'dflt' > 'jamo' <'dflt' > 'latn' <'dflt' > ) ]
Lookup: 1 0 0 "'locl' Localized Forms in Latin lookup 2" { "'locl' Localized Forms in Latin lookup 2 subtable"  } ['locl' ('latn' <'MOL ' > ) ]
Lookup: 1 0 0 "'locl' Localized Forms in Latin lookup 3" { "'locl' Localized Forms in Latin lookup 3 subtable"  } ['locl' ('latn' <'ROM ' > ) ]

StartChar: exclam
Encoding: 33 33 4
Width: 620
GlyphClass: 2
Flags: W
LayerCount: 2
Fore
SplineSet
164 -14 m 1,0,-1
 164 252 l 1,1,-1
 456 252 l 1,2,-1
 456 -14 l 1,3,-1
 164 -14 l 1,0,-1
410 414 m 1,4,-1
 212 414 l 1,5,-1
 192 1478 l 1,6,-1
 428 1478 l 1,7,-1
 410 414 l 1,4,-1
EndSplineSet
EndChar

StartChar: quotedbl
Encoding: 34 34 5
Width: 1066
GlyphClass: 2
Flags: W
LayerCount: 2
Fore
SplineSet
566 1046 m 1,0,-1
 740 1638 l 1,1,-1
 994 1638 l 1,2,-1
 736 1046 l 1,3,-1
 566 1046 l 1,0,-1
132 1046 m 1,4,-1
 306 1638 l 1,5,-1
 560 1638 l 1,6,-1
 302 1046 l 1,7,-1
 132 1046 l 1,4,-1
EndSplineSet
EndChar

StartChar: numbersign
Encoding: 35 35 6
Width: 1452
GlyphClass: 2
Flags: W
LayerCount: 2
Fore
SplineSet
98 378 m 1,0,-1
 98 542 l 1,1,-1
 346 542 l 1,2,-1
 394 890 l 1,3,-1
 160 890 l 1,4,-1
 160 1050 l 1,5,-1
 414 1050 l 1,6,-1
 464 1426 l 1,7,-1
 654 1426 l 1,8,-1
 606 1050 l 1,9,-1
 936 1050 l 1,10,-1
 988 1426 l 1,11,-1
 1178 1426 l 1,12,-1
 1128 1050 l 1,13,-1
 1354 1050 l 1,14,-1
 1354 890 l 1,15,-1
 1106 890 l 1,16,-1
 1064 542 l 1,17,-1
 1292 542 l 1,18,-1
 1292 378 l 1,19,-1
 1040 378 l 1,20,-1
 992 4 l 1,21,-1
 796 4 l 1,22,-1
 848 378 l 1,23,-1
 518 378 l 1,24,-1
 468 4 l 1,25,-1
 274 4 l 1,26,-1
 326 378 l 1,27,-1
 98 378 l 1,0,-1
540 542 m 1,28,-1
 868 542 l 1,29,-1
 916 890 l 1,30,-1
 582 890 l 1,31,-1
 540 542 l 1,28,-1
EndSplineSet
EndChar

StartChar: dollar
Encoding: 36 36 7
Width: 1168
GlyphClass: 2
Flags: W
LayerCount: 2
Fore
SplineSet
100 296 m 1,0,-1
 260 370 l 1,1,2
 316 280 316 280 405 229 c 128,-1,3
 494 178 494 178 594 178 c 0,4,5
 698 178 698 178 770 234 c 128,-1,6
 842 290 842 290 842 396 c 0,7,8
 842 438 842 438 826 474 c 128,-1,9
 810 510 810 510 786 534 c 128,-1,10
 762 558 762 558 716 585 c 128,-1,11
 670 612 670 612 632 629 c 128,-1,12
 594 646 594 646 524 675 c 128,-1,13
 454 704 454 704 406 726 c 0,14,15
 270 790 270 790 207 877 c 128,-1,16
 144 964 144 964 144 1090 c 0,17,18
 144 1214 144 1214 234 1324 c 128,-1,19
 324 1434 324 1434 492 1458 c 1,20,-1
 492 1622 l 1,21,-1
 688 1622 l 1,22,-1
 688 1454 l 1,23,24
 796 1448 796 1448 894 1371 c 128,-1,25
 992 1294 992 1294 1030 1206 c 1,26,-1
 868 1130 l 1,27,28
 760 1290 760 1290 588 1290 c 0,29,30
 484 1290 484 1290 421 1232 c 128,-1,31
 358 1174 358 1174 358 1088 c 0,32,33
 358 1062 358 1062 363 1040 c 128,-1,34
 368 1018 368 1018 380 998 c 128,-1,35
 392 978 392 978 403 964 c 128,-1,36
 414 950 414 950 440 933 c 128,-1,37
 466 916 466 916 482 905 c 128,-1,38
 498 894 498 894 535 877 c 128,-1,39
 572 860 572 860 592 852 c 128,-1,40
 612 844 612 844 660 825 c 128,-1,41
 708 806 708 806 734 794 c 0,42,43
 802 766 802 766 852 737 c 128,-1,44
 902 708 902 708 953 662 c 128,-1,45
 1004 616 1004 616 1032 554 c 128,-1,46
 1060 492 1060 492 1060 414 c 0,47,48
 1060 246 1060 246 957 139 c 128,-1,49
 854 32 854 32 688 8 c 1,50,-1
 688 -146 l 1,51,-1
 492 -146 l 1,52,-1
 492 12 l 1,53,54
 378 20 378 20 267 101 c 128,-1,55
 156 182 156 182 100 296 c 1,0,-1
EndSplineSet
EndChar

StartChar: percent
Encoding: 37 37 8
Width: 1982
GlyphClass: 2
Flags: W
LayerCount: 2
Fore
SplineSet
1070 332 m 256,0,1
 1070 492 1070 492 1180 596 c 128,-1,2
 1290 700 1290 700 1462 700 c 256,3,4
 1634 700 1634 700 1744 596 c 128,-1,5
 1854 492 1854 492 1854 332 c 0,6,7
 1854 170 1854 170 1743 68 c 128,-1,8
 1632 -34 1632 -34 1462 -34 c 256,9,10
 1292 -34 1292 -34 1181 69 c 128,-1,11
 1070 172 1070 172 1070 332 c 256,0,1
1270 332 m 0,12,13
 1270 236 1270 236 1326 181 c 128,-1,14
 1382 126 1382 126 1462 126 c 0,15,16
 1544 126 1544 126 1601 182 c 128,-1,17
 1658 238 1658 238 1658 332 c 0,18,19
 1658 428 1658 428 1602 484 c 128,-1,20
 1546 540 1546 540 1462 540 c 0,21,22
 1382 540 1382 540 1326 483 c 128,-1,23
 1270 426 1270 426 1270 332 c 0,12,13
130 1136 m 256,24,25
 130 1296 130 1296 240 1400 c 128,-1,26
 350 1504 350 1504 522 1504 c 256,27,28
 694 1504 694 1504 804 1400 c 128,-1,29
 914 1296 914 1296 914 1136 c 0,30,31
 914 974 914 974 803 873 c 128,-1,32
 692 772 692 772 522 772 c 256,33,34
 352 772 352 772 241 874 c 128,-1,35
 130 976 130 976 130 1136 c 256,24,25
328 1136 m 0,36,37
 328 1040 328 1040 385 985 c 128,-1,38
 442 930 442 930 522 930 c 0,39,40
 604 930 604 930 660 987 c 128,-1,41
 716 1044 716 1044 716 1136 c 0,42,43
 716 1232 716 1232 660 1289 c 128,-1,44
 604 1346 604 1346 522 1346 c 256,45,46
 440 1346 440 1346 384 1288 c 128,-1,47
 328 1230 328 1230 328 1136 c 0,36,37
364 -8 m 1,48,-1
 1406 1478 l 1,49,-1
 1622 1478 l 1,50,-1
 576 -8 l 1,51,-1
 364 -8 l 1,48,-1
EndSplineSet
EndChar

StartChar: ampersand
Encoding: 38 38 9
Width: 1330
GlyphClass: 2
Flags: W
LayerCount: 2
Fore
SplineSet
316 386 m 0,0,1
 316 274 316 274 389 209 c 128,-1,2
 462 144 462 144 576 144 c 0,3,4
 726 144 726 144 854 284 c 1,5,-1
 526 718 l 1,6,7
 316 564 316 564 316 386 c 0,0,1
100 382 m 0,8,9
 100 660 100 660 420 866 c 1,10,11
 368 938 368 938 350 965 c 128,-1,12
 332 992 332 992 309 1047 c 128,-1,13
 286 1102 286 1102 286 1158 c 0,14,15
 286 1298 286 1298 388 1388 c 128,-1,16
 490 1478 490 1478 666 1478 c 0,17,18
 816 1478 816 1478 919 1403 c 128,-1,19
 1022 1328 1022 1328 1072 1210 c 1,20,-1
 916 1142 l 1,21,22
 880 1208 880 1208 819 1255 c 128,-1,23
 758 1302 758 1302 682 1302 c 0,24,25
 598 1302 598 1302 550 1259 c 128,-1,26
 502 1216 502 1216 502 1150 c 0,27,28
 502 1116 502 1116 523 1068 c 128,-1,29
 544 1020 544 1020 614 921 c 128,-1,30
 684 822 684 822 728 764 c 128,-1,31
 772 706 772 706 898 542 c 0,32,33
 940 488 940 488 962 460 c 1,34,35
 1006 560 1006 560 1032 712 c 1,36,-1
 1224 678 l 1,37,38
 1192 466 1192 466 1092 290 c 1,39,-1
 1318 0 l 1,40,-1
 1066 0 l 1,41,-1
 968 126 l 1,42,43
 808 -34 808 -34 574 -34 c 0,44,45
 350 -34 350 -34 225 86 c 128,-1,46
 100 206 100 206 100 382 c 0,8,9
EndSplineSet
EndChar

StartChar: quotesingle
Encoding: 39 39 10
Width: 662
GlyphClass: 2
Flags: W
LayerCount: 2
Fore
SplineSet
160 1046 m 1,0,-1
 334 1638 l 1,1,-1
 588 1638 l 1,2,-1
 332 1046 l 1,3,-1
 160 1046 l 1,0,-1
EndSplineSet
EndChar

StartChar: parenleft
Encoding: 40 40 11
Width: 888
GlyphClass: 2
Flags: W
LayerCount: 2
Fore
SplineSet
266 706 m 0,0,1
 266 1262 266 1262 608 1702 c 1,2,-1
 760 1616 l 1,3,4
 636 1414 636 1414 592 1312 c 0,5,6
 474 1046 474 1046 474 706 c 0,7,8
 474 500 474 500 519 322 c 128,-1,9
 564 144 564 144 617 39 c 128,-1,10
 670 -66 670 -66 760 -204 c 1,11,-1
 608 -292 l 1,12,13
 448 -76 448 -76 357 161 c 128,-1,14
 266 398 266 398 266 706 c 0,0,1
EndSplineSet
Substitution2: "'sups' Superscript lookup 5 subtable" uni207D
Substitution2: "'aalt' Access All Alternates lookup 0 subtable" uni207D
EndChar

StartChar: parenright
Encoding: 41 41 12
Width: 888
GlyphClass: 2
Flags: W
LayerCount: 2
Fore
SplineSet
128 -204 m 1,0,1
 274 16 274 16 343 225 c 128,-1,2
 412 434 412 434 412 706 c 0,3,4
 412 866 412 866 390 1002 c 128,-1,5
 368 1138 368 1138 321 1252 c 128,-1,6
 274 1366 274 1366 234 1440 c 128,-1,7
 194 1514 194 1514 128 1616 c 1,8,-1
 280 1702 l 1,9,10
 620 1256 620 1256 620 706 c 0,11,12
 620 396 620 396 529 159 c 128,-1,13
 438 -78 438 -78 280 -292 c 1,14,-1
 128 -204 l 1,0,1
EndSplineSet
Substitution2: "'sups' Superscript lookup 5 subtable" uni207E
Substitution2: "'aalt' Access All Alternates lookup 0 subtable" uni207E
EndChar

StartChar: asterisk
Encoding: 42 42 13
Width: 1114
GlyphClass: 2
Flags: W
LayerCount: 2
Fore
SplineSet
40 814 m 1,0,-1
 114 984 l 1,1,-1
 472 844 l 1,2,-1
 460 1214 l 1,3,-1
 654 1214 l 1,4,-1
 642 844 l 1,5,-1
 1000 984 l 1,6,-1
 1074 814 l 1,7,-1
 684 688 l 1,8,-1
 980 368 l 1,9,-1
 822 250 l 1,10,-1
 558 596 l 1,11,-1
 294 250 l 1,12,-1
 134 368 l 1,13,-1
 430 688 l 1,14,-1
 40 814 l 1,0,-1
EndSplineSet
EndChar

StartChar: plus
Encoding: 43 43 14
Width: 1114
GlyphClass: 2
Flags: W
LayerCount: 2
Fore
SplineSet
52 634 m 1,0,-1
 52 818 l 1,1,-1
 452 818 l 1,2,-1
 452 1218 l 1,3,-1
 660 1218 l 1,4,-1
 660 818 l 1,5,-1
 1060 818 l 1,6,-1
 1060 634 l 1,7,-1
 660 634 l 1,8,-1
 660 220 l 1,9,-1
 452 220 l 1,10,-1
 452 634 l 1,11,-1
 52 634 l 1,0,-1
EndSplineSet
Substitution2: "'sups' Superscript lookup 5 subtable" uni207A
Substitution2: "'aalt' Access All Alternates lookup 0 subtable" uni207A
EndChar

StartChar: comma
Encoding: 44 44 15
Width: 550
GlyphClass: 2
Flags: W
LayerCount: 2
Fore
SplineSet
14 -322 m 1,0,-1
 188 270 l 1,1,-1
 440 270 l 1,2,-1
 184 -322 l 1,3,-1
 14 -322 l 1,0,-1
EndSplineSet
EndChar

StartChar: hyphen
Encoding: 45 45 16
Width: 780
GlyphClass: 2
Flags: W
LayerCount: 2
Fore
SplineSet
66 634 m 1,0,-1
 66 818 l 1,1,-1
 714 818 l 1,2,-1
 714 634 l 1,3,-1
 66 634 l 1,0,-1
EndSplineSet
EndChar

StartChar: period
Encoding: 46 46 17
Width: 550
GlyphClass: 2
Flags: W
LayerCount: 2
Fore
SplineSet
130 0 m 1,0,-1
 130 270 l 1,1,-1
 422 270 l 1,2,-1
 422 0 l 1,3,-1
 130 0 l 1,0,-1
EndSplineSet
EndChar

StartChar: slash
Encoding: 47 47 18
Width: 728
GlyphClass: 2
Flags: W
LayerCount: 2
Fore
SplineSet
-28 -108 m 1,0,-1
 538 1564 l 1,1,-1
 756 1564 l 1,2,-1
 192 -108 l 1,3,-1
 -28 -108 l 1,0,-1
EndSplineSet
EndChar

StartChar: zero
Encoding: 48 48 19
Width: 1100
GlyphClass: 2
Flags: W
LayerCount: 2
Fore
SplineSet
296 734 m 256,0,1
 296 562 296 562 319 435 c 128,-1,2
 342 308 342 308 402 226 c 128,-1,3
 462 144 462 144 552 144 c 0,4,5
 622 144 622 144 672 192 c 128,-1,6
 722 240 722 240 750 327 c 128,-1,7
 778 414 778 414 790 513 c 128,-1,8
 802 612 802 612 802 734 c 0,9,10
 802 858 802 858 789 962 c 128,-1,11
 776 1066 776 1066 746 1150 c 128,-1,12
 716 1234 716 1234 666 1280 c 128,-1,13
 616 1326 616 1326 548 1326 c 0,14,15
 460 1326 460 1326 401 1244 c 128,-1,16
 342 1162 342 1162 319 1034 c 128,-1,17
 296 906 296 906 296 734 c 256,0,1
74 734 m 0,18,19
 74 948 74 948 115 1105 c 128,-1,20
 156 1262 156 1262 228 1345 c 128,-1,21
 300 1428 300 1428 380 1466 c 128,-1,22
 460 1504 460 1504 548 1504 c 0,23,24
 776 1504 776 1504 900 1303 c 128,-1,25
 1024 1102 1024 1102 1024 734 c 0,26,27
 1024 384 1024 384 904 175 c 128,-1,28
 784 -34 784 -34 552 -34 c 0,29,30
 464 -34 464 -34 384 4 c 128,-1,31
 304 42 304 42 232 125 c 128,-1,32
 160 208 160 208 117 365 c 128,-1,33
 74 522 74 522 74 734 c 0,18,19
EndSplineSet
EndChar

StartChar: one
Encoding: 49 49 20
Width: 1100
GlyphClass: 2
Flags: W
LayerCount: 2
Fore
SplineSet
166 1066 m 1,0,-1
 166 1230 l 1,1,-1
 230 1230 l 2,2,3
 528 1230 528 1230 528 1444 c 2,4,-1
 528 1470 l 1,5,-1
 714 1470 l 1,6,-1
 714 0 l 1,7,-1
 494 0 l 1,8,-1
 494 1066 l 1,9,-1
 166 1066 l 1,0,-1
EndSplineSet
Substitution2: "'subs' Subscript lookup 6 subtable" uni2081
Substitution2: "'sups' Superscript lookup 5 subtable" onesuperior
Substitution2: "'sinf' Scientific Inferiors lookup 4 subtable" uni2081
AlternateSubs2: "'aalt' Access All Alternates lookup 1 subtable" uni2081 onesuperior
EndChar

StartChar: two
Encoding: 50 50 21
Width: 1100
GlyphClass: 2
Flags: W
LayerCount: 2
Fore
SplineSet
82 1118 m 1,0,1
 124 1298 124 1298 241 1401 c 128,-1,2
 358 1504 358 1504 542 1504 c 0,3,4
 738 1504 738 1504 863 1392 c 128,-1,5
 988 1280 988 1280 988 1086 c 0,6,7
 988 866 988 866 760 648 c 0,8,9
 740 630 740 630 673 566 c 128,-1,10
 606 502 606 502 587 482 c 128,-1,11
 568 462 568 462 519 412 c 128,-1,12
 470 362 470 362 450 332 c 128,-1,13
 430 302 430 302 402 261 c 128,-1,14
 374 220 374 220 356 178 c 1,15,-1
 984 178 l 1,16,-1
 984 0 l 1,17,-1
 94 0 l 1,18,19
 94 84 94 84 123 167 c 128,-1,20
 152 250 152 250 190 314 c 128,-1,21
 228 378 228 378 300 460 c 128,-1,22
 372 542 372 542 422 593 c 128,-1,23
 472 644 472 644 562 726 c 0,24,25
 582 746 582 746 592 754 c 0,26,27
 764 918 764 918 764 1090 c 0,28,29
 764 1202 764 1202 703 1264 c 128,-1,30
 642 1326 642 1326 540 1326 c 0,31,32
 434 1326 434 1326 365 1256 c 128,-1,33
 296 1186 296 1186 266 1064 c 1,34,-1
 82 1118 l 1,0,1
EndSplineSet
Substitution2: "'subs' Subscript lookup 6 subtable" uni2082
Substitution2: "'sups' Superscript lookup 5 subtable" twosuperior
Substitution2: "'sinf' Scientific Inferiors lookup 4 subtable" uni2082
AlternateSubs2: "'aalt' Access All Alternates lookup 1 subtable" uni2082 twosuperior
EndChar

StartChar: three
Encoding: 51 51 22
Width: 1100
GlyphClass: 2
Flags: W
LayerCount: 2
Fore
SplineSet
54 284 m 1,0,-1
 228 348 l 1,1,2
 324 144 324 144 526 144 c 0,3,4
 642 144 642 144 721 215 c 128,-1,5
 800 286 800 286 800 416 c 0,6,7
 800 538 800 538 714 610 c 128,-1,8
 628 682 628 682 498 682 c 0,9,10
 442 682 442 682 368 676 c 1,11,-1
 368 852 l 1,12,13
 414 848 414 848 490 848 c 0,14,15
 598 848 598 848 671 914 c 128,-1,16
 744 980 744 980 744 1096 c 0,17,18
 744 1196 744 1196 680 1261 c 128,-1,19
 616 1326 616 1326 516 1326 c 0,20,21
 346 1326 346 1326 266 1112 c 1,22,-1
 88 1168 l 1,23,24
 130 1316 130 1316 244 1410 c 128,-1,25
 358 1504 358 1504 530 1504 c 0,26,27
 730 1504 730 1504 849 1394 c 128,-1,28
 968 1284 968 1284 968 1116 c 0,29,30
 968 996 968 996 907 908 c 128,-1,31
 846 820 846 820 756 778 c 1,32,33
 864 744 864 744 944 652 c 128,-1,34
 1024 560 1024 560 1024 416 c 0,35,36
 1024 204 1024 204 888 85 c 128,-1,37
 752 -34 752 -34 528 -34 c 0,38,39
 350 -34 350 -34 225 58 c 128,-1,40
 100 150 100 150 54 284 c 1,0,-1
EndSplineSet
Substitution2: "'subs' Subscript lookup 6 subtable" uni2083
Substitution2: "'sups' Superscript lookup 5 subtable" threesuperior
Substitution2: "'sinf' Scientific Inferiors lookup 4 subtable" uni2083
AlternateSubs2: "'aalt' Access All Alternates lookup 1 subtable" uni2083 threesuperior
EndChar

StartChar: four
Encoding: 52 52 23
Width: 1100
GlyphClass: 2
Flags: W
LayerCount: 2
Fore
SplineSet
36 488 m 1,0,-1
 692 1470 l 1,1,-1
 880 1470 l 1,2,-1
 880 492 l 1,3,-1
 1070 492 l 1,4,-1
 1070 314 l 1,5,-1
 880 314 l 1,6,-1
 880 0 l 1,7,-1
 664 0 l 1,8,-1
 664 314 l 1,9,-1
 36 314 l 1,10,-1
 36 488 l 1,0,-1
242 492 m 1,11,-1
 664 492 l 1,12,-1
 664 938 l 2,13,14
 664 1046 664 1046 672 1146 c 1,15,-1
 664 1146 l 1,16,17
 642 1108 642 1108 600 1040 c 128,-1,18
 558 972 558 972 552 962 c 2,19,-1
 242 492 l 1,11,-1
EndSplineSet
Substitution2: "'subs' Subscript lookup 6 subtable" uni2084
Substitution2: "'sups' Superscript lookup 5 subtable" uni2074
Substitution2: "'sinf' Scientific Inferiors lookup 4 subtable" uni2084
AlternateSubs2: "'aalt' Access All Alternates lookup 1 subtable" uni2084 uni2074
EndChar

StartChar: five
Encoding: 53 53 24
Width: 1100
GlyphClass: 2
Flags: W
LayerCount: 2
Fore
SplineSet
72 262 m 1,0,-1
 252 328 l 1,1,2
 288 246 288 246 358 195 c 128,-1,3
 428 144 428 144 512 144 c 0,4,5
 638 144 638 144 710 229 c 128,-1,6
 782 314 782 314 782 452 c 0,7,8
 782 588 782 588 705 675 c 128,-1,9
 628 762 628 762 506 762 c 0,10,11
 362 762 362 762 254 628 c 1,12,-1
 118 682 l 1,13,-1
 194 1470 l 1,14,-1
 922 1470 l 1,15,-1
 922 1292 l 1,16,-1
 394 1292 l 1,17,-1
 346 868 l 1,18,19
 446 938 446 938 582 938 c 0,20,21
 770 938 770 938 888 808 c 128,-1,22
 1006 678 1006 678 1006 456 c 0,23,24
 1006 362 1006 362 978 277 c 128,-1,25
 950 192 950 192 893 121 c 128,-1,26
 836 50 836 50 739 8 c 128,-1,27
 642 -34 642 -34 518 -34 c 0,28,29
 356 -34 356 -34 243 46 c 128,-1,30
 130 126 130 126 72 262 c 1,0,-1
EndSplineSet
EndChar

StartChar: six
Encoding: 54 54 25
Width: 1100
GlyphClass: 2
Flags: W
LayerCount: 2
Fore
SplineSet
308 466 m 0,0,1
 308 320 308 320 378 232 c 128,-1,2
 448 144 448 144 562 144 c 0,3,4
 672 144 672 144 743 231 c 128,-1,5
 814 318 814 318 814 466 c 256,6,7
 814 614 814 614 743 700 c 128,-1,8
 672 786 672 786 560 786 c 0,9,10
 450 786 450 786 379 697 c 128,-1,11
 308 608 308 608 308 466 c 0,0,1
80 664 m 0,12,13
 80 830 80 830 110 976 c 128,-1,14
 140 1122 140 1122 200 1243 c 128,-1,15
 260 1364 260 1364 365 1434 c 128,-1,16
 470 1504 470 1504 608 1504 c 0,17,18
 892 1504 892 1504 1022 1212 c 1,19,-1
 850 1154 l 1,20,21
 758 1326 758 1326 610 1326 c 0,22,23
 390 1326 390 1326 324 962 c 0,24,25
 304 874 304 874 298 792 c 1,26,27
 334 868 334 868 411 916 c 128,-1,28
 488 964 488 964 590 964 c 0,29,30
 784 964 784 964 908 823 c 128,-1,31
 1032 682 1032 682 1032 468 c 0,32,33
 1032 252 1032 252 908 109 c 128,-1,34
 784 -34 784 -34 568 -34 c 0,35,36
 348 -34 348 -34 220 122 c 0,37,38
 80 294 80 294 80 664 c 0,12,13
EndSplineSet
EndChar

StartChar: seven
Encoding: 55 55 26
Width: 1100
GlyphClass: 2
Flags: W
LayerCount: 2
Fore
SplineSet
76 1286 m 1,0,-1
 76 1470 l 1,1,-1
 1002 1470 l 1,2,-1
 1002 1322 l 1,3,4
 632 734 632 734 470 0 c 1,5,-1
 248 0 l 1,6,7
 372 630 372 630 750 1286 c 1,8,-1
 76 1286 l 1,0,-1
EndSplineSet
EndChar

StartChar: eight
Encoding: 56 56 27
Width: 1100
GlyphClass: 2
Flags: W
LayerCount: 2
Fore
SplineSet
330 1096 m 0,0,1
 330 992 330 992 394 927 c 128,-1,2
 458 862 458 862 550 862 c 0,3,4
 644 862 644 862 706 928 c 128,-1,5
 768 994 768 994 768 1096 c 0,6,7
 768 1194 768 1194 707 1260 c 128,-1,8
 646 1326 646 1326 550 1326 c 0,9,10
 452 1326 452 1326 391 1260 c 128,-1,11
 330 1194 330 1194 330 1096 c 0,0,1
64 402 m 0,12,13
 64 550 64 550 142 645 c 128,-1,14
 220 740 220 740 326 780 c 1,15,16
 110 884 110 884 110 1104 c 0,17,18
 110 1276 110 1276 235 1390 c 128,-1,19
 360 1504 360 1504 550 1504 c 256,20,21
 740 1504 740 1504 865 1390 c 128,-1,22
 990 1276 990 1276 990 1104 c 0,23,24
 990 986 990 986 928 904 c 128,-1,25
 866 822 866 822 772 780 c 1,26,27
 884 740 884 740 961 643 c 128,-1,28
 1038 546 1038 546 1038 400 c 0,29,30
 1038 206 1038 206 902 86 c 128,-1,31
 766 -34 766 -34 550 -34 c 0,32,33
 346 -34 346 -34 205 82 c 128,-1,34
 64 198 64 198 64 402 c 0,12,13
286 412 m 0,35,36
 286 298 286 298 360 221 c 128,-1,37
 434 144 434 144 550 144 c 256,38,39
 666 144 666 144 740 221 c 128,-1,40
 814 298 814 298 814 412 c 256,41,42
 814 526 814 526 740 606 c 128,-1,43
 666 686 666 686 550 686 c 0,44,45
 436 686 436 686 361 607 c 128,-1,46
 286 528 286 528 286 412 c 0,35,36
EndSplineSet
EndChar

StartChar: nine
Encoding: 57 57 28
Width: 1100
GlyphClass: 2
Flags: W
LayerCount: 2
Fore
SplineSet
284 1008 m 0,0,1
 284 864 284 864 356 777 c 128,-1,2
 428 690 428 690 534 690 c 256,3,4
 640 690 640 690 710 779 c 128,-1,5
 780 868 780 868 780 1008 c 0,6,7
 780 1142 780 1142 712 1234 c 128,-1,8
 644 1326 644 1326 534 1326 c 0,9,10
 426 1326 426 1326 355 1236 c 128,-1,11
 284 1146 284 1146 284 1008 c 0,0,1
68 260 m 1,12,-1
 246 318 l 1,13,14
 334 144 334 144 490 144 c 0,15,16
 572 144 572 144 633 188 c 128,-1,17
 694 232 694 232 727 312 c 128,-1,18
 760 392 760 392 776 481 c 128,-1,19
 792 570 792 570 794 674 c 1,20,21
 754 608 754 608 680 560 c 128,-1,22
 606 512 606 512 502 512 c 0,23,24
 322 512 322 512 194 647 c 128,-1,25
 66 782 66 782 66 1006 c 0,26,27
 66 1226 66 1226 197 1365 c 128,-1,28
 328 1504 328 1504 532 1504 c 0,29,30
 704 1504 704 1504 822 1394 c 128,-1,31
 940 1284 940 1284 980 1106 c 0,32,33
 1006 990 1006 990 1006 806 c 0,34,35
 1006 406 1006 406 879 186 c 128,-1,36
 752 -34 752 -34 486 -34 c 0,37,38
 336 -34 336 -34 225 55 c 128,-1,39
 114 144 114 144 68 260 c 1,12,-1
EndSplineSet
EndChar

StartChar: colon
Encoding: 58 58 29
Width: 550
GlyphClass: 2
Flags: W
LayerCount: 2
Fore
SplineSet
130 0 m 1,0,-1
 130 270 l 1,1,-1
 422 270 l 1,2,-1
 422 0 l 1,3,-1
 130 0 l 1,0,-1
130 784 m 1,4,-1
 130 1056 l 1,5,-1
 422 1056 l 1,6,-1
 422 784 l 1,7,-1
 130 784 l 1,4,-1
EndSplineSet
EndChar

StartChar: semicolon
Encoding: 59 59 30
Width: 550
GlyphClass: 2
Flags: W
LayerCount: 2
Fore
SplineSet
14 -322 m 1,0,-1
 188 270 l 1,1,-1
 440 270 l 1,2,-1
 184 -322 l 1,3,-1
 14 -322 l 1,0,-1
138 784 m 1,4,-1
 138 1056 l 1,5,-1
 430 1056 l 1,6,-1
 430 784 l 1,7,-1
 138 784 l 1,4,-1
EndSplineSet
EndChar

StartChar: less
Encoding: 60 60 31
Width: 1114
GlyphClass: 2
Flags: W
LayerCount: 2
Fore
SplineSet
88 614 m 1,0,-1
 88 808 l 1,1,-1
 904 1418 l 1,2,-1
 1018 1262 l 1,3,-1
 294 712 l 1,4,-1
 1018 162 l 1,5,-1
 904 6 l 1,6,-1
 88 614 l 1,0,-1
EndSplineSet
EndChar

StartChar: equal
Encoding: 61 61 32
Width: 1114
GlyphClass: 2
Flags: W
LayerCount: 2
Fore
SplineSet
94 434 m 1,0,-1
 94 616 l 1,1,-1
 1020 616 l 1,2,-1
 1020 434 l 1,3,-1
 94 434 l 1,0,-1
94 836 m 1,4,-1
 94 1020 l 1,5,-1
 1020 1020 l 1,6,-1
 1020 836 l 1,7,-1
 94 836 l 1,4,-1
EndSplineSet
Substitution2: "'sups' Superscript lookup 5 subtable" uni207C
Substitution2: "'aalt' Access All Alternates lookup 0 subtable" uni207C
EndChar

StartChar: greater
Encoding: 62 62 33
Width: 1114
GlyphClass: 2
Flags: W
LayerCount: 2
Fore
SplineSet
208 6 m 1,0,-1
 96 162 l 1,1,-1
 820 712 l 1,2,-1
 96 1262 l 1,3,-1
 208 1418 l 1,4,-1
 1028 808 l 1,5,-1
 1028 614 l 1,6,-1
 208 6 l 1,0,-1
EndSplineSet
EndChar

StartChar: question
Encoding: 63 63 34
Width: 1132
GlyphClass: 2
Flags: W
LayerCount: 2
Fore
SplineSet
122 1164 m 1,0,1
 168 1314 168 1314 285 1412 c 128,-1,2
 402 1510 402 1510 572 1510 c 0,3,4
 764 1510 764 1510 882 1397 c 128,-1,5
 1000 1284 1000 1284 1000 1100 c 0,6,7
 1000 1010 1000 1010 965 938 c 128,-1,8
 930 866 930 866 880 818 c 128,-1,9
 830 770 830 770 780 723 c 128,-1,10
 730 676 730 676 695 610 c 128,-1,11
 660 544 660 544 660 466 c 2,12,-1
 660 404 l 1,13,-1
 442 404 l 1,14,-1
 442 482 l 2,15,16
 442 562 442 562 467 628 c 128,-1,17
 492 694 492 694 530 737 c 128,-1,18
 568 780 568 780 610 825 c 128,-1,19
 652 870 652 870 690 906 c 128,-1,20
 728 942 728 942 753 995 c 128,-1,21
 778 1048 778 1048 778 1106 c 0,22,23
 778 1206 778 1206 723 1266 c 128,-1,24
 668 1326 668 1326 574 1326 c 0,25,26
 400 1326 400 1326 312 1102 c 1,27,-1
 122 1164 l 1,0,1
404 -14 m 1,28,-1
 404 252 l 1,29,-1
 698 252 l 1,30,-1
 698 -14 l 1,31,-1
 404 -14 l 1,28,-1
EndSplineSet
EndChar

StartChar: at
Encoding: 64 64 35
Width: 1874
GlyphClass: 2
Flags: W
LayerCount: 2
Fore
SplineSet
104 690 m 256,0,1
 104 1062 104 1062 347 1298 c 128,-1,2
 590 1534 590 1534 976 1534 c 0,3,4
 1326 1534 1326 1534 1549 1326 c 128,-1,5
 1772 1118 1772 1118 1772 796 c 0,6,7
 1772 646 1772 646 1734 532 c 128,-1,8
 1696 418 1696 418 1634 355 c 128,-1,9
 1572 292 1572 292 1503 260 c 128,-1,10
 1434 228 1434 228 1362 228 c 0,11,12
 1278 228 1278 228 1215 281 c 128,-1,13
 1152 334 1152 334 1140 414 c 1,14,-1
 1138 414 l 1,15,16
 1110 344 1110 344 1033 287 c 128,-1,17
 956 230 956 230 856 230 c 0,18,19
 714 230 714 230 616 340 c 128,-1,20
 518 450 518 450 518 628 c 0,21,22
 518 866 518 866 641 1002 c 128,-1,23
 764 1138 764 1138 934 1138 c 0,24,25
 1010 1138 1010 1138 1064 1104 c 128,-1,26
 1118 1070 1118 1070 1144 1032 c 1,27,-1
 1152 1124 l 1,28,-1
 1312 1124 l 1,29,-1
 1282 542 l 2,30,31
 1282 532 1282 532 1282 522 c 0,32,33
 1282 462 1282 462 1306 425 c 128,-1,34
 1330 388 1330 388 1376 388 c 0,35,36
 1462 388 1462 388 1525 495 c 128,-1,37
 1588 602 1588 602 1588 786 c 0,38,39
 1588 1050 1588 1050 1421 1216 c 128,-1,40
 1254 1382 1254 1382 976 1382 c 0,41,42
 676 1382 676 1382 483 1187 c 128,-1,43
 290 992 290 992 290 690 c 0,44,45
 290 372 290 372 475 188 c 128,-1,46
 660 4 660 4 956 4 c 0,47,48
 1172 4 1172 4 1378 62 c 1,49,-1
 1412 -80 l 1,50,51
 1210 -150 1210 -150 956 -150 c 0,52,53
 568 -150 568 -150 336 84 c 128,-1,54
 104 318 104 318 104 690 c 256,0,1
716 630 m 0,55,56
 716 534 716 534 761 467 c 128,-1,57
 806 400 806 400 882 400 c 0,58,59
 968 400 968 400 1041 492 c 128,-1,60
 1114 584 1114 584 1114 796 c 0,61,62
 1114 876 1114 876 1073 929 c 128,-1,63
 1032 982 1032 982 950 982 c 0,64,65
 860 982 860 982 788 885 c 128,-1,66
 716 788 716 788 716 630 c 0,55,56
EndSplineSet
EndChar

StartChar: A
Encoding: 65 65 36
Width: 1302
GlyphClass: 2
Flags: W
LayerCount: 2
Fore
SplineSet
412 558 m 1,0,-1
 890 558 l 1,1,-1
 750 974 l 2,2,3
 738 1008 738 1008 705 1111 c 128,-1,4
 672 1214 672 1214 656 1264 c 1,5,-1
 646 1264 l 1,6,7
 622 1190 622 1190 554 974 c 2,8,-1
 412 558 l 1,0,-1
-8 0 m 1,9,-1
 530 1470 l 1,10,-1
 774 1470 l 1,11,-1
 1312 0 l 1,12,-1
 1078 0 l 1,13,-1
 948 384 l 1,14,-1
 356 384 l 1,15,-1
 226 0 l 1,16,-1
 -8 0 l 1,9,-1
EndSplineSet
Substitution2: "Single Substitution lookup 12 subtable" ordfeminine
EndChar

StartChar: B
Encoding: 66 66 37
Width: 1328
GlyphClass: 2
Flags: W
LayerCount: 2
Fore
SplineSet
178 0 m 1,0,-1
 178 1470 l 1,1,-1
 730 1470 l 2,2,3
 960 1470 960 1470 1074 1367 c 128,-1,4
 1188 1264 1188 1264 1188 1086 c 0,5,6
 1188 870 1188 870 996 776 c 1,7,8
 1098 742 1098 742 1170 649 c 128,-1,9
 1242 556 1242 556 1242 422 c 0,10,11
 1242 244 1242 244 1125 122 c 128,-1,12
 1008 0 1008 0 802 0 c 2,13,-1
 178 0 l 1,0,-1
394 186 m 1,14,-1
 760 186 l 2,15,16
 868 186 868 186 943 247 c 128,-1,17
 1018 308 1018 308 1018 420 c 0,18,19
 1018 524 1018 524 948 595 c 128,-1,20
 878 666 878 666 754 666 c 2,21,-1
 394 666 l 1,22,-1
 394 186 l 1,14,-1
394 848 m 1,23,-1
 706 848 l 2,24,25
 820 848 820 848 892 904 c 128,-1,26
 964 960 964 960 964 1068 c 0,27,28
 964 1168 964 1168 904 1226 c 128,-1,29
 844 1284 844 1284 714 1284 c 2,30,-1
 394 1284 l 1,31,-1
 394 848 l 1,23,-1
EndSplineSet
EndChar

StartChar: C
Encoding: 67 67 38
Width: 1316
GlyphClass: 2
Flags: W
LayerCount: 2
Fore
SplineSet
86 734 m 0,0,1
 86 1090 86 1090 265 1297 c 128,-1,2
 444 1504 444 1504 730 1504 c 0,3,4
 914 1504 914 1504 1043 1404 c 128,-1,5
 1172 1304 1172 1304 1234 1160 c 1,6,-1
 1048 1098 l 1,7,8
 924 1318 924 1318 726 1318 c 0,9,10
 536 1318 536 1318 422 1158 c 128,-1,11
 308 998 308 998 308 734 c 0,12,13
 308 466 308 466 424 309 c 128,-1,14
 540 152 540 152 726 152 c 0,15,16
 850 152 850 152 941 224 c 128,-1,17
 1032 296 1032 296 1076 400 c 1,18,-1
 1272 338 l 1,19,20
 1242 270 1242 270 1199 211 c 128,-1,21
 1156 152 1156 152 1092 93 c 128,-1,22
 1028 34 1028 34 934 0 c 128,-1,23
 840 -34 840 -34 730 -34 c 0,24,25
 450 -34 450 -34 268 170 c 128,-1,26
 86 374 86 374 86 734 c 0,0,1
EndSplineSet
EndChar

StartChar: D
Encoding: 68 68 39
Width: 1372
GlyphClass: 2
Flags: W
LayerCount: 2
Fore
SplineSet
178 0 m 1,0,-1
 178 1470 l 1,1,-1
 602 1470 l 2,2,3
 930 1470 930 1470 1111 1281 c 128,-1,4
 1292 1092 1292 1092 1292 734 c 0,5,6
 1292 576 1292 576 1252 447 c 128,-1,7
 1212 318 1212 318 1132 216 c 128,-1,8
 1052 114 1052 114 916 57 c 128,-1,9
 780 0 780 0 598 0 c 2,10,-1
 178 0 l 1,0,-1
394 184 m 1,11,-1
 574 184 l 2,12,13
 1066 184 1066 184 1066 734 c 0,14,15
 1066 1286 1066 1286 576 1286 c 2,16,-1
 394 1286 l 1,17,-1
 394 184 l 1,11,-1
EndSplineSet
EndChar

StartChar: E
Encoding: 69 69 40
Width: 1210
GlyphClass: 2
Flags: W
LayerCount: 2
Fore
SplineSet
178 0 m 1,0,-1
 178 1470 l 1,1,-1
 1128 1470 l 1,2,-1
 1128 1284 l 1,3,-1
 394 1284 l 1,4,-1
 394 852 l 1,5,-1
 1056 852 l 1,6,-1
 1056 670 l 1,7,-1
 394 670 l 1,8,-1
 394 186 l 1,9,-1
 1144 186 l 1,10,-1
 1144 0 l 1,11,-1
 178 0 l 1,0,-1
EndSplineSet
EndChar

StartChar: F
Encoding: 70 70 41
Width: 1126
GlyphClass: 2
Flags: W
LayerCount: 2
Fore
SplineSet
178 0 m 1,0,-1
 178 1470 l 1,1,-1
 1100 1470 l 1,2,-1
 1100 1284 l 1,3,-1
 394 1284 l 1,4,-1
 394 828 l 1,5,-1
 1028 828 l 1,6,-1
 1028 646 l 1,7,-1
 394 646 l 1,8,-1
 394 0 l 1,9,-1
 178 0 l 1,0,-1
EndSplineSet
EndChar

StartChar: G
Encoding: 71 71 42
Width: 1418
GlyphClass: 2
Flags: W
LayerCount: 2
Fore
SplineSet
86 734 m 0,0,1
 86 1072 86 1072 263 1288 c 128,-1,2
 440 1504 440 1504 742 1504 c 0,3,4
 850 1504 850 1504 943 1469 c 128,-1,5
 1036 1434 1036 1434 1098 1378 c 128,-1,6
 1160 1322 1160 1322 1198 1270 c 128,-1,7
 1236 1218 1236 1218 1260 1166 c 1,8,-1
 1074 1104 l 1,9,10
 1014 1202 1014 1202 938 1260 c 128,-1,11
 862 1318 862 1318 742 1318 c 0,12,13
 538 1318 538 1318 423 1157 c 128,-1,14
 308 996 308 996 308 734 c 0,15,16
 308 464 308 464 425 308 c 128,-1,17
 542 152 542 152 732 152 c 0,18,19
 898 152 898 152 992 253 c 128,-1,20
 1086 354 1086 354 1094 502 c 0,21,22
 1096 534 1096 534 1096 628 c 1,23,-1
 716 628 l 1,24,-1
 716 812 l 1,25,-1
 1306 812 l 1,26,-1
 1306 0 l 1,27,-1
 1154 0 l 1,28,-1
 1136 172 l 1,29,30
 1016 -34 1016 -34 726 -34 c 0,31,32
 446 -34 446 -34 266 173 c 128,-1,33
 86 380 86 380 86 734 c 0,0,1
EndSplineSet
EndChar

StartChar: H
Encoding: 72 72 43
Width: 1420
GlyphClass: 2
Flags: W
LayerCount: 2
Fore
SplineSet
178 0 m 1,0,-1
 178 1470 l 1,1,-1
 394 1470 l 1,2,-1
 394 848 l 1,3,-1
 1030 848 l 1,4,-1
 1030 1470 l 1,5,-1
 1244 1470 l 1,6,-1
 1244 0 l 1,7,-1
 1030 0 l 1,8,-1
 1030 664 l 1,9,-1
 394 664 l 1,10,-1
 394 0 l 1,11,-1
 178 0 l 1,0,-1
EndSplineSet
EndChar

StartChar: I
Encoding: 73 73 44
Width: 570
GlyphClass: 2
Flags: W
LayerCount: 2
Fore
SplineSet
178 0 m 1,0,-1
 178 1470 l 1,1,-1
 394 1470 l 1,2,-1
 394 0 l 1,3,-1
 178 0 l 1,0,-1
EndSplineSet
EndChar

StartChar: J
Encoding: 74 74 45
Width: 1016
GlyphClass: 2
Flags: W
LayerCount: 2
Fore
SplineSet
18 262 m 1,0,-1
 202 332 l 1,1,2
 228 254 228 254 283 203 c 128,-1,3
 338 152 338 152 416 152 c 0,4,5
 622 152 622 152 622 442 c 2,6,-1
 622 1470 l 1,7,-1
 838 1470 l 1,8,-1
 838 414 l 2,9,10
 838 196 838 196 730 81 c 128,-1,11
 622 -34 622 -34 422 -34 c 0,12,13
 260 -34 260 -34 158 51 c 128,-1,14
 56 136 56 136 18 262 c 1,0,-1
EndSplineSet
EndChar

StartChar: K
Encoding: 75 75 46
Width: 1292
GlyphClass: 2
Flags: W
LayerCount: 2
Fore
SplineSet
178 0 m 1,0,-1
 178 1470 l 1,1,-1
 394 1470 l 1,2,-1
 394 770 l 1,3,-1
 400 770 l 1,4,-1
 1000 1470 l 1,5,-1
 1276 1470 l 1,6,-1
 714 830 l 1,7,-1
 1298 0 l 1,8,-1
 1034 0 l 1,9,-1
 576 676 l 1,10,-1
 394 470 l 1,11,-1
 394 0 l 1,12,-1
 178 0 l 1,0,-1
EndSplineSet
EndChar

StartChar: L
Encoding: 76 76 47
Width: 1088
GlyphClass: 2
Flags: W
LayerCount: 2
Fore
SplineSet
178 0 m 1,0,-1
 178 1470 l 1,1,-1
 394 1470 l 1,2,-1
 394 186 l 1,3,-1
 1070 186 l 1,4,-1
 1070 0 l 1,5,-1
 178 0 l 1,0,-1
EndSplineSet
EndChar

StartChar: M
Encoding: 77 77 48
Width: 1722
GlyphClass: 2
Flags: W
LayerCount: 2
Fore
SplineSet
178 0 m 1,0,-1
 178 1470 l 1,1,-1
 446 1470 l 1,2,-1
 724 752 l 2,3,4
 750 682 750 682 794 556 c 128,-1,5
 838 430 838 430 856 376 c 1,6,-1
 864 376 l 1,7,8
 876 406 876 406 1000 752 c 1,9,-1
 1276 1470 l 1,10,-1
 1548 1470 l 1,11,-1
 1548 0 l 1,12,-1
 1332 0 l 1,13,-1
 1332 718 l 2,14,15
 1332 864 1332 864 1356 1172 c 1,16,-1
 1348 1172 l 1,17,-1
 1252 894 l 1,18,-1
 946 92 l 1,19,-1
 780 92 l 1,20,-1
 472 894 l 1,21,-1
 374 1172 l 1,22,-1
 366 1172 l 1,23,24
 394 864 394 864 394 718 c 2,25,-1
 394 0 l 1,26,-1
 178 0 l 1,0,-1
EndSplineSet
EndChar

StartChar: N
Encoding: 78 78 49
Width: 1430
GlyphClass: 2
Flags: W
LayerCount: 2
Fore
SplineSet
178 0 m 1,0,-1
 178 1470 l 1,1,-1
 410 1470 l 1,2,-1
 886 620 l 1,3,-1
 1052 318 l 1,4,-1
 1064 318 l 1,5,6
 1036 516 1036 516 1036 740 c 2,7,-1
 1036 1470 l 1,8,-1
 1254 1470 l 1,9,-1
 1254 0 l 1,10,-1
 1022 0 l 1,11,-1
 544 842 l 1,12,-1
 378 1148 l 1,13,-1
 368 1148 l 1,14,15
 394 952 394 952 394 726 c 2,16,-1
 394 0 l 1,17,-1
 178 0 l 1,0,-1
EndSplineSet
EndChar

StartChar: O
Encoding: 79 79 50
Width: 1418
GlyphClass: 2
Flags: W
LayerCount: 2
Fore
SplineSet
86 734 m 0,0,1
 86 1080 86 1080 257 1292 c 128,-1,2
 428 1504 428 1504 712 1504 c 256,3,4
 996 1504 996 1504 1165 1292 c 128,-1,5
 1334 1080 1334 1080 1334 732 c 0,6,7
 1334 382 1334 382 1164 174 c 128,-1,8
 994 -34 994 -34 712 -34 c 0,9,10
 428 -34 428 -34 257 175 c 128,-1,11
 86 384 86 384 86 734 c 0,0,1
310 734 m 256,12,13
 310 466 310 466 417 309 c 128,-1,14
 524 152 524 152 712 152 c 0,15,16
 896 152 896 152 1003 307 c 128,-1,17
 1110 462 1110 462 1110 732 c 0,18,19
 1110 998 1110 998 1005 1158 c 128,-1,20
 900 1318 900 1318 712 1318 c 256,21,22
 524 1318 524 1318 417 1160 c 128,-1,23
 310 1002 310 1002 310 734 c 256,12,13
EndSplineSet
Substitution2: "Single Substitution lookup 12 subtable" ordmasculine
EndChar

StartChar: P
Encoding: 80 80 51
Width: 1294
GlyphClass: 2
Flags: W
LayerCount: 2
Fore
SplineSet
178 0 m 1,0,-1
 178 1470 l 1,1,-1
 746 1470 l 2,2,3
 970 1470 970 1470 1098 1349 c 128,-1,4
 1226 1228 1226 1228 1226 1028 c 0,5,6
 1226 822 1226 822 1095 702 c 128,-1,7
 964 582 964 582 750 582 c 2,8,-1
 394 582 l 1,9,-1
 394 0 l 1,10,-1
 178 0 l 1,0,-1
394 766 m 1,11,-1
 716 766 l 2,12,13
 854 766 854 766 928 832 c 128,-1,14
 1002 898 1002 898 1002 1028 c 0,15,16
 1002 1154 1002 1154 929 1219 c 128,-1,17
 856 1284 856 1284 716 1284 c 2,18,-1
 394 1284 l 1,19,-1
 394 766 l 1,11,-1
EndSplineSet
EndChar

StartChar: Q
Encoding: 81 81 52
Width: 1418
GlyphClass: 2
Flags: W
LayerCount: 2
Fore
SplineSet
86 732 m 0,0,1
 86 1082 86 1082 258 1293 c 128,-1,2
 430 1504 430 1504 712 1504 c 0,3,4
 996 1504 996 1504 1165 1292 c 128,-1,5
 1334 1080 1334 1080 1334 732 c 0,6,7
 1334 392 1334 392 1170 182 c 1,8,-1
 1334 12 l 1,9,-1
 1206 -102 l 1,10,-1
 1046 64 l 1,11,12
 906 -34 906 -34 712 -34 c 0,13,14
 426 -34 426 -34 256 177 c 128,-1,15
 86 388 86 388 86 732 c 0,0,1
664 458 m 1,16,-1
 790 574 l 1,17,-1
 1020 336 l 1,18,19
 1110 488 1110 488 1110 732 c 0,20,21
 1110 1006 1110 1006 1002 1162 c 128,-1,22
 894 1318 894 1318 712 1318 c 0,23,24
 526 1318 526 1318 418 1160 c 128,-1,25
 310 1002 310 1002 310 732 c 0,26,27
 310 464 310 464 418 308 c 128,-1,28
 526 152 526 152 712 152 c 0,29,30
 822 152 822 152 906 208 c 1,31,-1
 664 458 l 1,16,-1
EndSplineSet
EndChar

StartChar: R
Encoding: 82 82 53
Width: 1332
GlyphClass: 2
Flags: W
LayerCount: 2
Fore
SplineSet
394 786 m 1,0,-1
 732 786 l 2,1,2
 864 786 864 786 935 854 c 128,-1,3
 1006 922 1006 922 1006 1040 c 0,4,5
 1006 1150 1006 1150 932 1217 c 128,-1,6
 858 1284 858 1284 722 1284 c 2,7,-1
 394 1284 l 1,8,-1
 394 786 l 1,0,-1
178 0 m 1,9,-1
 178 1470 l 1,10,-1
 766 1470 l 2,11,12
 990 1470 990 1470 1110 1352 c 128,-1,13
 1230 1234 1230 1234 1230 1058 c 0,14,15
 1230 906 1230 906 1158 810 c 128,-1,16
 1086 714 1086 714 996 682 c 1,17,18
 1070 636 1070 636 1103 579 c 128,-1,19
 1136 522 1136 522 1158 412 c 0,20,21
 1182 296 1182 296 1214 205 c 128,-1,22
 1246 114 1246 114 1312 0 c 1,23,-1
 1070 0 l 1,24,25
 988 140 988 140 930 398 c 0,26,27
 910 498 910 498 866 551 c 128,-1,28
 822 604 822 604 726 604 c 2,29,-1
 394 604 l 1,30,-1
 394 0 l 1,31,-1
 178 0 l 1,9,-1
EndSplineSet
EndChar

StartChar: S
Encoding: 83 83 54
Width: 1216
GlyphClass: 2
Flags: W
LayerCount: 2
Fore
SplineSet
58 300 m 1,0,-1
 252 368 l 1,1,2
 306 270 306 270 407 211 c 128,-1,3
 508 152 508 152 632 152 c 0,4,5
 762 152 762 152 844 216 c 128,-1,6
 926 280 926 280 926 386 c 0,7,8
 926 442 926 442 902 487 c 128,-1,9
 878 532 878 532 826 565 c 128,-1,10
 774 598 774 598 726 619 c 128,-1,11
 678 640 678 640 600 666 c 0,12,13
 376 740 376 740 294 790 c 0,14,15
 112 902 112 902 112 1104 c 0,16,17
 112 1284 112 1284 252 1394 c 128,-1,18
 392 1504 392 1504 618 1504 c 0,19,20
 802 1504 802 1504 934 1419 c 128,-1,21
 1066 1334 1066 1334 1126 1204 c 1,22,-1
 944 1140 l 1,23,24
 826 1318 826 1318 616 1318 c 0,25,26
 486 1318 486 1318 410 1261 c 128,-1,27
 334 1204 334 1204 334 1106 c 0,28,29
 334 1032 334 1032 395 976 c 128,-1,30
 456 920 456 920 509 899 c 128,-1,31
 562 878 562 878 694 834 c 0,32,33
 722 824 722 824 738 820 c 0,34,35
 826 788 826 788 891 758 c 128,-1,36
 956 728 956 728 1020 679 c 128,-1,37
 1084 630 1084 630 1118 558 c 128,-1,38
 1152 486 1152 486 1152 396 c 0,39,40
 1152 192 1152 192 1006 79 c 128,-1,41
 860 -34 860 -34 628 -34 c 0,42,43
 426 -34 426 -34 278 57 c 128,-1,44
 130 148 130 148 58 300 c 1,0,-1
EndSplineSet
EndChar

StartChar: T
Encoding: 84 84 55
Width: 1118
GlyphClass: 2
Flags: W
LayerCount: 2
Fore
SplineSet
20 1284 m 1,0,-1
 20 1470 l 1,1,-1
 1102 1470 l 1,2,-1
 1102 1284 l 1,3,-1
 670 1284 l 1,4,-1
 670 0 l 1,5,-1
 454 0 l 1,6,-1
 454 1284 l 1,7,-1
 20 1284 l 1,0,-1
EndSplineSet
EndChar

StartChar: U
Encoding: 85 85 56
Width: 1414
GlyphClass: 2
Flags: W
LayerCount: 2
Fore
SplineSet
172 542 m 2,0,-1
 172 1470 l 1,1,-1
 390 1470 l 1,2,-1
 390 544 l 2,3,4
 390 346 390 346 476 249 c 128,-1,5
 562 152 562 152 708 152 c 0,6,7
 856 152 856 152 942 252 c 128,-1,8
 1028 352 1028 352 1028 544 c 2,9,-1
 1028 1470 l 1,10,-1
 1244 1470 l 1,11,-1
 1244 542 l 2,12,13
 1244 268 1244 268 1108 117 c 128,-1,14
 972 -34 972 -34 708 -34 c 0,15,16
 452 -34 452 -34 312 113 c 128,-1,17
 172 260 172 260 172 542 c 2,0,-1
EndSplineSet
EndChar

StartChar: V
Encoding: 86 86 57
Width: 1206
GlyphClass: 2
Flags: W
LayerCount: 2
Fore
SplineSet
0 1470 m 1,0,-1
 236 1470 l 1,1,-1
 508 570 l 1,2,3
 580 298 580 298 600 224 c 1,4,-1
 608 224 l 1,5,6
 624 286 624 286 654 397 c 128,-1,7
 684 508 684 508 702 570 c 2,8,-1
 972 1470 l 1,9,-1
 1210 1470 l 1,10,-1
 728 0 l 1,11,-1
 480 0 l 1,12,-1
 0 1470 l 1,0,-1
EndSplineSet
EndChar

StartChar: W
Encoding: 87 87 58
Width: 1732
GlyphClass: 2
Flags: W
LayerCount: 2
Fore
SplineSet
22 1470 m 1,0,-1
 254 1470 l 1,1,-1
 424 602 l 2,2,3
 450 454 450 454 482 236 c 1,4,-1
 492 236 l 1,5,6
 522 402 522 402 562 602 c 2,7,-1
 754 1470 l 1,8,-1
 978 1470 l 1,9,-1
 1172 602 l 2,10,11
 1212 410 1212 410 1242 236 c 1,12,-1
 1252 236 l 1,13,14
 1260 280 1260 280 1282 411 c 128,-1,15
 1304 542 1304 542 1312 602 c 2,16,-1
 1482 1470 l 1,17,-1
 1712 1470 l 1,18,-1
 1378 0 l 1,19,-1
 1128 0 l 1,20,-1
 936 856 l 1,21,22
 882 1136 882 1136 872 1204 c 1,23,-1
 862 1204 l 1,24,25
 854 1136 854 1136 827 1008 c 128,-1,26
 800 880 800 880 796 856 c 2,27,-1
 608 0 l 1,28,-1
 360 0 l 1,29,-1
 22 1470 l 1,0,-1
EndSplineSet
EndChar

StartChar: X
Encoding: 88 88 59
Width: 1208
GlyphClass: 2
Flags: W
LayerCount: 2
Fore
SplineSet
2 0 m 1,0,-1
 476 754 l 1,1,-1
 24 1470 l 1,2,-1
 284 1470 l 1,3,-1
 474 1138 l 2,4,5
 496 1102 496 1102 538 1029 c 128,-1,6
 580 956 580 956 602 918 c 1,7,-1
 610 918 l 1,8,9
 630 956 630 956 673 1029 c 128,-1,10
 716 1102 716 1102 736 1138 c 2,11,-1
 926 1470 l 1,12,-1
 1186 1470 l 1,13,-1
 734 754 l 1,14,-1
 1210 0 l 1,15,-1
 956 0 l 1,16,-1
 746 352 l 2,17,18
 720 392 720 392 673 475 c 128,-1,19
 626 558 626 558 610 586 c 1,20,-1
 602 586 l 1,21,22
 552 500 552 500 466 352 c 2,23,-1
 258 0 l 1,24,-1
 2 0 l 1,0,-1
EndSplineSet
EndChar

StartChar: Y
Encoding: 89 89 60
Width: 1232
GlyphClass: 2
Flags: W
LayerCount: 2
Fore
SplineSet
-6 1470 m 1,0,-1
 246 1470 l 1,1,-1
 480 1032 l 2,2,3
 560 886 560 886 612 780 c 1,4,-1
 618 780 l 1,5,6
 640 816 640 816 662 858 c 128,-1,7
 684 900 684 900 711 951 c 128,-1,8
 738 1002 738 1002 752 1032 c 2,9,-1
 986 1470 l 1,10,-1
 1240 1470 l 1,11,-1
 726 600 l 1,12,-1
 726 0 l 1,13,-1
 508 0 l 1,14,-1
 508 600 l 1,15,-1
 -6 1470 l 1,0,-1
EndSplineSet
EndChar

StartChar: Z
Encoding: 90 90 61
Width: 1208
GlyphClass: 2
Flags: W
LayerCount: 2
Fore
SplineSet
72 158 m 1,0,-1
 856 1284 l 1,1,-1
 132 1284 l 1,2,-1
 132 1470 l 1,3,-1
 1124 1470 l 1,4,-1
 1124 1310 l 1,5,-1
 336 186 l 1,6,-1
 1142 186 l 1,7,-1
 1142 0 l 1,8,-1
 72 0 l 1,9,-1
 72 158 l 1,0,-1
EndSplineSet
EndChar

StartChar: bracketleft
Encoding: 91 91 62
Width: 888
GlyphClass: 2
Flags: W
LayerCount: 2
Fore
SplineSet
262 -244 m 1,0,-1
 262 1656 l 1,1,-1
 716 1656 l 1,2,-1
 716 1486 l 1,3,-1
 472 1486 l 1,4,-1
 472 -74 l 1,5,-1
 716 -74 l 1,6,-1
 716 -244 l 1,7,-1
 262 -244 l 1,0,-1
EndSplineSet
EndChar

StartChar: backslash
Encoding: 92 92 63
Width: 696
GlyphClass: 2
Flags: W
LayerCount: 2
Fore
SplineSet
-28 1564 m 1,0,-1
 188 1564 l 1,1,-1
 728 -108 l 1,2,-1
 510 -108 l 1,3,-1
 -28 1564 l 1,0,-1
EndSplineSet
EndChar

StartChar: bracketright
Encoding: 93 93 64
Width: 888
GlyphClass: 2
Flags: W
LayerCount: 2
Fore
SplineSet
172 -74 m 1,0,-1
 416 -74 l 1,1,-1
 416 1486 l 1,2,-1
 172 1486 l 1,3,-1
 172 1656 l 1,4,-1
 626 1656 l 1,5,-1
 626 -244 l 1,6,-1
 172 -244 l 1,7,-1
 172 -74 l 1,0,-1
EndSplineSet
EndChar

StartChar: asciicircum
Encoding: 94 94 65
Width: 1038
GlyphClass: 2
Flags: W
LayerCount: 2
Fore
SplineSet
24 930 m 1,0,-1
 422 1618 l 1,1,-1
 618 1618 l 1,2,-1
 1016 930 l 1,3,-1
 798 930 l 1,4,-1
 586 1324 l 1,5,-1
 520 1452 l 1,6,-1
 240 930 l 1,7,-1
 24 930 l 1,0,-1
EndSplineSet
EndChar

StartChar: underscore
Encoding: 95 95 66
Width: 950
GlyphClass: 2
Flags: W
LayerCount: 2
Fore
SplineSet
12 -22 m 1,0,-1
 944 -22 l 1,1,-1
 944 -192 l 1,2,-1
 12 -192 l 1,3,-1
 12 -22 l 1,0,-1
EndSplineSet
EndChar

StartChar: grave
Encoding: 96 96 67
Width: 662
GlyphClass: 2
Flags: W
LayerCount: 2
Fore
SplineSet
332 1046 m 1,0,-1
 74 1638 l 1,1,-1
 328 1638 l 1,2,-1
 502 1046 l 1,3,-1
 332 1046 l 1,0,-1
EndSplineSet
EndChar

StartChar: a
Encoding: 97 97 68
Width: 1098
GlyphClass: 2
Flags: W
LayerCount: 2
Fore
SplineSet
282 292 m 0,0,1
 282 228 282 228 334 184 c 128,-1,2
 386 140 386 140 474 140 c 0,3,4
 596 140 596 140 681 219 c 128,-1,5
 766 298 766 298 766 424 c 2,6,-1
 766 540 l 1,7,8
 680 518 680 518 538 496 c 0,9,10
 408 474 408 474 345 425 c 128,-1,11
 282 376 282 376 282 292 c 0,0,1
70 274 m 0,12,13
 70 574 70 574 522 644 c 0,14,15
 710 672 710 672 766 690 c 1,16,-1
 766 750 l 2,17,18
 766 834 766 834 705 884 c 128,-1,19
 644 934 644 934 540 934 c 0,20,21
 356 934 356 934 228 786 c 1,22,-1
 98 894 l 1,23,24
 180 992 180 992 294 1047 c 128,-1,25
 408 1102 408 1102 536 1102 c 0,26,27
 974 1102 974 1102 974 670 c 2,28,-1
 974 0 l 1,29,-1
 772 0 l 1,30,-1
 772 148 l 1,31,32
 740 74 740 74 651 20 c 128,-1,33
 562 -34 562 -34 444 -34 c 0,34,35
 270 -34 270 -34 170 52 c 128,-1,36
 70 138 70 138 70 274 c 0,12,13
EndSplineSet
Substitution2: "Single Substitution lookup 12 subtable" ordfeminine
EndChar

StartChar: b
Encoding: 98 98 69
Width: 1170
GlyphClass: 2
Flags: W
LayerCount: 2
Fore
SplineSet
150 0 m 1,0,-1
 150 1522 l 1,1,-1
 356 1522 l 1,2,-1
 356 926 l 1,3,4
 394 996 394 996 469 1049 c 128,-1,5
 544 1102 544 1102 646 1102 c 0,6,7
 842 1102 842 1102 970 950 c 128,-1,8
 1098 798 1098 798 1098 536 c 0,9,10
 1098 388 1098 388 1056 273 c 128,-1,11
 1014 158 1014 158 947 94 c 128,-1,12
 880 30 880 30 803 -2 c 128,-1,13
 726 -34 726 -34 646 -34 c 0,14,15
 546 -34 546 -34 467 21 c 128,-1,16
 388 76 388 76 352 154 c 1,17,-1
 352 0 l 1,18,-1
 150 0 l 1,0,-1
352 536 m 0,19,20
 352 354 352 354 427 248 c 128,-1,21
 502 142 502 142 616 142 c 0,22,23
 734 142 734 142 809 245 c 128,-1,24
 884 348 884 348 884 536 c 0,25,26
 884 716 884 716 811 820 c 128,-1,27
 738 924 738 924 616 924 c 0,28,29
 500 924 500 924 426 818 c 128,-1,30
 352 712 352 712 352 536 c 0,19,20
EndSplineSet
EndChar

StartChar: c
Encoding: 99 99 70
Width: 1024
GlyphClass: 2
Flags: W
LayerCount: 2
Fore
SplineSet
74 534 m 0,0,1
 74 790 74 790 207 946 c 128,-1,2
 340 1102 340 1102 560 1102 c 0,3,4
 716 1102 716 1102 821 1010 c 128,-1,5
 926 918 926 918 958 796 c 1,6,-1
 782 748 l 1,7,8
 756 822 756 822 699 873 c 128,-1,9
 642 924 642 924 562 924 c 0,10,11
 434 924 434 924 361 813 c 128,-1,12
 288 702 288 702 288 534 c 0,13,14
 288 350 288 350 365 246 c 128,-1,15
 442 142 442 142 562 142 c 0,16,17
 646 142 646 142 714 200 c 128,-1,18
 782 258 782 258 808 332 c 1,19,-1
 984 282 l 1,20,21
 948 156 948 156 832 61 c 128,-1,22
 716 -34 716 -34 560 -34 c 0,23,24
 342 -34 342 -34 208 120 c 128,-1,25
 74 274 74 274 74 534 c 0,0,1
EndSplineSet
EndChar

StartChar: d
Encoding: 100 100 71
Width: 1170
GlyphClass: 2
Flags: W
LayerCount: 2
Fore
SplineSet
74 536 m 0,0,1
 74 798 74 798 202 950 c 128,-1,2
 330 1102 330 1102 526 1102 c 0,3,4
 626 1102 626 1102 702 1049 c 128,-1,5
 778 996 778 996 814 926 c 1,6,-1
 814 1522 l 1,7,-1
 1022 1522 l 1,8,-1
 1022 0 l 1,9,-1
 820 0 l 1,10,-1
 820 156 l 1,11,12
 784 76 784 76 705 21 c 128,-1,13
 626 -34 626 -34 526 -34 c 0,14,15
 442 -34 442 -34 366 -2 c 128,-1,16
 290 30 290 30 223 94 c 128,-1,17
 156 158 156 158 115 273 c 128,-1,18
 74 388 74 388 74 536 c 0,0,1
286 536 m 0,19,20
 286 352 286 352 361 247 c 128,-1,21
 436 142 436 142 554 142 c 0,22,23
 668 142 668 142 743 248 c 128,-1,24
 818 354 818 354 818 536 c 0,25,26
 818 712 818 712 744 818 c 128,-1,27
 670 924 670 924 554 924 c 0,28,29
 430 924 430 924 358 818 c 128,-1,30
 286 712 286 712 286 536 c 0,19,20
EndSplineSet
EndChar

StartChar: e
Encoding: 101 101 72
Width: 1114
GlyphClass: 2
Flags: W
LayerCount: 2
Fore
SplineSet
74 540 m 0,0,1
 74 792 74 792 213 947 c 128,-1,2
 352 1102 352 1102 566 1102 c 256,3,4
 780 1102 780 1102 913 948 c 128,-1,5
 1046 794 1046 794 1046 552 c 0,6,7
 1046 548 1046 548 1040 464 c 1,8,-1
 284 464 l 1,9,10
 284 330 284 330 361 233 c 128,-1,11
 438 136 438 136 576 136 c 0,12,13
 670 136 670 136 742 182 c 128,-1,14
 814 228 814 228 852 298 c 1,15,-1
 1026 240 l 1,16,17
 974 122 974 122 860 44 c 128,-1,18
 746 -34 746 -34 576 -34 c 0,19,20
 352 -34 352 -34 213 122 c 128,-1,21
 74 278 74 278 74 540 c 0,0,1
288 612 m 1,22,-1
 834 612 l 1,23,24
 834 748 834 748 762 840 c 128,-1,25
 690 932 690 932 566 932 c 0,26,27
 438 932 438 932 365 838 c 128,-1,28
 292 744 292 744 288 612 c 1,22,-1
EndSplineSet
EndChar

StartChar: f
Encoding: 102 102 73
Width: 686
GlyphClass: 2
Flags: W
LayerCount: 2
Fore
SplineSet
46 890 m 1,0,-1
 46 1066 l 1,1,-1
 216 1066 l 1,2,-1
 216 1198 l 2,3,4
 216 1360 216 1360 296 1441 c 128,-1,5
 376 1522 376 1522 522 1522 c 2,6,-1
 682 1522 l 1,7,-1
 682 1346 l 1,8,-1
 552 1346 l 2,9,10
 424 1346 424 1346 424 1182 c 2,11,-1
 424 1066 l 1,12,-1
 656 1066 l 1,13,-1
 656 890 l 1,14,-1
 424 890 l 1,15,-1
 424 0 l 1,16,-1
 216 0 l 1,17,-1
 216 890 l 1,18,-1
 46 890 l 1,0,-1
EndSplineSet
EndChar

StartChar: g
Encoding: 103 103 74
Width: 1138
GlyphClass: 2
Flags: W
LayerCount: 2
Fore
SplineSet
290 554 m 0,0,1
 290 382 290 382 359 284 c 128,-1,2
 428 186 428 186 542 186 c 0,3,4
 658 186 658 186 726 281 c 128,-1,5
 794 376 794 376 794 554 c 0,6,7
 794 728 794 728 725 826 c 128,-1,8
 656 924 656 924 546 924 c 0,9,10
 430 924 430 924 360 822 c 128,-1,11
 290 720 290 720 290 554 c 0,0,1
78 552 m 0,12,13
 78 802 78 802 202 952 c 128,-1,14
 326 1102 326 1102 518 1102 c 0,15,16
 624 1102 624 1102 695 1048 c 128,-1,17
 766 994 766 994 796 926 c 1,18,-1
 796 1066 l 1,19,-1
 1002 1066 l 1,20,-1
 1002 140 l 2,21,22
 1002 -162 1002 -162 888 -307 c 128,-1,23
 774 -452 774 -452 532 -452 c 0,24,25
 264 -452 264 -452 122 -252 c 1,26,-1
 262 -156 l 1,27,28
 376 -286 376 -286 538 -286 c 0,29,30
 650 -286 650 -286 720 -197 c 128,-1,31
 790 -108 790 -108 794 36 c 0,32,33
 794 58 794 58 795 104 c 128,-1,34
 796 150 796 150 796 166 c 1,35,36
 758 96 758 96 686 52 c 128,-1,37
 614 8 614 8 526 8 c 0,38,39
 324 8 324 8 201 158 c 128,-1,40
 78 308 78 308 78 552 c 0,12,13
EndSplineSet
EndChar

StartChar: h
Encoding: 104 104 75
Width: 1130
GlyphClass: 2
Flags: W
LayerCount: 2
Fore
SplineSet
150 0 m 1,0,-1
 150 1522 l 1,1,-1
 356 1522 l 1,2,-1
 356 938 l 1,3,-1
 360 938 l 1,4,5
 400 1008 400 1008 479 1055 c 128,-1,6
 558 1102 558 1102 652 1102 c 0,7,8
 810 1102 810 1102 907 1004 c 128,-1,9
 1004 906 1004 906 1004 686 c 2,10,-1
 1004 0 l 1,11,-1
 798 0 l 1,12,-1
 798 658 l 2,13,14
 798 924 798 924 614 924 c 0,15,16
 508 924 508 924 432 833 c 128,-1,17
 356 742 356 742 356 616 c 2,18,-1
 356 0 l 1,19,-1
 150 0 l 1,0,-1
EndSplineSet
Substitution2: "'sups' Superscript lookup 5 subtable" uni02B0
Substitution2: "'aalt' Access All Alternates lookup 0 subtable" uni02B0
EndChar

StartChar: i
Encoding: 105 105 76
Width: 536
GlyphClass: 2
Flags: W
LayerCount: 2
Fore
SplineSet
152 1252 m 1,0,-1
 152 1490 l 1,1,-1
 384 1490 l 1,2,-1
 384 1252 l 1,3,-1
 152 1252 l 1,0,-1
166 0 m 1,4,-1
 166 1066 l 1,5,-1
 372 1066 l 1,6,-1
 372 0 l 1,7,-1
 166 0 l 1,4,-1
EndSplineSet
EndChar

StartChar: j
Encoding: 106 106 77
Width: 548
GlyphClass: 2
Flags: W
LayerCount: 2
Fore
SplineSet
160 1252 m 1,0,-1
 160 1490 l 1,1,-1
 398 1490 l 1,2,-1
 398 1252 l 1,3,-1
 160 1252 l 1,0,-1
-20 -252 m 1,4,-1
 18 -252 l 2,5,6
 176 -252 176 -252 176 -32 c 2,7,-1
 176 1066 l 1,8,-1
 382 1066 l 1,9,-1
 382 -42 l 2,10,11
 382 -232 382 -232 297 -331 c 128,-1,12
 212 -430 212 -430 52 -430 c 2,13,-1
 -20 -430 l 1,14,-1
 -20 -252 l 1,4,-1
EndSplineSet
Substitution2: "'sups' Superscript lookup 5 subtable" uni02B2
Substitution2: "'aalt' Access All Alternates lookup 0 subtable" uni02B2
EndChar

StartChar: k
Encoding: 107 107 78
Width: 1042
GlyphClass: 2
Flags: W
LayerCount: 2
Fore
SplineSet
152 0 m 1,0,-1
 152 1522 l 1,1,-1
 360 1522 l 1,2,-1
 360 608 l 1,3,-1
 764 1066 l 1,4,-1
 1030 1066 l 1,5,-1
 642 636 l 1,6,-1
 1062 0 l 1,7,-1
 814 0 l 1,8,-1
 508 490 l 1,9,-1
 360 326 l 1,10,-1
 360 0 l 1,11,-1
 152 0 l 1,0,-1
EndSplineSet
EndChar

StartChar: l
Encoding: 108 108 79
Width: 524
GlyphClass: 2
Flags: W
LayerCount: 2
Fore
SplineSet
158 0 m 1,0,-1
 158 1522 l 1,1,-1
 368 1522 l 1,2,-1
 368 0 l 1,3,-1
 158 0 l 1,0,-1
EndSplineSet
Substitution2: "'sups' Superscript lookup 5 subtable" uni02E1
Substitution2: "'aalt' Access All Alternates lookup 0 subtable" uni02E1
EndChar

StartChar: m
Encoding: 109 109 80
Width: 1662
GlyphClass: 2
Flags: W
LayerCount: 2
Fore
SplineSet
138 0 m 1,0,-1
 138 1066 l 1,1,-1
 340 1066 l 1,2,-1
 340 930 l 1,3,4
 368 992 368 992 442 1047 c 128,-1,5
 516 1102 516 1102 622 1102 c 0,6,7
 804 1102 804 1102 886 894 c 1,8,9
 896 920 896 920 918 949 c 128,-1,10
 940 978 940 978 979 1015 c 128,-1,11
 1018 1052 1018 1052 1079 1077 c 128,-1,12
 1140 1102 1140 1102 1214 1102 c 0,13,14
 1538 1102 1538 1102 1538 686 c 2,15,-1
 1538 0 l 1,16,-1
 1326 0 l 1,17,-1
 1326 678 l 2,18,19
 1326 800 1326 800 1293 862 c 128,-1,20
 1260 924 1260 924 1170 924 c 0,21,22
 1068 924 1068 924 1004 840 c 128,-1,23
 940 756 940 756 940 632 c 2,24,-1
 940 0 l 1,25,-1
 734 0 l 1,26,-1
 734 682 l 2,27,28
 734 924 734 924 574 924 c 0,29,30
 468 924 468 924 408 845 c 128,-1,31
 348 766 348 766 348 638 c 2,32,-1
 348 0 l 1,33,-1
 138 0 l 1,0,-1
EndSplineSet
EndChar

StartChar: n
Encoding: 110 110 81
Width: 1122
GlyphClass: 2
Flags: W
LayerCount: 2
Fore
SplineSet
138 0 m 1,0,-1
 138 1066 l 1,1,-1
 340 1066 l 1,2,-1
 340 918 l 1,3,-1
 342 918 l 1,4,5
 368 982 368 982 450 1042 c 128,-1,6
 532 1102 532 1102 652 1102 c 0,7,8
 808 1102 808 1102 902 1005 c 128,-1,9
 996 908 996 908 996 686 c 2,10,-1
 996 0 l 1,11,-1
 788 0 l 1,12,-1
 788 658 l 2,13,14
 788 924 788 924 606 924 c 0,15,16
 498 924 498 924 423 836 c 128,-1,17
 348 748 348 748 348 622 c 2,18,-1
 348 0 l 1,19,-1
 138 0 l 1,0,-1
EndSplineSet
Substitution2: "'sups' Superscript lookup 5 subtable" uni207F
Substitution2: "'aalt' Access All Alternates lookup 0 subtable" uni207F
EndChar

StartChar: o
Encoding: 111 111 82
Width: 1122
GlyphClass: 2
Flags: W
LayerCount: 2
Fore
SplineSet
286 534 m 256,0,1
 286 342 286 342 367 242 c 128,-1,2
 448 142 448 142 562 142 c 0,3,4
 674 142 674 142 756 242 c 128,-1,5
 838 342 838 342 838 534 c 256,6,7
 838 726 838 726 756 825 c 128,-1,8
 674 924 674 924 562 924 c 256,9,10
 450 924 450 924 368 825 c 128,-1,11
 286 726 286 726 286 534 c 256,0,1
74 534 m 0,12,13
 74 688 74 688 124 813 c 128,-1,14
 174 938 174 938 288 1020 c 128,-1,15
 402 1102 402 1102 562 1102 c 0,16,17
 798 1102 798 1102 924 938 c 128,-1,18
 1050 774 1050 774 1050 534 c 0,19,20
 1050 436 1050 436 1025 342 c 128,-1,21
 1000 248 1000 248 946 161 c 128,-1,22
 892 74 892 74 793 20 c 128,-1,23
 694 -34 694 -34 562 -34 c 256,24,25
 430 -34 430 -34 331 18 c 128,-1,26
 232 70 232 70 178 156 c 128,-1,27
 124 242 124 242 99 337 c 128,-1,28
 74 432 74 432 74 534 c 0,12,13
EndSplineSet
Substitution2: "Single Substitution lookup 12 subtable" ordmasculine
EndChar

StartChar: p
Encoding: 112 112 83
Width: 1170
GlyphClass: 2
Flags: W
LayerCount: 2
Fore
SplineSet
354 536 m 0,0,1
 354 358 354 358 424 250 c 128,-1,2
 494 142 494 142 616 142 c 0,3,4
 734 142 734 142 809 247 c 128,-1,5
 884 352 884 352 884 536 c 0,6,7
 884 712 884 712 813 818 c 128,-1,8
 742 924 742 924 616 924 c 0,9,10
 496 924 496 924 425 816 c 128,-1,11
 354 708 354 708 354 536 c 0,0,1
150 -444 m 1,12,-1
 150 1066 l 1,13,-1
 348 1066 l 1,14,-1
 348 912 l 1,15,16
 390 996 390 996 467 1049 c 128,-1,17
 544 1102 544 1102 646 1102 c 0,18,19
 840 1102 840 1102 969 948 c 128,-1,20
 1098 794 1098 794 1098 536 c 0,21,22
 1098 392 1098 392 1057 278 c 128,-1,23
 1016 164 1016 164 950 98 c 128,-1,24
 884 32 884 32 806 -1 c 128,-1,25
 728 -34 728 -34 646 -34 c 0,26,27
 538 -34 538 -34 464 18 c 128,-1,28
 390 70 390 70 356 144 c 1,29,-1
 356 -444 l 1,30,-1
 150 -444 l 1,12,-1
EndSplineSet
EndChar

StartChar: q
Encoding: 113 113 84
Width: 1166
GlyphClass: 2
Flags: W
LayerCount: 2
Fore
SplineSet
286 536 m 0,0,1
 286 352 286 352 361 247 c 128,-1,2
 436 142 436 142 552 142 c 0,3,4
 672 142 672 142 744 250 c 128,-1,5
 816 358 816 358 816 536 c 0,6,7
 816 708 816 708 745 816 c 128,-1,8
 674 924 674 924 552 924 c 0,9,10
 424 924 424 924 355 816 c 128,-1,11
 286 708 286 708 286 536 c 0,0,1
74 536 m 0,12,13
 74 794 74 794 201 948 c 128,-1,14
 328 1102 328 1102 524 1102 c 0,15,16
 622 1102 622 1102 700 1049 c 128,-1,17
 778 996 778 996 822 912 c 1,18,-1
 822 1066 l 1,19,-1
 1022 1066 l 1,20,-1
 1022 -444 l 1,21,-1
 814 -444 l 1,22,-1
 814 144 l 1,23,24
 778 68 778 68 702 17 c 128,-1,25
 626 -34 626 -34 524 -34 c 0,26,27
 440 -34 440 -34 363 -1 c 128,-1,28
 286 32 286 32 220 97 c 128,-1,29
 154 162 154 162 114 276 c 128,-1,30
 74 390 74 390 74 536 c 0,12,13
EndSplineSet
EndChar

StartChar: r
Encoding: 114 114 85
Width: 744
GlyphClass: 2
Flags: W
LayerCount: 2
Fore
SplineSet
138 0 m 1,0,-1
 138 1066 l 1,1,-1
 336 1066 l 1,2,-1
 336 938 l 1,3,4
 368 1000 368 1000 438 1051 c 128,-1,5
 508 1102 508 1102 608 1102 c 0,6,7
 694 1102 694 1102 750 1076 c 1,8,-1
 750 886 l 1,9,10
 686 910 686 910 608 910 c 0,11,12
 482 910 482 910 415 814 c 128,-1,13
 348 718 348 718 348 560 c 2,14,-1
 348 0 l 1,15,-1
 138 0 l 1,0,-1
EndSplineSet
Substitution2: "'sups' Superscript lookup 5 subtable" uni02B3
Substitution2: "'aalt' Access All Alternates lookup 0 subtable" uni02B3
EndChar

StartChar: s
Encoding: 115 115 86
Width: 990
GlyphClass: 2
Flags: W
LayerCount: 2
Fore
SplineSet
54 220 m 1,0,-1
 206 306 l 1,1,2
 322 136 322 136 504 136 c 0,3,4
 600 136 600 136 658 175 c 128,-1,5
 716 214 716 214 716 278 c 0,6,7
 716 362 716 362 592 414 c 0,8,9
 552 434 552 434 412 476 c 0,10,11
 346 498 346 498 298 520 c 128,-1,12
 250 542 250 542 200 578 c 128,-1,13
 150 614 150 614 123 669 c 128,-1,14
 96 724 96 724 96 794 c 0,15,16
 96 932 96 932 212 1017 c 128,-1,17
 328 1102 328 1102 506 1102 c 0,18,19
 636 1102 636 1102 749 1032 c 128,-1,20
 862 962 862 962 918 858 c 1,21,-1
 780 774 l 1,22,23
 672 930 672 930 506 930 c 0,24,25
 408 930 408 930 357 892 c 128,-1,26
 306 854 306 854 306 790 c 0,27,28
 306 756 306 756 325 728 c 128,-1,29
 344 700 344 700 364 683 c 128,-1,30
 384 666 384 666 432 646 c 128,-1,31
 480 626 480 626 504 619 c 128,-1,32
 528 612 528 612 586 592 c 0,33,34
 930 486 930 486 930 276 c 0,35,36
 930 146 930 146 819 56 c 128,-1,37
 708 -34 708 -34 508 -34 c 0,38,39
 358 -34 358 -34 239 34 c 128,-1,40
 120 102 120 102 54 220 c 1,0,-1
EndSplineSet
Substitution2: "'hist' Historical Forms lookup 11 subtable" longs
Substitution2: "'sups' Superscript lookup 5 subtable" uni02E2
AlternateSubs2: "'aalt' Access All Alternates lookup 1 subtable" uni02E2 longs
EndChar

StartChar: t
Encoding: 116 116 87
Width: 728
GlyphClass: 2
Flags: W
LayerCount: 2
Fore
SplineSet
36 890 m 1,0,-1
 36 1066 l 1,1,-1
 208 1066 l 1,2,-1
 208 1390 l 1,3,-1
 416 1390 l 1,4,-1
 416 1066 l 1,5,-1
 672 1066 l 1,6,-1
 672 890 l 1,7,-1
 416 890 l 1,8,-1
 416 332 l 2,9,10
 416 250 416 250 449 214 c 128,-1,11
 482 178 482 178 550 178 c 2,12,-1
 672 178 l 1,13,-1
 672 0 l 1,14,-1
 524 0 l 2,15,16
 208 0 208 0 208 318 c 2,17,-1
 208 890 l 1,18,-1
 36 890 l 1,0,-1
EndSplineSet
EndChar

StartChar: u
Encoding: 117 117 88
Width: 1116
GlyphClass: 2
Flags: W
LayerCount: 2
Fore
SplineSet
124 382 m 2,0,-1
 124 1066 l 1,1,-1
 334 1066 l 1,2,-1
 334 414 l 2,3,4
 334 142 334 142 528 142 c 0,5,6
 646 142 646 142 709 237 c 128,-1,7
 772 332 772 332 772 466 c 2,8,-1
 772 1066 l 1,9,-1
 978 1066 l 1,10,-1
 978 0 l 1,11,-1
 780 0 l 1,12,-1
 780 140 l 1,13,-1
 776 140 l 1,14,15
 750 78 750 78 676 22 c 128,-1,16
 602 -34 602 -34 480 -34 c 0,17,18
 334 -34 334 -34 229 64 c 128,-1,19
 124 162 124 162 124 382 c 2,0,-1
EndSplineSet
EndChar

StartChar: v
Encoding: 118 118 89
Width: 1026
GlyphClass: 2
Flags: W
LayerCount: 2
Fore
SplineSet
16 1066 m 1,0,-1
 244 1066 l 1,1,-1
 428 480 l 1,2,3
 490 254 490 254 510 178 c 1,4,-1
 514 178 l 1,5,6
 528 228 528 228 559 333 c 128,-1,7
 590 438 590 438 602 480 c 2,8,-1
 784 1066 l 1,9,-1
 1012 1066 l 1,10,-1
 634 0 l 1,11,-1
 394 0 l 1,12,-1
 16 1066 l 1,0,-1
EndSplineSet
EndChar

StartChar: w
Encoding: 119 119 90
Width: 1462
GlyphClass: 2
Flags: W
LayerCount: 2
Fore
SplineSet
18 1066 m 1,0,-1
 242 1066 l 1,1,-1
 368 490 l 2,2,3
 394 362 394 362 424 200 c 1,4,-1
 432 200 l 1,5,6
 454 316 454 316 490 490 c 2,7,-1
 620 1066 l 1,8,-1
 846 1066 l 1,9,-1
 976 484 l 2,10,11
 982 458 982 458 1003 359 c 128,-1,12
 1024 260 1024 260 1034 200 c 1,13,-1
 1042 200 l 1,14,15
 1066 320 1066 320 1100 490 c 2,16,-1
 1224 1066 l 1,17,-1
 1450 1066 l 1,18,-1
 1160 0 l 1,19,-1
 920 0 l 1,20,-1
 792 558 l 2,21,22
 744 800 744 800 736 842 c 1,23,-1
 728 842 l 1,24,25
 682 604 682 604 674 558 c 2,26,-1
 546 0 l 1,27,-1
 306 0 l 1,28,-1
 18 1066 l 1,0,-1
EndSplineSet
Substitution2: "'sups' Superscript lookup 5 subtable" uni02B7
Substitution2: "'aalt' Access All Alternates lookup 0 subtable" uni02B7
EndChar

StartChar: x
Encoding: 120 120 91
Width: 1032
GlyphClass: 2
Flags: W
LayerCount: 2
Fore
SplineSet
10 0 m 1,0,-1
 392 548 l 1,1,-1
 28 1066 l 1,2,-1
 280 1066 l 1,3,-1
 434 822 l 2,4,5
 446 798 446 798 473 756 c 128,-1,6
 500 714 500 714 510 694 c 1,7,-1
 516 694 l 1,8,9
 526 712 526 712 592 822 c 2,10,-1
 744 1066 l 1,11,-1
 996 1066 l 1,12,-1
 636 548 l 1,13,-1
 1018 0 l 1,14,-1
 770 0 l 1,15,-1
 598 276 l 2,16,17
 558 338 558 338 516 404 c 1,18,-1
 510 404 l 1,19,20
 472 334 472 334 432 276 c 2,21,-1
 258 0 l 1,22,-1
 10 0 l 1,0,-1
EndSplineSet
Substitution2: "'sups' Superscript lookup 5 subtable" uni02E3
Substitution2: "'aalt' Access All Alternates lookup 0 subtable" uni02E3
EndChar

StartChar: y
Encoding: 121 121 92
Width: 1024
GlyphClass: 2
Flags: W
LayerCount: 2
Fore
SplineSet
14 1066 m 1,0,-1
 246 1066 l 1,1,-1
 440 494 l 2,2,3
 492 336 492 336 518 240 c 1,4,-1
 524 240 l 1,5,6
 540 292 540 292 566 382 c 128,-1,7
 592 472 592 472 600 494 c 2,8,-1
 782 1066 l 1,9,-1
 1010 1066 l 1,10,-1
 562 -152 l 2,11,12
 502 -314 502 -314 414 -379 c 128,-1,13
 326 -444 326 -444 194 -444 c 2,14,-1
 126 -444 l 1,15,-1
 126 -272 l 1,16,-1
 162 -272 l 2,17,18
 242 -272 242 -272 294 -233 c 128,-1,19
 346 -194 346 -194 382 -98 c 2,20,-1
 418 14 l 1,21,-1
 14 1066 l 1,0,-1
EndSplineSet
Substitution2: "'sups' Superscript lookup 5 subtable" uni02B8
Substitution2: "'aalt' Access All Alternates lookup 0 subtable" uni02B8
EndChar

StartChar: z
Encoding: 122 122 93
Width: 968
GlyphClass: 2
Flags: W
LayerCount: 2
Fore
SplineSet
52 0 m 1,0,-1
 52 138 l 1,1,-1
 626 890 l 1,2,-1
 100 890 l 1,3,-1
 100 1066 l 1,4,-1
 898 1066 l 1,5,-1
 898 936 l 1,6,-1
 320 176 l 1,7,-1
 918 176 l 1,8,-1
 918 0 l 1,9,-1
 52 0 l 1,0,-1
EndSplineSet
EndChar

StartChar: braceleft
Encoding: 123 123 94
Width: 888
GlyphClass: 2
Flags: W
LayerCount: 2
Fore
SplineSet
122 620 m 1,0,-1
 122 782 l 1,1,-1
 182 782 l 2,2,3
 236 782 236 782 267 842 c 128,-1,4
 298 902 298 902 298 1014 c 2,5,-1
 298 1382 l 2,6,7
 298 1514 298 1514 372 1585 c 128,-1,8
 446 1656 446 1656 564 1656 c 2,9,-1
 726 1656 l 1,10,-1
 726 1486 l 1,11,-1
 602 1486 l 2,12,13
 560 1486 560 1486 534 1451 c 128,-1,14
 508 1416 508 1416 508 1358 c 2,15,-1
 508 986 l 2,16,17
 508 794 508 794 364 702 c 1,18,19
 508 624 508 624 508 434 c 2,20,-1
 508 60 l 2,21,22
 508 -8 508 -8 535 -41 c 128,-1,23
 562 -74 562 -74 606 -74 c 2,24,-1
 726 -74 l 1,25,-1
 726 -244 l 1,26,-1
 564 -244 l 2,27,28
 448 -244 448 -244 373 -177 c 128,-1,29
 298 -110 298 -110 298 26 c 2,30,-1
 298 404 l 2,31,32
 298 500 298 500 267 560 c 128,-1,33
 236 620 236 620 182 620 c 2,34,-1
 122 620 l 1,0,-1
EndSplineSet
EndChar

StartChar: bar
Encoding: 124 124 95
Width: 570
GlyphClass: 2
Flags: W
LayerCount: 2
Fore
SplineSet
182 -318 m 1,0,-1
 182 1724 l 1,1,-1
 392 1724 l 1,2,-1
 392 -318 l 1,3,-1
 182 -318 l 1,0,-1
EndSplineSet
EndChar

StartChar: braceright
Encoding: 125 125 96
Width: 888
GlyphClass: 2
Flags: W
LayerCount: 2
Fore
SplineSet
160 -74 m 1,0,-1
 284 -74 l 2,1,2
 380 -74 380 -74 380 60 c 2,3,-1
 380 434 l 2,4,5
 380 616 380 616 524 702 c 1,6,7
 458 746 458 746 419 808 c 128,-1,8
 380 870 380 870 380 986 c 2,9,-1
 380 1358 l 2,10,11
 380 1418 380 1418 355 1452 c 128,-1,12
 330 1486 330 1486 288 1486 c 2,13,-1
 160 1486 l 1,14,-1
 160 1656 l 1,15,-1
 326 1656 l 2,16,17
 442 1656 442 1656 516 1585 c 128,-1,18
 590 1514 590 1514 590 1382 c 2,19,-1
 590 1014 l 2,20,21
 590 902 590 902 621 842 c 128,-1,22
 652 782 652 782 708 782 c 2,23,-1
 768 782 l 1,24,-1
 768 620 l 1,25,-1
 708 620 l 2,26,27
 650 620 650 620 620 559 c 128,-1,28
 590 498 590 498 590 404 c 2,29,-1
 590 26 l 2,30,31
 590 -110 590 -110 515 -177 c 128,-1,32
 440 -244 440 -244 326 -244 c 2,33,-1
 160 -244 l 1,34,-1
 160 -74 l 1,0,-1
EndSplineSet
EndChar

StartChar: asciitilde
Encoding: 126 126 97
Width: 1558
GlyphClass: 2
Flags: W
LayerCount: 2
Fore
SplineSet
130 606 m 1,0,1
 264 930 264 930 542 930 c 0,2,3
 620 930 620 930 693 890 c 128,-1,4
 766 850 766 850 811 802 c 128,-1,5
 856 754 856 754 911 714 c 128,-1,6
 966 674 966 674 1018 674 c 0,7,8
 1068 674 1068 674 1109 694 c 128,-1,9
 1150 714 1150 714 1178 755 c 128,-1,10
 1206 796 1206 796 1218 820 c 128,-1,11
 1230 844 1230 844 1250 892 c 1,12,-1
 1428 812 l 1,13,14
 1298 486 1298 486 1024 486 c 0,15,16
 944 486 944 486 870 526 c 128,-1,17
 796 566 796 566 750 614 c 128,-1,18
 704 662 704 662 648 702 c 128,-1,19
 592 742 592 742 542 742 c 0,20,21
 400 742 400 742 308 524 c 1,22,-1
 130 606 l 1,0,1
EndSplineSet
EndChar

StartChar: exclamdown
Encoding: 161 161 99
Width: 620
GlyphClass: 2
Flags: W
LayerCount: 2
Fore
SplineSet
192 -410 m 1,0,-1
 212 646 l 1,1,-1
 410 646 l 1,2,-1
 428 -410 l 1,3,-1
 192 -410 l 1,0,-1
164 812 m 1,4,-1
 164 1074 l 1,5,-1
 456 1074 l 1,6,-1
 456 812 l 1,7,-1
 164 812 l 1,4,-1
EndSplineSet
EndChar

StartChar: cent
Encoding: 162 162 100
Width: 1022
GlyphClass: 2
Flags: W
LayerCount: 2
Fore
SplineSet
74 534 m 0,0,1
 74 748 74 748 176 903 c 128,-1,2
 278 1058 278 1058 460 1088 c 1,3,-1
 460 1242 l 1,4,-1
 648 1242 l 1,5,-1
 648 1090 l 1,6,7
 770 1064 770 1064 850 979 c 128,-1,8
 930 894 930 894 958 796 c 1,9,-1
 782 748 l 1,10,11
 752 822 752 822 699 873 c 128,-1,12
 646 924 646 924 568 924 c 0,13,14
 436 924 436 924 362 813 c 128,-1,15
 288 702 288 702 288 534 c 0,16,17
 288 356 288 356 363 250 c 128,-1,18
 438 144 438 144 564 144 c 0,19,20
 646 144 646 144 712 200 c 128,-1,21
 778 256 778 256 806 332 c 1,22,-1
 984 282 l 1,23,24
 952 178 952 178 866 92 c 128,-1,25
 780 6 780 6 648 -24 c 1,26,-1
 648 -190 l 1,27,-1
 460 -190 l 1,28,-1
 460 -22 l 1,29,30
 288 6 288 6 181 154 c 128,-1,31
 74 302 74 302 74 534 c 0,0,1
EndSplineSet
EndChar

StartChar: sterling
Encoding: 163 163 101
Width: 1192
GlyphClass: 2
Flags: W
LayerCount: 2
Fore
SplineSet
78 634 m 1,0,-1
 78 820 l 1,1,-1
 290 820 l 1,2,-1
 290 1128 l 2,3,4
 290 1310 290 1310 409 1407 c 128,-1,5
 528 1504 528 1504 728 1504 c 0,6,7
 862 1504 862 1504 962 1435 c 128,-1,8
 1062 1366 1062 1366 1108 1276 c 1,9,-1
 952 1192 l 1,10,11
 866 1316 866 1316 730 1316 c 0,12,13
 630 1316 630 1316 568 1263 c 128,-1,14
 506 1210 506 1210 506 1106 c 2,15,-1
 506 820 l 1,16,-1
 924 820 l 1,17,-1
 924 634 l 1,18,-1
 506 634 l 1,19,-1
 506 434 l 2,20,21
 506 268 506 268 438 200 c 1,22,23
 520 216 520 216 566 216 c 0,24,25
 624 216 624 216 720 184 c 128,-1,26
 816 152 816 152 884 152 c 0,27,28
 1014 152 1014 152 1118 210 c 1,29,-1
 1176 34 l 1,30,31
 1024 -34 1024 -34 882 -34 c 0,32,33
 816 -34 816 -34 689 -1 c 128,-1,34
 562 32 562 32 500 32 c 0,35,36
 432 32 432 32 338 19 c 128,-1,37
 244 6 244 6 186 -10 c 2,38,-1
 124 -22 l 1,39,-1
 72 130 l 1,40,41
 290 184 290 184 290 422 c 2,42,-1
 290 634 l 1,43,-1
 78 634 l 1,0,-1
EndSplineSet
EndChar

StartChar: currency
Encoding: 164 164 102
Width: 1298
GlyphClass: 2
Flags: W
LayerCount: 2
Fore
SplineSet
48 296 m 1,0,-1
 264 498 l 1,1,2
 192 592 192 592 192 730 c 0,3,4
 192 872 192 872 262 964 c 1,5,-1
 48 1166 l 1,6,-1
 190 1304 l 1,7,-1
 398 1102 l 1,8,9
 518 1178 518 1178 650 1178 c 256,10,11
 782 1178 782 1178 902 1102 c 1,12,-1
 1108 1302 l 1,13,-1
 1252 1166 l 1,14,-1
 1036 964 l 1,15,16
 1108 868 1108 868 1108 730 c 256,17,18
 1108 592 1108 592 1036 498 c 1,19,-1
 1252 296 l 1,20,-1
 1110 158 l 1,21,-1
 902 360 l 1,22,23
 786 282 786 282 650 282 c 0,24,25
 512 282 512 282 398 360 c 1,26,-1
 190 160 l 1,27,-1
 48 296 l 1,0,-1
382 730 m 256,28,29
 382 622 382 622 458 544 c 128,-1,30
 534 466 534 466 650 466 c 0,31,32
 768 466 768 466 843 543 c 128,-1,33
 918 620 918 620 918 730 c 0,34,35
 918 842 918 842 842 919 c 128,-1,36
 766 996 766 996 650 996 c 256,37,38
 534 996 534 996 458 917 c 128,-1,39
 382 838 382 838 382 730 c 256,28,29
EndSplineSet
EndChar

StartChar: yen
Encoding: 165 165 103
Width: 1230
GlyphClass: 2
Flags: W
LayerCount: 2
Fore
SplineSet
-6 1470 m 1,0,-1
 246 1470 l 1,1,-1
 468 1118 l 2,2,3
 590 912 590 912 612 870 c 1,4,-1
 618 870 l 1,5,-1
 766 1118 l 1,6,-1
 986 1470 l 1,7,-1
 1240 1470 l 1,8,-1
 816 830 l 1,9,-1
 1108 830 l 1,10,-1
 1108 676 l 1,11,-1
 724 676 l 1,12,-1
 724 472 l 1,13,-1
 1108 472 l 1,14,-1
 1108 316 l 1,15,-1
 724 316 l 1,16,-1
 724 0 l 1,17,-1
 508 0 l 1,18,-1
 508 316 l 1,19,-1
 122 316 l 1,20,-1
 122 472 l 1,21,-1
 508 472 l 1,22,-1
 508 676 l 1,23,-1
 122 676 l 1,24,-1
 122 830 l 1,25,-1
 416 830 l 1,26,-1
 -6 1470 l 1,0,-1
EndSplineSet
EndChar

StartChar: brokenbar
Encoding: 166 166 104
Width: 570
GlyphClass: 2
Flags: W
LayerCount: 2
Fore
SplineSet
182 914 m 1,0,-1
 182 1724 l 1,1,-1
 392 1724 l 1,2,-1
 392 914 l 1,3,-1
 182 914 l 1,0,-1
182 -318 m 1,4,-1
 182 490 l 1,5,-1
 392 490 l 1,6,-1
 392 -318 l 1,7,-1
 182 -318 l 1,4,-1
EndSplineSet
EndChar

StartChar: section
Encoding: 167 167 105
Width: 1104
GlyphClass: 2
Flags: W
LayerCount: 2
Fore
SplineSet
88 102 m 1,0,-1
 230 208 l 1,1,2
 332 74 332 74 512 74 c 0,3,4
 714 74 714 74 714 190 c 0,5,6
 714 230 714 230 686 257 c 128,-1,7
 658 284 658 284 596 312 c 2,8,-1
 384 408 l 2,9,10
 122 526 122 526 122 716 c 0,11,12
 122 868 122 868 296 996 c 1,13,14
 176 1090 176 1090 176 1206 c 0,15,16
 176 1340 176 1340 282 1422 c 128,-1,17
 388 1504 388 1504 600 1504 c 0,18,19
 866 1504 866 1504 1016 1300 c 1,20,-1
 880 1192 l 1,21,22
 762 1322 762 1322 596 1322 c 0,23,24
 496 1322 496 1322 446 1290 c 128,-1,25
 396 1258 396 1258 396 1206 c 0,26,27
 396 1184 396 1184 402 1167 c 128,-1,28
 408 1150 408 1150 425 1134 c 128,-1,29
 442 1118 442 1118 457 1106 c 128,-1,30
 472 1094 472 1094 503 1078 c 128,-1,31
 534 1062 534 1062 554 1053 c 128,-1,32
 574 1044 574 1044 614 1026 c 128,-1,33
 654 1008 654 1008 676 998 c 0,34,35
 844 920 844 920 898 874 c 0,36,37
 1012 784 1012 784 1012 648 c 0,38,39
 1012 492 1012 492 858 370 c 1,40,41
 930 298 930 298 930 190 c 0,42,43
 930 52 930 52 827 -28 c 128,-1,44
 724 -108 724 -108 512 -108 c 0,45,46
 372 -108 372 -108 258 -46 c 128,-1,47
 144 16 144 16 88 102 c 1,0,-1
342 722 m 0,48,49
 342 660 342 660 378 627 c 128,-1,50
 414 594 414 594 506 550 c 2,51,-1
 690 466 l 1,52,53
 794 556 794 556 794 648 c 0,54,55
 794 704 794 704 752 741 c 128,-1,56
 710 778 710 778 620 822 c 2,57,-1
 458 902 l 1,58,59
 342 816 342 816 342 722 c 0,48,49
EndSplineSet
EndChar

StartChar: dieresis
Encoding: 168 168 106
Width: 1004
GlyphClass: 2
Flags: W
LayerCount: 2
Fore
SplineSet
192 1228 m 1,0,-1
 192 1470 l 1,1,-1
 432 1470 l 1,2,-1
 432 1228 l 1,3,-1
 192 1228 l 1,0,-1
576 1228 m 1,4,-1
 576 1470 l 1,5,-1
 814 1470 l 1,6,-1
 814 1228 l 1,7,-1
 576 1228 l 1,4,-1
EndSplineSet
EndChar

StartChar: copyright
Encoding: 169 169 107
Width: 1720
GlyphClass: 2
Flags: W
LayerCount: 2
Fore
SplineSet
480 744 m 0,0,1
 480 962 480 962 592 1087 c 128,-1,2
 704 1212 704 1212 886 1212 c 0,3,4
 1014 1212 1014 1212 1095 1141 c 128,-1,5
 1176 1070 1176 1070 1212 964 c 1,6,-1
 1064 918 l 1,7,8
 996 1058 996 1058 886 1058 c 0,9,10
 778 1058 778 1058 719 975 c 128,-1,11
 660 892 660 892 660 744 c 0,12,13
 660 590 660 590 721 511 c 128,-1,14
 782 432 782 432 886 432 c 0,15,16
 958 432 958 432 1008 476 c 128,-1,17
 1058 520 1058 520 1080 582 c 1,18,-1
 1234 538 l 1,19,20
 1202 430 1202 430 1111 354 c 128,-1,21
 1020 278 1020 278 884 278 c 0,22,23
 704 278 704 278 592 401 c 128,-1,24
 480 524 480 524 480 744 c 0,0,1
80 746 m 256,25,26
 80 1102 80 1102 302 1320 c 128,-1,27
 524 1538 524 1538 860 1538 c 0,28,29
 1202 1538 1202 1538 1422 1318 c 128,-1,30
 1642 1098 1642 1098 1642 746 c 0,31,32
 1642 398 1642 398 1422 175 c 128,-1,33
 1202 -48 1202 -48 860 -48 c 0,34,35
 524 -48 524 -48 302 171 c 128,-1,36
 80 390 80 390 80 746 c 256,25,26
234 746 m 256,37,38
 234 452 234 452 407 271 c 128,-1,39
 580 90 580 90 860 90 c 0,40,41
 1134 90 1134 90 1311 267 c 128,-1,42
 1488 444 1488 444 1488 746 c 0,43,44
 1488 1042 1488 1042 1313 1221 c 128,-1,45
 1138 1400 1138 1400 860 1400 c 256,46,47
 582 1400 582 1400 408 1220 c 128,-1,48
 234 1040 234 1040 234 746 c 256,37,38
EndSplineSet
EndChar

StartChar: ordfeminine
Encoding: 170 170 108
Width: 772
GlyphClass: 2
Flags: W
LayerCount: 2
Fore
SplineSet
64 600 m 1,0,-1
 64 734 l 1,1,-1
 708 734 l 1,2,-1
 708 600 l 1,3,-1
 64 600 l 1,0,-1
206 1080 m 0,4,5
 206 1036 206 1036 241 1006 c 128,-1,6
 276 976 276 976 334 976 c 0,7,8
 418 976 418 976 477 1030 c 128,-1,9
 536 1084 536 1084 536 1172 c 2,10,-1
 536 1248 l 1,11,12
 506 1242 506 1242 446 1232 c 128,-1,13
 386 1222 386 1222 353 1214 c 128,-1,14
 320 1206 320 1206 281 1190 c 128,-1,15
 242 1174 242 1174 224 1147 c 128,-1,16
 206 1120 206 1120 206 1080 c 0,4,5
52 1066 m 0,17,18
 52 1140 52 1140 87 1191 c 128,-1,19
 122 1242 122 1242 184 1270 c 128,-1,20
 246 1298 246 1298 303 1312 c 128,-1,21
 360 1326 360 1326 434 1337 c 128,-1,22
 508 1348 508 1348 536 1358 c 1,23,-1
 536 1398 l 2,24,25
 536 1456 536 1456 493 1490 c 128,-1,26
 450 1524 450 1524 380 1524 c 0,27,28
 312 1524 312 1524 254 1490 c 128,-1,29
 196 1456 196 1456 164 1418 c 1,30,-1
 72 1498 l 1,31,32
 116 1554 116 1554 199 1599 c 128,-1,33
 282 1644 282 1644 378 1644 c 0,34,35
 684 1644 684 1644 684 1342 c 2,36,-1
 684 874 l 1,37,-1
 540 874 l 1,38,-1
 540 966 l 1,39,40
 468 852 468 852 316 852 c 0,41,42
 192 852 192 852 122 911 c 128,-1,43
 52 970 52 970 52 1066 c 0,17,18
EndSplineSet
EndChar

StartChar: guillemotleft
Encoding: 171 171 109
Width: 1000
GlyphClass: 2
Flags: W
LayerCount: 2
Fore
SplineSet
76 520 m 1,0,-1
 402 996 l 1,1,-1
 552 896 l 1,2,-1
 298 520 l 1,3,-1
 550 148 l 1,4,-1
 402 42 l 1,5,-1
 76 520 l 1,0,-1
458 520 m 1,6,-1
 784 978 l 1,7,-1
 930 866 l 1,8,-1
 682 520 l 1,9,-1
 930 170 l 1,10,-1
 784 62 l 1,11,-1
 458 520 l 1,6,-1
EndSplineSet
EndChar

StartChar: logicalnot
Encoding: 172 172 110
Width: 1104
GlyphClass: 2
Flags: W
LayerCount: 2
Fore
SplineSet
94 604 m 1,0,-1
 94 788 l 1,1,-1
 1014 788 l 1,2,-1
 1014 240 l 1,3,-1
 816 240 l 1,4,-1
 816 604 l 1,5,-1
 94 604 l 1,0,-1
EndSplineSet
EndChar

StartChar: uni00AD
Encoding: 173 173 111
Width: 1124
GlyphClass: 2
Flags: W
LayerCount: 2
Fore
SplineSet
112 640 m 1,0,-1
 112 822 l 1,1,-1
 1010 822 l 1,2,-1
 1010 640 l 1,3,-1
 112 640 l 1,0,-1
EndSplineSet
EndChar

StartChar: registered
Encoding: 174 174 112
Width: 1720
GlyphClass: 2
Flags: W
LayerCount: 2
Fore
SplineSet
562 290 m 1,0,-1
 562 1190 l 1,1,-1
 926 1190 l 2,2,3
 1060 1190 1060 1190 1133 1113 c 128,-1,4
 1206 1036 1206 1036 1206 926 c 0,5,6
 1206 776 1206 776 1084 710 c 1,7,8
 1120 680 1120 680 1137 644 c 128,-1,9
 1154 608 1154 608 1168 548 c 0,10,11
 1192 436 1192 436 1272 290 c 1,12,-1
 1074 290 l 1,13,14
 1018 376 1018 376 988 532 c 0,15,16
 980 566 980 566 976 579 c 128,-1,17
 972 592 972 592 963 613 c 128,-1,18
 954 634 954 634 939 642 c 128,-1,19
 924 650 924 650 898 650 c 2,20,-1
 740 650 l 1,21,-1
 740 290 l 1,22,-1
 562 290 l 1,0,-1
740 788 m 1,23,-1
 900 788 l 2,24,25
 962 788 962 788 995 822 c 128,-1,26
 1028 856 1028 856 1028 912 c 0,27,28
 1028 962 1028 962 994 997 c 128,-1,29
 960 1032 960 1032 900 1032 c 2,30,-1
 740 1032 l 1,31,-1
 740 788 l 1,23,-1
80 748 m 0,32,33
 80 1102 80 1102 302 1320 c 128,-1,34
 524 1538 524 1538 860 1538 c 0,35,36
 1204 1538 1204 1538 1423 1319 c 128,-1,37
 1642 1100 1642 1100 1642 748 c 0,38,39
 1642 400 1642 400 1423 176 c 128,-1,40
 1204 -48 1204 -48 860 -48 c 0,41,42
 526 -48 526 -48 303 172 c 128,-1,43
 80 392 80 392 80 748 c 0,32,33
234 748 m 0,44,45
 234 450 234 450 405 273 c 128,-1,46
 576 96 576 96 860 96 c 0,47,48
 1138 96 1138 96 1313 272 c 128,-1,49
 1488 448 1488 448 1488 748 c 0,50,51
 1488 1046 1488 1046 1312 1220 c 128,-1,52
 1136 1394 1136 1394 860 1394 c 0,53,54
 580 1394 580 1394 407 1218 c 128,-1,55
 234 1042 234 1042 234 748 c 0,44,45
EndSplineSet
EndChar

StartChar: macron
Encoding: 175 175 113
Width: 996
GlyphClass: 2
Flags: W
LayerCount: 2
Fore
SplineSet
4 1416 m 1,0,-1
 4 1598 l 1,1,-1
 994 1598 l 1,2,-1
 994 1416 l 1,3,-1
 4 1416 l 1,0,-1
EndSplineSet
EndChar

StartChar: degree
Encoding: 176 176 114
Width: 854
GlyphClass: 2
Flags: W
LayerCount: 2
Fore
SplineSet
164 1226 m 0,0,1
 164 1332 164 1332 239 1408 c 128,-1,2
 314 1484 314 1484 428 1484 c 0,3,4
 538 1484 538 1484 613 1411 c 128,-1,5
 688 1338 688 1338 688 1226 c 0,6,7
 688 1116 688 1116 612 1042 c 128,-1,8
 536 968 536 968 428 968 c 0,9,10
 318 968 318 968 241 1043 c 128,-1,11
 164 1118 164 1118 164 1226 c 0,0,1
300 1226 m 0,12,13
 300 1172 300 1172 336 1135 c 128,-1,14
 372 1098 372 1098 428 1098 c 0,15,16
 480 1098 480 1098 516 1135 c 128,-1,17
 552 1172 552 1172 552 1226 c 0,18,19
 552 1278 552 1278 517 1315 c 128,-1,20
 482 1352 482 1352 428 1352 c 0,21,22
 370 1352 370 1352 335 1314 c 128,-1,23
 300 1276 300 1276 300 1226 c 0,12,13
EndSplineSet
EndChar

StartChar: plusminus
Encoding: 177 177 115
Width: 1124
GlyphClass: 2
Flags: W
LayerCount: 2
Fore
SplineSet
82 800 m 1,0,-1
 82 982 l 1,1,-1
 458 982 l 1,2,-1
 458 1312 l 1,3,-1
 666 1312 l 1,4,-1
 666 982 l 1,5,-1
 1042 982 l 1,6,-1
 1042 800 l 1,7,-1
 666 800 l 1,8,-1
 666 472 l 1,9,-1
 458 472 l 1,10,-1
 458 800 l 1,11,-1
 82 800 l 1,0,-1
84 170 m 1,12,-1
 84 350 l 1,13,-1
 1040 350 l 1,14,-1
 1040 170 l 1,15,-1
 84 170 l 1,12,-1
EndSplineSet
EndChar

StartChar: twosuperior
Encoding: 178 178 116
Width: 654
GlyphClass: 2
Flags: W
LayerCount: 2
Fore
SplineSet
52 1402 m 1,0,1
 106 1642 106 1642 328 1642 c 0,2,3
 444 1642 444 1642 517 1576 c 128,-1,4
 590 1510 590 1510 590 1394 c 0,5,6
 590 1272 590 1272 458 1136 c 0,7,8
 438 1116 438 1116 401 1079 c 128,-1,9
 364 1042 364 1042 340 1019 c 128,-1,10
 316 996 316 996 289 961 c 128,-1,11
 262 926 262 926 244 894 c 1,12,-1
 588 894 l 1,13,-1
 588 768 l 1,14,-1
 60 768 l 1,15,16
 60 884 60 884 118 971 c 128,-1,17
 176 1058 176 1058 342 1216 c 0,18,19
 438 1306 438 1306 438 1394 c 0,20,21
 438 1452 438 1452 407 1483 c 128,-1,22
 376 1514 376 1514 326 1514 c 256,23,24
 276 1514 276 1514 242 1483 c 128,-1,25
 208 1452 208 1452 200 1427 c 128,-1,26
 192 1402 192 1402 182 1364 c 1,27,-1
 52 1402 l 1,0,1
EndSplineSet
EndChar

StartChar: threesuperior
Encoding: 179 179 117
Width: 654
GlyphClass: 2
Flags: W
LayerCount: 2
Fore
SplineSet
34 950 m 1,0,-1
 156 996 l 1,1,2
 212 876 212 876 316 876 c 0,3,4
 376 876 376 876 417 912 c 128,-1,5
 458 948 458 948 458 1016 c 0,6,7
 458 1076 458 1076 413 1113 c 128,-1,8
 368 1150 368 1150 298 1150 c 0,9,10
 270 1150 270 1150 214 1146 c 1,11,-1
 214 1276 l 1,12,13
 278 1274 278 1274 296 1274 c 0,14,15
 352 1274 352 1274 390 1306 c 128,-1,16
 428 1338 428 1338 428 1398 c 0,17,18
 428 1450 428 1450 396 1483 c 128,-1,19
 364 1516 364 1516 312 1516 c 0,20,21
 224 1516 224 1516 180 1390 c 1,22,-1
 54 1430 l 1,23,24
 114 1642 114 1642 318 1642 c 0,25,26
 438 1642 438 1642 509 1577 c 128,-1,27
 580 1512 580 1512 580 1412 c 0,28,29
 580 1288 580 1288 478 1222 c 1,30,31
 612 1162 612 1162 612 1016 c 0,32,33
 612 892 612 892 532 820 c 128,-1,34
 452 748 452 748 318 748 c 0,35,36
 216 748 216 748 140 802 c 128,-1,37
 64 856 64 856 34 950 c 1,0,-1
EndSplineSet
EndChar

StartChar: acute
Encoding: 180 180 118
Width: 732
GlyphClass: 2
Flags: W
LayerCount: 2
Fore
SplineSet
158 1298 m 1,0,-1
 372 1646 l 1,1,-1
 630 1646 l 1,2,-1
 336 1298 l 1,3,-1
 158 1298 l 1,0,-1
EndSplineSet
EndChar

StartChar: uni00B5
Encoding: 181 181 119
Width: 1136
GlyphClass: 2
Flags: W
LayerCount: 2
Fore
SplineSet
150 -446 m 1,0,-1
 150 1066 l 1,1,-1
 358 1066 l 1,2,-1
 358 414 l 2,3,4
 358 144 358 144 548 144 c 0,5,6
 668 144 668 144 730 240 c 128,-1,7
 792 336 792 336 792 468 c 2,8,-1
 792 1066 l 1,9,-1
 1002 1066 l 1,10,-1
 1002 0 l 1,11,-1
 802 0 l 1,12,-1
 802 136 l 1,13,-1
 800 136 l 1,14,15
 776 68 776 68 697 17 c 128,-1,16
 618 -34 618 -34 510 -34 c 0,17,18
 414 -34 414 -34 358 36 c 1,19,-1
 358 -446 l 1,20,-1
 150 -446 l 1,0,-1
EndSplineSet
EndChar

StartChar: paragraph
Encoding: 182 182 120
Width: 1264
GlyphClass: 2
Flags: W
LayerCount: 2
Fore
SplineSet
106 1094 m 0,0,1
 106 1294 106 1294 212 1417 c 128,-1,2
 318 1540 318 1540 516 1540 c 2,3,-1
 1100 1540 l 1,4,-1
 1100 -144 l 1,5,-1
 926 -144 l 1,6,-1
 926 1348 l 1,7,-1
 760 1348 l 1,8,-1
 760 -144 l 1,9,-1
 588 -144 l 1,10,-1
 588 646 l 1,11,12
 538 632 538 632 488 632 c 0,13,14
 326 632 326 632 216 751 c 128,-1,15
 106 870 106 870 106 1094 c 0,0,1
EndSplineSet
EndChar

StartChar: periodcentered
Encoding: 183 183 121
Width: 690
GlyphClass: 2
Flags: W
LayerCount: 2
Fore
SplineSet
200 572 m 1,0,-1
 200 840 l 1,1,-1
 490 840 l 1,2,-1
 490 572 l 1,3,-1
 200 572 l 1,0,-1
EndSplineSet
EndChar

StartChar: cedilla
Encoding: 184 184 122
Width: 610
GlyphClass: 2
Flags: W
LayerCount: 2
Fore
SplineSet
88 -288 m 1,0,1
 158 -304 158 -304 212 -304 c 0,2,3
 324 -304 324 -304 324 -242 c 0,4,5
 324 -166 324 -166 142 -154 c 1,6,-1
 248 62 l 1,7,-1
 434 62 l 1,8,-1
 374 -58 l 1,9,10
 518 -104 518 -104 518 -244 c 0,11,12
 518 -332 518 -332 451 -393 c 128,-1,13
 384 -454 384 -454 228 -454 c 0,14,15
 146 -454 146 -454 88 -438 c 1,16,-1
 88 -288 l 1,0,1
EndSplineSet
EndChar

StartChar: onesuperior
Encoding: 185 185 123
Width: 654
GlyphClass: 2
Flags: W
LayerCount: 2
Fore
SplineSet
92 1372 m 1,0,-1
 92 1490 l 1,1,-1
 144 1490 l 2,2,3
 298 1490 298 1490 298 1600 c 2,4,-1
 298 1636 l 1,5,-1
 432 1636 l 1,6,-1
 432 768 l 1,7,-1
 280 768 l 1,8,-1
 280 1372 l 1,9,-1
 92 1372 l 1,0,-1
EndSplineSet
EndChar

StartChar: ordmasculine
Encoding: 186 186 124
Width: 782
GlyphClass: 2
Flags: W
LayerCount: 2
Fore
SplineSet
202 1246 m 0,0,1
 202 1114 202 1114 258 1047 c 128,-1,2
 314 980 314 980 390 980 c 256,3,4
 466 980 466 980 522 1048 c 128,-1,5
 578 1116 578 1116 578 1246 c 0,6,7
 578 1380 578 1380 522 1448 c 128,-1,8
 466 1516 466 1516 390 1516 c 256,9,10
 314 1516 314 1516 258 1448 c 128,-1,11
 202 1380 202 1380 202 1246 c 0,0,1
50 1246 m 0,12,13
 50 1416 50 1416 137 1530 c 128,-1,14
 224 1644 224 1644 390 1644 c 0,15,16
 554 1644 554 1644 643 1530 c 128,-1,17
 732 1416 732 1416 732 1246 c 0,18,19
 732 1178 732 1178 715 1113 c 128,-1,20
 698 1048 698 1048 660 987 c 128,-1,21
 622 926 622 926 552 889 c 128,-1,22
 482 852 482 852 390 852 c 256,23,24
 298 852 298 852 228 888 c 128,-1,25
 158 924 158 924 122 984 c 128,-1,26
 86 1044 86 1044 68 1109 c 128,-1,27
 50 1174 50 1174 50 1246 c 0,12,13
64 608 m 1,28,-1
 64 742 l 1,29,-1
 716 742 l 1,30,-1
 716 608 l 1,31,-1
 64 608 l 1,28,-1
EndSplineSet
EndChar

StartChar: guillemotright
Encoding: 187 187 125
Width: 1000
GlyphClass: 2
Flags: W
LayerCount: 2
Fore
SplineSet
72 866 m 1,0,-1
 220 978 l 1,1,-1
 544 520 l 1,2,-1
 220 62 l 1,3,-1
 74 170 l 1,4,-1
 322 520 l 1,5,-1
 72 866 l 1,0,-1
454 150 m 1,6,-1
 704 520 l 1,7,-1
 450 896 l 1,8,-1
 604 996 l 1,9,-1
 928 520 l 1,10,-1
 604 42 l 1,11,-1
 454 150 l 1,6,-1
EndSplineSet
EndChar

StartChar: onequarter
Encoding: 188 188 126
Width: 1942
GlyphClass: 3
Flags: W
LayerCount: 2
Fore
SplineSet
1300 274 m 1,0,-1
 1512 274 l 1,1,-1
 1512 512 l 2,2,3
 1512 530 1512 530 1513 569 c 128,-1,4
 1514 608 1514 608 1514 616 c 1,5,-1
 1300 274 l 1,0,-1
138 1274 m 1,6,-1
 138 1422 l 1,7,-1
 200 1422 l 2,8,9
 370 1422 370 1422 370 1538 c 2,10,-1
 370 1586 l 1,11,-1
 536 1586 l 1,12,-1
 536 584 l 1,13,-1
 348 584 l 1,14,-1
 348 1274 l 1,15,-1
 138 1274 l 1,6,-1
328 -102 m 1,16,-1
 1274 1564 l 1,17,-1
 1470 1564 l 1,18,-1
 530 -102 l 1,19,-1
 328 -102 l 1,16,-1
1108 258 m 1,20,-1
 1538 912 l 1,21,-1
 1694 912 l 1,22,-1
 1694 274 l 1,23,-1
 1816 274 l 1,24,-1
 1816 116 l 1,25,-1
 1694 116 l 1,26,-1
 1694 -94 l 1,27,-1
 1512 -94 l 1,28,-1
 1512 116 l 1,29,-1
 1108 116 l 1,30,-1
 1108 258 l 1,20,-1
EndSplineSet
Ligature2: "'frac' Diagonal Fractions lookup 7 subtable" one fraction four
Ligature2: "'frac' Diagonal Fractions lookup 7 subtable" one slash four
EndChar

StartChar: onehalf
Encoding: 189 189 127
Width: 1942
GlyphClass: 3
Flags: W
LayerCount: 2
Fore
SplineSet
1146 632 m 1,0,1
 1154 666 1154 666 1161 687 c 128,-1,2
 1168 708 1168 708 1192 757 c 128,-1,3
 1216 806 1216 806 1246 835 c 128,-1,4
 1276 864 1276 864 1335 890 c 128,-1,5
 1394 916 1394 916 1466 916 c 0,6,7
 1600 916 1600 916 1687 837 c 128,-1,8
 1774 758 1774 758 1774 626 c 0,9,10
 1774 536 1774 536 1730 464 c 128,-1,11
 1686 392 1686 392 1600 308 c 0,12,13
 1530 242 1530 242 1499 212 c 128,-1,14
 1468 182 1468 182 1435 141 c 128,-1,15
 1402 100 1402 100 1382 66 c 1,16,-1
 1770 66 l 1,17,-1
 1770 -90 l 1,18,-1
 1158 -90 l 1,19,20
 1158 40 1158 40 1220 140 c 128,-1,21
 1282 240 1282 240 1484 430 c 0,22,23
 1586 524 1586 524 1586 628 c 0,24,25
 1586 690 1586 690 1554 724 c 128,-1,26
 1522 758 1522 758 1464 758 c 0,27,28
 1430 758 1430 758 1403 743 c 128,-1,29
 1376 728 1376 728 1361 712 c 128,-1,30
 1346 696 1346 696 1332 664 c 128,-1,31
 1318 632 1318 632 1316 622 c 128,-1,32
 1314 612 1314 612 1308 584 c 1,33,-1
 1146 632 l 1,0,1
138 1274 m 1,34,-1
 138 1422 l 1,35,-1
 200 1422 l 2,36,37
 370 1422 370 1422 370 1538 c 2,38,-1
 370 1586 l 1,39,-1
 536 1586 l 1,40,-1
 536 584 l 1,41,-1
 348 584 l 1,42,-1
 348 1274 l 1,43,-1
 138 1274 l 1,34,-1
308 -102 m 1,44,-1
 1260 1564 l 1,45,-1
 1456 1564 l 1,46,-1
 510 -102 l 1,47,-1
 308 -102 l 1,44,-1
EndSplineSet
Ligature2: "'frac' Diagonal Fractions lookup 7 subtable" one fraction two
Ligature2: "'frac' Diagonal Fractions lookup 7 subtable" one slash two
EndChar

StartChar: threequarters
Encoding: 190 190 128
Width: 1942
GlyphClass: 3
Flags: W
LayerCount: 2
Fore
SplineSet
112 816 m 1,0,-1
 262 872 l 1,1,2
 276 846 276 846 287 828 c 128,-1,3
 298 810 298 810 318 785 c 128,-1,4
 338 760 338 760 370 748 c 128,-1,5
 402 736 402 736 440 736 c 0,6,7
 506 736 506 736 550 774 c 128,-1,8
 594 812 594 812 594 888 c 0,9,10
 594 954 594 954 546 994 c 128,-1,11
 498 1034 498 1034 422 1034 c 0,12,13
 392 1034 392 1034 318 1030 c 1,14,-1
 318 1192 l 1,15,16
 358 1188 358 1188 418 1188 c 256,17,18
 478 1188 478 1188 519 1223 c 128,-1,19
 560 1258 560 1258 560 1322 c 0,20,21
 560 1378 560 1378 525 1414 c 128,-1,22
 490 1450 490 1450 436 1450 c 0,23,24
 394 1450 394 1450 363 1426 c 128,-1,25
 332 1402 332 1402 318 1376 c 128,-1,26
 304 1350 304 1350 290 1308 c 1,27,-1
 134 1354 l 1,28,29
 166 1478 166 1478 250 1542 c 128,-1,30
 334 1606 334 1606 442 1606 c 0,31,32
 580 1606 580 1606 664 1529 c 128,-1,33
 748 1452 748 1452 748 1336 c 0,34,35
 748 1204 748 1204 638 1124 c 1,36,37
 784 1046 784 1046 784 888 c 0,38,39
 784 744 784 744 690 660 c 128,-1,40
 596 576 596 576 442 576 c 0,41,42
 338 576 338 576 247 631 c 128,-1,43
 156 686 156 686 112 816 c 1,0,-1
1122 256 m 1,44,-1
 1552 912 l 1,45,-1
 1706 912 l 1,46,-1
 1706 274 l 1,47,-1
 1828 274 l 1,48,-1
 1828 116 l 1,49,-1
 1706 116 l 1,50,-1
 1706 -94 l 1,51,-1
 1522 -94 l 1,52,-1
 1522 116 l 1,53,-1
 1122 116 l 1,54,-1
 1122 256 l 1,44,-1
1312 274 m 1,55,-1
 1522 274 l 1,56,-1
 1522 508 l 2,57,58
 1522 524 1522 524 1523 566 c 128,-1,59
 1524 608 1524 608 1524 616 c 1,60,-1
 1468 518 l 1,61,-1
 1312 274 l 1,55,-1
448 -102 m 1,62,-1
 1406 1564 l 1,63,-1
 1604 1564 l 1,64,-1
 650 -102 l 1,65,-1
 448 -102 l 1,62,-1
EndSplineSet
Ligature2: "'frac' Diagonal Fractions lookup 7 subtable" three fraction four
Ligature2: "'frac' Diagonal Fractions lookup 7 subtable" three slash four
EndChar

StartChar: questiondown
Encoding: 191 191 129
Width: 1132
GlyphClass: 2
Flags: W
LayerCount: 2
Fore
SplineSet
130 -34 m 0,0,1
 130 56 130 56 165 127 c 128,-1,2
 200 198 200 198 250 247 c 128,-1,3
 300 296 300 296 351 343 c 128,-1,4
 402 390 402 390 437 455 c 128,-1,5
 472 520 472 520 472 602 c 2,6,-1
 472 656 l 1,7,-1
 688 656 l 1,8,-1
 688 584 l 2,9,10
 688 490 688 490 654 414 c 128,-1,11
 620 338 620 338 571 289 c 128,-1,12
 522 240 522 240 472 195 c 128,-1,13
 422 150 422 150 388 90 c 128,-1,14
 354 30 354 30 354 -42 c 0,15,16
 354 -142 354 -142 408 -201 c 128,-1,17
 462 -260 462 -260 556 -260 c 0,18,19
 732 -260 732 -260 820 -36 c 1,20,-1
 1010 -100 l 1,21,22
 962 -252 962 -252 844 -348 c 128,-1,23
 726 -444 726 -444 558 -444 c 0,24,25
 368 -444 368 -444 249 -332 c 128,-1,26
 130 -220 130 -220 130 -34 c 0,0,1
434 812 m 1,27,-1
 434 1074 l 1,28,-1
 726 1074 l 1,29,-1
 726 812 l 1,30,-1
 434 812 l 1,27,-1
EndSplineSet
EndChar

StartChar: AE
Encoding: 198 198 136
Width: 1902
GlyphClass: 2
Flags: W
LayerCount: 2
Fore
SplineSet
522 558 m 1,0,-1
 930 558 l 1,1,-1
 930 1266 l 1,2,-1
 912 1266 l 1,3,-1
 522 558 l 1,0,-1
-8 0 m 1,4,-1
 802 1470 l 1,5,-1
 1816 1470 l 1,6,-1
 1816 1286 l 1,7,-1
 1144 1286 l 1,8,-1
 1144 852 l 1,9,-1
 1746 852 l 1,10,-1
 1746 668 l 1,11,-1
 1134 668 l 1,12,-1
 1134 184 l 1,13,-1
 1836 184 l 1,14,-1
 1836 0 l 1,15,-1
 930 0 l 1,16,-1
 930 382 l 1,17,-1
 430 382 l 1,18,-1
 224 0 l 1,19,-1
 -8 0 l 1,4,-1
EndSplineSet
EndChar

StartChar: Eth
Encoding: 208 208 146
Width: 1372
GlyphClass: 2
Flags: W
LayerCount: 2
Fore
SplineSet
178 0 m 1,0,-1
 178 658 l 1,1,-1
 20 658 l 1,2,-1
 20 832 l 1,3,-1
 178 832 l 1,4,-1
 178 1470 l 1,5,-1
 602 1470 l 2,6,7
 930 1470 930 1470 1111 1281 c 128,-1,8
 1292 1092 1292 1092 1292 734 c 0,9,10
 1292 576 1292 576 1252 447 c 128,-1,11
 1212 318 1212 318 1132 216 c 128,-1,12
 1052 114 1052 114 916 57 c 128,-1,13
 780 0 780 0 598 0 c 2,14,-1
 178 0 l 1,0,-1
394 184 m 1,15,-1
 574 184 l 2,16,17
 1066 184 1066 184 1066 734 c 0,18,19
 1066 1286 1066 1286 576 1286 c 2,20,-1
 394 1286 l 1,21,-1
 394 832 l 1,22,-1
 770 832 l 1,23,-1
 770 658 l 1,24,-1
 394 658 l 1,25,-1
 394 184 l 1,15,-1
EndSplineSet
EndChar

StartChar: multiply
Encoding: 215 215 153
Width: 1114
GlyphClass: 2
Flags: W
LayerCount: 2
Fore
SplineSet
78 398 m 1,0,-1
 430 728 l 1,1,-1
 78 1062 l 1,2,-1
 212 1192 l 1,3,-1
 556 854 l 1,4,-1
 904 1192 l 1,5,-1
 1038 1062 l 1,6,-1
 686 728 l 1,7,-1
 1038 398 l 1,8,-1
 902 266 l 1,9,-1
 556 604 l 1,10,-1
 212 266 l 1,11,-1
 78 398 l 1,0,-1
EndSplineSet
EndChar

StartChar: Oslash
Encoding: 216 216 154
Width: 1420
GlyphClass: 2
Flags: W
LayerCount: 2
Fore
SplineSet
86 734 m 0,0,1
 86 1080 86 1080 258 1292 c 128,-1,2
 430 1504 430 1504 712 1504 c 0,3,4
 870 1504 870 1504 998 1432 c 1,5,-1
 1078 1580 l 1,6,-1
 1264 1580 l 1,7,-1
 1132 1332 l 1,8,9
 1336 1118 1336 1118 1336 734 c 0,10,11
 1336 384 1336 384 1165 175 c 128,-1,12
 994 -34 994 -34 712 -34 c 0,13,14
 564 -34 564 -34 446 24 c 1,15,-1
 368 -122 l 1,16,-1
 184 -122 l 1,17,-1
 312 118 l 1,18,19
 86 332 86 332 86 734 c 0,0,1
1022 1130 m 1,20,-1
 540 194 l 1,21,22
 612 152 612 152 712 152 c 0,23,24
 896 152 896 152 1004 308 c 128,-1,25
 1112 464 1112 464 1112 734 c 0,26,27
 1112 978 1112 978 1022 1130 c 1,20,-1
908 1260 m 1,28,29
 822 1318 822 1318 712 1318 c 0,30,31
 524 1318 524 1318 417 1160 c 128,-1,32
 310 1002 310 1002 310 734 c 0,33,34
 310 470 310 470 418 314 c 1,35,-1
 908 1260 l 1,28,29
EndSplineSet
EndChar

StartChar: Thorn
Encoding: 222 222 160
Width: 1178
GlyphClass: 2
Flags: W
LayerCount: 2
Fore
SplineSet
178 0 m 1,0,-1
 178 1470 l 1,1,-1
 394 1470 l 1,2,-1
 394 1230 l 1,3,-1
 572 1230 l 2,4,5
 716 1230 716 1230 823 1191 c 128,-1,6
 930 1152 930 1152 990 1083 c 128,-1,7
 1050 1014 1050 1014 1078 933 c 128,-1,8
 1106 852 1106 852 1106 754 c 0,9,10
 1106 514 1106 514 961 394 c 128,-1,11
 816 274 816 274 568 274 c 2,12,-1
 394 274 l 1,13,-1
 394 0 l 1,14,-1
 178 0 l 1,0,-1
394 458 m 1,15,-1
 546 458 l 2,16,17
 880 458 880 458 880 756 c 0,18,19
 880 1046 880 1046 554 1046 c 2,20,-1
 394 1046 l 1,21,-1
 394 458 l 1,15,-1
EndSplineSet
EndChar

StartChar: germandbls
Encoding: 223 223 161
Width: 1292
GlyphClass: 2
Flags: W
LayerCount: 2
Fore
SplineSet
178 0 m 1,0,-1
 178 1082 l 2,1,2
 178 1286 178 1286 307 1395 c 128,-1,3
 436 1504 436 1504 628 1504 c 0,4,5
 838 1504 838 1504 966 1396 c 128,-1,6
 1094 1288 1094 1288 1094 1104 c 0,7,8
 1094 890 1094 890 924 790 c 1,9,-1
 924 786 l 1,10,11
 1050 748 1050 748 1128 650 c 128,-1,12
 1206 552 1206 552 1206 396 c 0,13,14
 1206 198 1206 198 1084 82 c 128,-1,15
 962 -34 962 -34 752 -34 c 0,16,17
 608 -34 608 -34 494 4 c 1,18,-1
 500 194 l 1,19,20
 614 152 614 152 744 152 c 0,21,22
 844 152 844 152 914 220 c 128,-1,23
 984 288 984 288 984 396 c 0,24,25
 984 530 984 530 905 602 c 128,-1,26
 826 674 826 674 692 674 c 2,27,-1
 560 674 l 1,28,-1
 560 856 l 1,29,-1
 674 856 l 2,30,31
 760 856 760 856 815 921 c 128,-1,32
 870 986 870 986 870 1094 c 0,33,34
 870 1194 870 1194 807 1256 c 128,-1,35
 744 1318 744 1318 634 1318 c 0,36,37
 522 1318 522 1318 458 1250 c 128,-1,38
 394 1182 394 1182 394 1066 c 2,39,-1
 394 0 l 1,40,-1
 178 0 l 1,0,-1
EndSplineSet
EndChar

StartChar: ae
Encoding: 230 230 168
Width: 1788
GlyphClass: 2
Flags: W
LayerCount: 2
Fore
SplineSet
70 278 m 0,0,1
 70 576 70 576 536 646 c 0,2,3
 716 674 716 674 766 688 c 0,4,5
 766 694 766 694 765 719 c 128,-1,6
 764 744 764 744 764 752 c 0,7,8
 764 828 764 828 704 881 c 128,-1,9
 644 934 644 934 544 934 c 0,10,11
 358 934 358 934 226 784 c 1,12,-1
 96 892 l 1,13,14
 176 990 176 990 292 1046 c 128,-1,15
 408 1102 408 1102 546 1102 c 0,16,17
 794 1102 794 1102 898 920 c 1,18,19
 1026 1102 1026 1102 1248 1102 c 0,20,21
 1452 1102 1452 1102 1586 946 c 128,-1,22
 1720 790 1720 790 1720 550 c 0,23,24
 1720 536 1720 536 1719 509 c 128,-1,25
 1718 482 1718 482 1718 464 c 1,26,-1
 970 464 l 1,27,-1
 970 432 l 1,28,29
 978 316 978 316 1052 226 c 128,-1,30
 1126 136 1126 136 1254 136 c 0,31,32
 1436 136 1436 136 1524 298 c 1,33,-1
 1698 240 l 1,34,35
 1646 122 1646 122 1531 44 c 128,-1,36
 1416 -34 1416 -34 1250 -34 c 0,37,38
 984 -34 984 -34 852 202 c 1,39,40
 698 -34 698 -34 444 -34 c 0,41,42
 272 -34 272 -34 171 51 c 128,-1,43
 70 136 70 136 70 278 c 0,0,1
282 292 m 0,44,45
 282 228 282 228 333 184 c 128,-1,46
 384 140 384 140 470 140 c 0,47,48
 592 140 592 140 678 219 c 128,-1,49
 764 298 764 298 764 422 c 2,50,-1
 764 540 l 1,51,52
 668 516 668 516 550 498 c 0,53,54
 420 478 420 478 351 430 c 128,-1,55
 282 382 282 382 282 292 c 0,44,45
970 612 m 1,56,-1
 1508 612 l 1,57,58
 1508 616 1508 616 1508 620 c 0,59,60
 1508 748 1508 748 1435 840 c 128,-1,61
 1362 932 1362 932 1250 932 c 0,62,63
 1136 932 1136 932 1066 852 c 128,-1,64
 996 772 996 772 974 652 c 1,65,-1
 970 612 l 1,56,-1
EndSplineSet
EndChar

StartChar: eth
Encoding: 240 240 178
Width: 1118
GlyphClass: 2
Flags: W
LayerCount: 2
Fore
SplineSet
74 468 m 0,0,1
 74 704 74 704 204 844 c 128,-1,2
 334 984 334 984 544 984 c 0,3,4
 636 984 636 984 707 948 c 128,-1,5
 778 912 778 912 808 864 c 1,6,7
 764 1064 764 1064 630 1194 c 1,8,-1
 416 1036 l 1,9,-1
 294 1170 l 1,10,-1
 478 1304 l 1,11,12
 384 1354 384 1354 272 1372 c 1,13,-1
 344 1540 l 1,14,15
 452 1522 452 1522 548 1486 c 0,16,17
 600 1464 600 1464 652 1432 c 1,18,-1
 856 1582 l 1,19,-1
 972 1448 l 1,20,-1
 794 1316 l 1,21,22
 850 1258 850 1258 896 1188 c 0,23,24
 962 1080 962 1080 1004 915 c 128,-1,25
 1046 750 1046 750 1046 544 c 0,26,27
 1046 286 1046 286 915 126 c 128,-1,28
 784 -34 784 -34 548 -34 c 0,29,30
 332 -34 332 -34 203 107 c 128,-1,31
 74 248 74 248 74 468 c 0,0,1
286 474 m 0,32,33
 286 330 286 330 359 237 c 128,-1,34
 432 144 432 144 556 144 c 0,35,36
 674 144 674 144 746 234 c 128,-1,37
 818 324 818 324 818 476 c 0,38,39
 818 622 818 622 746 713 c 128,-1,40
 674 804 674 804 556 804 c 256,41,42
 438 804 438 804 362 715 c 128,-1,43
 286 626 286 626 286 474 c 0,32,33
EndSplineSet
EndChar

StartChar: divide
Encoding: 247 247 185
Width: 1114
GlyphClass: 2
Flags: W
LayerCount: 2
Fore
SplineSet
426 982 m 1,0,-1
 426 1236 l 1,1,-1
 686 1236 l 1,2,-1
 686 982 l 1,3,-1
 426 982 l 1,0,-1
52 634 m 1,4,-1
 52 818 l 1,5,-1
 1060 818 l 1,6,-1
 1060 634 l 1,7,-1
 52 634 l 1,4,-1
426 216 m 1,8,-1
 426 472 l 1,9,-1
 686 472 l 1,10,-1
 686 216 l 1,11,-1
 426 216 l 1,8,-1
EndSplineSet
EndChar

StartChar: oslash
Encoding: 248 248 186
Width: 1122
GlyphClass: 2
Flags: W
LayerCount: 2
Fore
SplineSet
74 532 m 0,0,1
 74 686 74 686 124 811 c 128,-1,2
 174 936 174 936 288 1019 c 128,-1,3
 402 1102 402 1102 562 1102 c 0,4,5
 678 1102 678 1102 772 1056 c 1,6,-1
 844 1194 l 1,7,-1
 1008 1194 l 1,8,-1
 892 972 l 1,9,10
 1050 816 1050 816 1050 532 c 0,11,12
 1050 434 1050 434 1025 341 c 128,-1,13
 1000 248 1000 248 946 160 c 128,-1,14
 892 72 892 72 793 19 c 128,-1,15
 694 -34 694 -34 562 -34 c 0,16,17
 450 -34 450 -34 364 4 c 1,18,-1
 298 -116 l 1,19,-1
 136 -116 l 1,20,-1
 240 82 l 1,21,22
 74 236 74 236 74 532 c 0,0,1
782 772 m 1,23,-1
 452 170 l 1,24,25
 506 144 506 144 562 144 c 0,26,27
 674 144 674 144 755 242 c 128,-1,28
 836 340 836 340 836 532 c 0,29,30
 836 678 836 678 782 772 c 1,23,-1
684 890 m 1,31,32
 632 924 632 924 562 924 c 0,33,34
 450 924 450 924 368 824 c 128,-1,35
 286 724 286 724 286 532 c 0,36,37
 286 380 286 380 352 278 c 1,38,-1
 684 890 l 1,31,32
EndSplineSet
EndChar

StartChar: thorn
Encoding: 254 254 192
Width: 1178
GlyphClass: 2
Flags: W
LayerCount: 2
Fore
SplineSet
364 534 m 0,0,1
 364 356 364 356 437 250 c 128,-1,2
 510 144 510 144 624 144 c 0,3,4
 750 144 750 144 822 247 c 128,-1,5
 894 350 894 350 894 534 c 0,6,7
 894 714 894 714 823 819 c 128,-1,8
 752 924 752 924 624 924 c 0,9,10
 512 924 512 924 438 817 c 128,-1,11
 364 710 364 710 364 534 c 0,0,1
158 -446 m 1,12,-1
 158 1522 l 1,13,-1
 368 1522 l 1,14,-1
 368 918 l 1,15,16
 398 996 398 996 480 1049 c 128,-1,17
 562 1102 562 1102 652 1102 c 0,18,19
 856 1102 856 1102 981 949 c 128,-1,20
 1106 796 1106 796 1106 534 c 0,21,22
 1106 386 1106 386 1066 273 c 128,-1,23
 1026 160 1026 160 959 95 c 128,-1,24
 892 30 892 30 814 -2 c 128,-1,25
 736 -34 736 -34 650 -34 c 0,26,27
 544 -34 544 -34 471 21 c 128,-1,28
 398 76 398 76 368 144 c 1,29,-1
 368 -446 l 1,30,-1
 158 -446 l 1,12,-1
EndSplineSet
EndChar

StartChar: Dcroat
Encoding: 272 272 210
Width: 1372
GlyphClass: 2
Flags: W
LayerCount: 2
Fore
SplineSet
178 0 m 1,0,-1
 178 658 l 1,1,-1
 -18 658 l 1,2,-1
 -18 832 l 1,3,-1
 178 832 l 1,4,-1
 178 1470 l 1,5,-1
 602 1470 l 2,6,7
 930 1470 930 1470 1111 1281 c 128,-1,8
 1292 1092 1292 1092 1292 734 c 0,9,10
 1292 576 1292 576 1252 447 c 128,-1,11
 1212 318 1212 318 1132 216 c 128,-1,12
 1052 114 1052 114 916 57 c 128,-1,13
 780 0 780 0 598 0 c 2,14,-1
 178 0 l 1,0,-1
394 184 m 1,15,-1
 574 184 l 2,16,17
 1066 184 1066 184 1066 734 c 0,18,19
 1066 1286 1066 1286 576 1286 c 2,20,-1
 394 1286 l 1,21,-1
 394 832 l 1,22,-1
 730 832 l 1,23,-1
 730 658 l 1,24,-1
 394 658 l 1,25,-1
 394 184 l 1,15,-1
EndSplineSet
EndChar

StartChar: dcroat
Encoding: 273 273 211
Width: 1170
GlyphClass: 2
Flags: W
LayerCount: 2
Fore
SplineSet
74 528 m 0,0,1
 74 792 74 792 203 940 c 128,-1,2
 332 1088 332 1088 524 1088 c 0,3,4
 626 1088 626 1088 703 1037 c 128,-1,5
 780 986 780 986 814 918 c 1,6,-1
 814 1206 l 1,7,-1
 396 1206 l 1,8,-1
 396 1362 l 1,9,-1
 814 1362 l 1,10,-1
 814 1522 l 1,11,-1
 1022 1522 l 1,12,-1
 1022 1362 l 1,13,-1
 1142 1362 l 1,14,-1
 1142 1206 l 1,15,-1
 1022 1206 l 1,16,-1
 1022 0 l 1,17,-1
 820 0 l 1,18,-1
 820 156 l 1,19,20
 778 70 778 70 701 18 c 128,-1,21
 624 -34 624 -34 524 -34 c 0,22,23
 340 -34 340 -34 207 109 c 128,-1,24
 74 252 74 252 74 528 c 0,0,1
288 528 m 0,25,26
 288 346 288 346 362 245 c 128,-1,27
 436 144 436 144 552 144 c 256,28,29
 668 144 668 144 743 249 c 128,-1,30
 818 354 818 354 818 528 c 0,31,32
 818 696 818 696 744 803 c 128,-1,33
 670 910 670 910 552 910 c 256,34,35
 434 910 434 910 361 806 c 128,-1,36
 288 702 288 702 288 528 c 0,25,26
EndSplineSet
EndChar

StartChar: uni0123
Encoding: 291 291 229
Width: 1142
GlyphClass: 2
Flags: W
LayerCount: 2
Fore
SplineSet
426 1250 m 1,0,-1
 600 1624 l 1,1,-1
 744 1624 l 1,2,-1
 654 1250 l 1,3,-1
 426 1250 l 1,0,-1
290 554 m 0,4,5
 290 380 290 380 361 282 c 128,-1,6
 432 184 432 184 542 184 c 0,7,8
 658 184 658 184 726 280 c 128,-1,9
 794 376 794 376 794 554 c 0,10,11
 794 728 794 728 725 826 c 128,-1,12
 656 924 656 924 542 924 c 0,13,14
 430 924 430 924 360 823 c 128,-1,15
 290 722 290 722 290 554 c 0,4,5
78 552 m 0,16,17
 78 800 78 800 202 951 c 128,-1,18
 326 1102 326 1102 516 1102 c 0,19,20
 626 1102 626 1102 696 1049 c 128,-1,21
 766 996 766 996 796 926 c 1,22,-1
 796 1066 l 1,23,-1
 1002 1066 l 1,24,-1
 1002 140 l 2,25,26
 1002 -162 1002 -162 888 -308 c 128,-1,27
 774 -454 774 -454 530 -454 c 0,28,29
 406 -454 406 -454 298 -402 c 128,-1,30
 190 -350 190 -350 122 -252 c 1,31,-1
 262 -156 l 1,32,33
 370 -286 370 -286 534 -286 c 0,34,35
 652 -286 652 -286 719 -198 c 128,-1,36
 786 -110 786 -110 792 32 c 0,37,38
 796 122 796 122 796 166 c 1,39,40
 760 96 760 96 686 52 c 128,-1,41
 612 8 612 8 522 8 c 0,42,43
 324 8 324 8 201 158 c 128,-1,44
 78 308 78 308 78 552 c 0,16,17
EndSplineSet
EndChar

StartChar: Hbar
Encoding: 294 294 232
Width: 1420
GlyphClass: 2
Flags: W
LayerCount: 2
Fore
SplineSet
24 1104 m 1,0,-1
 24 1276 l 1,1,-1
 178 1276 l 1,2,-1
 178 1470 l 1,3,-1
 394 1470 l 1,4,-1
 394 1276 l 1,5,-1
 1030 1276 l 1,6,-1
 1030 1470 l 1,7,-1
 1244 1470 l 1,8,-1
 1244 1276 l 1,9,-1
 1398 1276 l 1,10,-1
 1398 1104 l 1,11,-1
 1244 1104 l 1,12,-1
 1244 0 l 1,13,-1
 1030 0 l 1,14,-1
 1030 664 l 1,15,-1
 394 664 l 1,16,-1
 394 0 l 1,17,-1
 178 0 l 1,18,-1
 178 1104 l 1,19,-1
 24 1104 l 1,0,-1
1030 1104 m 1,20,-1
 394 1104 l 1,21,-1
 394 848 l 1,22,-1
 1030 848 l 1,23,-1
 1030 1104 l 1,20,-1
EndSplineSet
EndChar

StartChar: hbar
Encoding: 295 295 233
Width: 1130
GlyphClass: 2
Flags: W
LayerCount: 2
Fore
SplineSet
12 1206 m 1,0,-1
 12 1366 l 1,1,-1
 148 1366 l 1,2,-1
 148 1522 l 1,3,-1
 356 1522 l 1,4,-1
 356 1366 l 1,5,-1
 752 1366 l 1,6,-1
 752 1206 l 1,7,-1
 356 1206 l 1,8,-1
 356 896 l 1,9,-1
 358 896 l 1,10,11
 396 962 396 962 474 1011 c 128,-1,12
 552 1060 552 1060 648 1060 c 0,13,14
 712 1060 712 1060 767 1042 c 128,-1,15
 822 1024 822 1024 879 982 c 128,-1,16
 936 940 936 940 970 853 c 128,-1,17
 1004 766 1004 766 1004 646 c 2,18,-1
 1004 0 l 1,19,-1
 796 0 l 1,20,-1
 796 620 l 2,21,22
 796 882 796 882 612 882 c 0,23,24
 506 882 506 882 431 790 c 128,-1,25
 356 698 356 698 356 576 c 2,26,-1
 356 0 l 1,27,-1
 148 0 l 1,28,-1
 148 1206 l 1,29,-1
 12 1206 l 1,0,-1
EndSplineSet
EndChar

StartChar: dotlessi
Encoding: 305 305 243
Width: 508
GlyphClass: 2
Flags: W
LayerCount: 2
Fore
SplineSet
152 0 m 1,0,-1
 152 1066 l 1,1,-1
 360 1066 l 1,2,-1
 360 0 l 1,3,-1
 152 0 l 1,0,-1
EndSplineSet
EndChar

StartChar: kgreenlandic
Encoding: 312 312 250
Width: 1056
GlyphClass: 2
Flags: W
LayerCount: 2
Fore
SplineSet
148 0 m 1,0,-1
 148 1066 l 1,1,-1
 356 1066 l 1,2,-1
 356 648 l 1,3,-1
 360 648 l 1,4,-1
 798 1066 l 1,5,-1
 1064 1066 l 1,6,-1
 552 576 l 1,7,-1
 1072 0 l 1,8,-1
 822 0 l 1,9,-1
 416 428 l 1,10,-1
 356 364 l 1,11,-1
 356 0 l 1,12,-1
 148 0 l 1,0,-1
EndSplineSet
EndChar

StartChar: Lslash
Encoding: 321 321 259
Width: 1088
GlyphClass: 2
Flags: W
LayerCount: 2
Fore
SplineSet
394 680 m 1,0,-1
 394 184 l 1,1,-1
 1070 184 l 1,2,-1
 1070 0 l 1,3,-1
 178 0 l 1,4,-1
 178 544 l 1,5,-1
 -2 428 l 1,6,-1
 -102 586 l 1,7,-1
 178 764 l 1,8,-1
 178 1470 l 1,9,-1
 394 1470 l 1,10,-1
 394 898 l 1,11,-1
 598 1030 l 1,12,-1
 698 874 l 1,13,-1
 394 680 l 1,0,-1
EndSplineSet
EndChar

StartChar: lslash
Encoding: 322 322 260
Width: 524
GlyphClass: 2
Flags: W
LayerCount: 2
Fore
SplineSet
368 712 m 1,0,-1
 368 0 l 1,1,-1
 158 0 l 1,2,-1
 158 586 l 1,3,-1
 -16 476 l 1,4,-1
 -116 636 l 1,5,-1
 158 806 l 1,6,-1
 158 1522 l 1,7,-1
 368 1522 l 1,8,-1
 368 932 l 1,9,-1
 542 1038 l 1,10,-1
 638 880 l 1,11,-1
 368 712 l 1,0,-1
EndSplineSet
EndChar

StartChar: Eng
Encoding: 330 330 268
Width: 1430
GlyphClass: 2
Flags: W
LayerCount: 2
Fore
SplineSet
178 0 m 1,0,-1
 178 1470 l 1,1,-1
 410 1470 l 1,2,-1
 926 548 l 1,3,-1
 1052 318 l 1,4,-1
 1064 318 l 1,5,6
 1038 508 1038 508 1038 730 c 2,7,-1
 1038 1470 l 1,8,-1
 1254 1470 l 1,9,-1
 1254 26 l 2,10,11
 1254 -196 1254 -196 1158 -320 c 128,-1,12
 1062 -444 1062 -444 876 -444 c 0,13,14
 816 -444 816 -444 670 -426 c 1,15,-1
 670 -244 l 1,16,17
 766 -260 766 -260 834 -260 c 0,18,19
 938 -260 938 -260 979 -200 c 128,-1,20
 1020 -140 1020 -140 1024 -2 c 1,21,-1
 500 922 l 1,22,-1
 378 1148 l 1,23,-1
 368 1148 l 1,24,25
 394 932 394 932 394 762 c 2,26,-1
 394 0 l 1,27,-1
 178 0 l 1,0,-1
EndSplineSet
EndChar

StartChar: eng
Encoding: 331 331 269
Width: 1120
GlyphClass: 2
Flags: W
LayerCount: 2
Fore
SplineSet
138 0 m 1,0,-1
 138 1066 l 1,1,-1
 338 1066 l 1,2,-1
 338 918 l 1,3,-1
 340 918 l 1,4,5
 374 990 374 990 456 1046 c 128,-1,6
 538 1102 538 1102 650 1102 c 0,7,8
 806 1102 806 1102 901 1004 c 128,-1,9
 996 906 996 906 996 686 c 2,10,-1
 996 18 l 2,11,12
 996 -228 996 -228 891 -341 c 128,-1,13
 786 -454 786 -454 632 -454 c 0,14,15
 594 -454 594 -454 560 -450 c 128,-1,16
 526 -446 526 -446 491 -441 c 128,-1,17
 456 -436 456 -436 446 -434 c 1,18,-1
 446 -254 l 1,19,20
 554 -270 554 -270 598 -270 c 0,21,22
 698 -270 698 -270 743 -206 c 128,-1,23
 788 -142 788 -142 788 -10 c 2,24,-1
 788 658 l 2,25,26
 788 924 788 924 606 924 c 0,27,28
 498 924 498 924 422 837 c 128,-1,29
 346 750 346 750 346 624 c 2,30,-1
 346 0 l 1,31,-1
 138 0 l 1,0,-1
EndSplineSet
EndChar

StartChar: OE
Encoding: 338 338 276
Width: 1934
GlyphClass: 2
Flags: W
LayerCount: 2
Fore
SplineSet
86 734 m 0,0,1
 86 1082 86 1082 263 1293 c 128,-1,2
 440 1504 440 1504 724 1504 c 0,3,4
 846 1504 846 1504 930 1470 c 1,5,-1
 1850 1470 l 1,6,-1
 1850 1284 l 1,7,-1
 1138 1284 l 1,8,-1
 1138 852 l 1,9,-1
 1778 852 l 1,10,-1
 1778 668 l 1,11,-1
 1138 668 l 1,12,-1
 1138 184 l 1,13,-1
 1870 184 l 1,14,-1
 1870 0 l 1,15,-1
 934 0 l 1,16,17
 838 -34 838 -34 724 -34 c 0,18,19
 438 -34 438 -34 262 175 c 128,-1,20
 86 384 86 384 86 734 c 0,0,1
310 734 m 256,21,22
 310 468 310 468 424 310 c 128,-1,23
 538 152 538 152 724 152 c 0,24,25
 836 152 836 152 922 214 c 1,26,-1
 922 1252 l 1,27,28
 842 1318 842 1318 724 1318 c 0,29,30
 534 1318 534 1318 422 1159 c 128,-1,31
 310 1000 310 1000 310 734 c 256,21,22
EndSplineSet
EndChar

StartChar: uni0163
Encoding: 355 355 293
Width: 728
GlyphClass: 2
Flags: W
LayerCount: 2
Fore
SplineSet
36 892 m 1,0,-1
 36 1066 l 1,1,-1
 208 1066 l 1,2,-1
 208 1390 l 1,3,-1
 414 1390 l 1,4,-1
 414 1066 l 1,5,-1
 670 1066 l 1,6,-1
 670 892 l 1,7,-1
 414 892 l 1,8,-1
 414 332 l 2,9,10
 414 250 414 250 448 214 c 128,-1,11
 482 178 482 178 550 178 c 2,12,-1
 672 178 l 1,13,-1
 672 0 l 1,14,-1
 546 0 l 1,15,-1
 528 -68 l 1,16,17
 610 -82 610 -82 655 -128 c 128,-1,18
 700 -174 700 -174 700 -240 c 0,19,20
 700 -322 700 -322 631 -380 c 128,-1,21
 562 -438 562 -438 414 -438 c 0,22,23
 324 -438 324 -438 240 -416 c 1,24,-1
 240 -286 l 1,25,26
 326 -304 326 -304 408 -304 c 0,27,28
 534 -304 534 -304 534 -228 c 0,29,30
 534 -154 534 -154 326 -142 c 1,31,-1
 366 28 l 1,32,33
 208 94 208 94 208 318 c 2,34,-1
 208 892 l 1,35,-1
 36 892 l 1,0,-1
EndSplineSet
Substitution2: "'locl' Localized Forms in Latin lookup 3 subtable" uni021B
Substitution2: "'locl' Localized Forms in Latin lookup 2 subtable" uni021B
Substitution2: "'aalt' Access All Alternates lookup 0 subtable" uni021B
EndChar

StartChar: Tbar
Encoding: 358 358 296
Width: 1118
GlyphClass: 2
Flags: W
LayerCount: 2
Fore
SplineSet
20 1284 m 1,0,-1
 20 1470 l 1,1,-1
 1102 1470 l 1,2,-1
 1102 1284 l 1,3,-1
 670 1284 l 1,4,-1
 670 832 l 1,5,-1
 928 832 l 1,6,-1
 928 658 l 1,7,-1
 670 658 l 1,8,-1
 670 0 l 1,9,-1
 454 0 l 1,10,-1
 454 658 l 1,11,-1
 180 658 l 1,12,-1
 180 832 l 1,13,-1
 454 832 l 1,14,-1
 454 1284 l 1,15,-1
 20 1284 l 1,0,-1
EndSplineSet
EndChar

StartChar: tbar
Encoding: 359 359 297
Width: 728
GlyphClass: 2
Flags: W
LayerCount: 2
Fore
SplineSet
36 892 m 1,0,-1
 36 1066 l 1,1,-1
 208 1066 l 1,2,-1
 208 1390 l 1,3,-1
 414 1390 l 1,4,-1
 414 1066 l 1,5,-1
 670 1066 l 1,6,-1
 670 892 l 1,7,-1
 414 892 l 1,8,-1
 414 716 l 1,9,-1
 676 716 l 1,10,-1
 676 544 l 1,11,-1
 414 544 l 1,12,-1
 414 332 l 2,13,14
 414 250 414 250 448 214 c 128,-1,15
 482 178 482 178 550 178 c 2,16,-1
 672 178 l 1,17,-1
 672 0 l 1,18,-1
 524 0 l 2,19,20
 208 0 208 0 208 318 c 2,21,-1
 208 544 l 1,22,-1
 14 544 l 1,23,-1
 14 716 l 1,24,-1
 208 716 l 1,25,-1
 208 892 l 1,26,-1
 36 892 l 1,0,-1
EndSplineSet
EndChar

StartChar: longs
Encoding: 383 383 321
Width: 618
GlyphClass: 2
Flags: W
LayerCount: 2
Fore
SplineSet
158 0 m 1,0,-1
 158 1198 l 2,1,2
 158 1360 158 1360 239 1441 c 128,-1,3
 320 1522 320 1522 466 1522 c 2,4,-1
 616 1522 l 1,5,-1
 616 1344 l 1,6,-1
 506 1344 l 2,7,8
 366 1344 366 1344 366 1174 c 2,9,-1
 366 0 l 1,10,-1
 158 0 l 1,0,-1
EndSplineSet
EndChar

StartChar: uni0180
Encoding: 384 384 322
Width: 1170
GlyphClass: 2
Flags: W
LayerCount: 2
Fore
SplineSet
354 530 m 0,0,1
 354 354 354 354 429 249 c 128,-1,2
 504 144 504 144 616 144 c 0,3,4
 736 144 736 144 810 246 c 128,-1,5
 884 348 884 348 884 530 c 0,6,7
 884 704 884 704 812 809 c 128,-1,8
 740 914 740 914 618 914 c 0,9,10
 504 914 504 914 429 809 c 128,-1,11
 354 704 354 704 354 530 c 0,0,1
16 1206 m 1,12,-1
 16 1366 l 1,13,-1
 150 1366 l 1,14,-1
 150 1522 l 1,15,-1
 356 1522 l 1,16,-1
 356 1366 l 1,17,-1
 750 1366 l 1,18,-1
 750 1206 l 1,19,-1
 356 1206 l 1,20,-1
 356 914 l 1,21,22
 392 982 392 982 468 1037 c 128,-1,23
 544 1092 544 1092 646 1092 c 0,24,25
 846 1092 846 1092 972 941 c 128,-1,26
 1098 790 1098 790 1098 530 c 0,27,28
 1098 384 1098 384 1056 271 c 128,-1,29
 1014 158 1014 158 946 94 c 128,-1,30
 878 30 878 30 802 -2 c 128,-1,31
 726 -34 726 -34 648 -34 c 0,32,33
 544 -34 544 -34 465 22 c 128,-1,34
 386 78 386 78 352 154 c 1,35,-1
 352 0 l 1,36,-1
 150 0 l 1,37,-1
 150 1206 l 1,38,-1
 16 1206 l 1,12,-1
EndSplineSet
EndChar

StartChar: uni0182
Encoding: 386 386 324
Width: 1312
GlyphClass: 2
Flags: W
LayerCount: 2
Fore
SplineSet
394 184 m 1,0,-1
 750 184 l 2,1,2
 862 184 862 184 937 244 c 128,-1,3
 1012 304 1012 304 1012 422 c 0,4,5
 1012 526 1012 526 940 598 c 128,-1,6
 868 670 868 670 744 670 c 2,7,-1
 394 670 l 1,8,-1
 394 184 l 1,0,-1
178 0 m 1,9,-1
 178 1470 l 1,10,-1
 1066 1470 l 1,11,-1
 1066 1284 l 1,12,-1
 394 1284 l 1,13,-1
 394 852 l 1,14,-1
 762 852 l 2,15,16
 986 852 986 852 1111 731 c 128,-1,17
 1236 610 1236 610 1236 422 c 0,18,19
 1236 240 1236 240 1114 120 c 128,-1,20
 992 0 992 0 782 0 c 2,21,-1
 178 0 l 1,9,-1
EndSplineSet
EndChar

StartChar: uni0183
Encoding: 387 387 325
Width: 1170
GlyphClass: 2
Flags: W
LayerCount: 2
Fore
SplineSet
354 534 m 0,0,1
 354 352 354 352 427 248 c 128,-1,2
 500 144 500 144 616 144 c 0,3,4
 736 144 736 144 810 246 c 128,-1,5
 884 348 884 348 884 534 c 0,6,7
 884 714 884 714 811 819 c 128,-1,8
 738 924 738 924 618 924 c 0,9,10
 502 924 502 924 428 817 c 128,-1,11
 354 710 354 710 354 534 c 0,0,1
150 0 m 1,12,-1
 150 1512 l 1,13,-1
 904 1512 l 1,14,-1
 904 1334 l 1,15,-1
 356 1334 l 1,16,-1
 356 926 l 1,17,18
 378 982 378 982 458 1042 c 128,-1,19
 538 1102 538 1102 646 1102 c 0,20,21
 846 1102 846 1102 972 949 c 128,-1,22
 1098 796 1098 796 1098 534 c 0,23,24
 1098 386 1098 386 1057 272 c 128,-1,25
 1016 158 1016 158 949 94 c 128,-1,26
 882 30 882 30 806 -2 c 128,-1,27
 730 -34 730 -34 648 -34 c 0,28,29
 546 -34 546 -34 466 23 c 128,-1,30
 386 80 386 80 352 154 c 1,31,-1
 352 0 l 1,32,-1
 150 0 l 1,12,-1
EndSplineSet
EndChar

StartChar: uni0184
Encoding: 388 388 326
Width: 1322
GlyphClass: 2
Flags: W
LayerCount: 2
Fore
SplineSet
8 1334 m 1,0,-1
 270 1470 l 1,1,-1
 394 1470 l 1,2,-1
 394 848 l 1,3,-1
 768 848 l 2,4,5
 992 848 992 848 1118 728 c 128,-1,6
 1244 608 1244 608 1244 422 c 0,7,8
 1244 248 1244 248 1124 124 c 128,-1,9
 1004 0 1004 0 798 0 c 2,10,-1
 178 0 l 1,11,-1
 178 1202 l 1,12,-1
 8 1334 l 1,0,-1
394 184 m 1,13,-1
 758 184 l 2,14,15
 868 184 868 184 944 245 c 128,-1,16
 1020 306 1020 306 1020 422 c 0,17,18
 1020 524 1020 524 950 595 c 128,-1,19
 880 666 880 666 754 666 c 2,20,-1
 394 666 l 1,21,-1
 394 184 l 1,13,-1
EndSplineSet
EndChar

StartChar: uni0185
Encoding: 389 389 327
Width: 1170
GlyphClass: 2
Flags: W
LayerCount: 2
Fore
SplineSet
-10 1380 m 1,0,-1
 242 1522 l 1,1,-1
 356 1522 l 1,2,-1
 356 926 l 1,3,4
 392 1004 392 1004 475 1053 c 128,-1,5
 558 1102 558 1102 646 1102 c 0,6,7
 846 1102 846 1102 972 949 c 128,-1,8
 1098 796 1098 796 1098 534 c 0,9,10
 1098 388 1098 388 1058 275 c 128,-1,11
 1018 162 1018 162 952 97 c 128,-1,12
 886 32 886 32 809 -1 c 128,-1,13
 732 -34 732 -34 648 -34 c 0,14,15
 546 -34 546 -34 468 21 c 128,-1,16
 390 76 390 76 352 154 c 1,17,-1
 352 0 l 1,18,-1
 150 0 l 1,19,-1
 150 1248 l 1,20,-1
 -10 1380 l 1,0,-1
354 534 m 0,21,22
 354 352 354 352 428 248 c 128,-1,23
 502 144 502 144 616 144 c 0,24,25
 736 144 736 144 810 247 c 128,-1,26
 884 350 884 350 884 534 c 0,27,28
 884 710 884 710 813 817 c 128,-1,29
 742 924 742 924 618 924 c 0,30,31
 502 924 502 924 428 818 c 128,-1,32
 354 712 354 712 354 534 c 0,21,22
EndSplineSet
EndChar

StartChar: uni0186
Encoding: 390 390 328
Width: 1316
GlyphClass: 2
Flags: W
LayerCount: 2
Fore
SplineSet
46 338 m 1,0,-1
 240 400 l 1,1,2
 284 296 284 296 376 224 c 128,-1,3
 468 152 468 152 590 152 c 0,4,5
 778 152 778 152 893 310 c 128,-1,6
 1008 468 1008 468 1008 736 c 0,7,8
 1008 1000 1008 1000 895 1159 c 128,-1,9
 782 1318 782 1318 590 1318 c 0,10,11
 394 1318 394 1318 268 1098 c 1,12,-1
 84 1160 l 1,13,14
 146 1304 146 1304 275 1404 c 128,-1,15
 404 1504 404 1504 588 1504 c 0,16,17
 874 1504 874 1504 1053 1298 c 128,-1,18
 1232 1092 1232 1092 1232 736 c 0,19,20
 1232 376 1232 376 1050 171 c 128,-1,21
 868 -34 868 -34 588 -34 c 0,22,23
 478 -34 478 -34 385 0 c 128,-1,24
 292 34 292 34 226 93 c 128,-1,25
 160 152 160 152 117 212 c 128,-1,26
 74 272 74 272 46 338 c 1,0,-1
EndSplineSet
EndChar

StartChar: uni0189
Encoding: 393 393 331
Width: 1372
GlyphClass: 2
Flags: W
LayerCount: 2
Fore
SplineSet
178 0 m 1,0,-1
 178 658 l 1,1,-1
 20 658 l 1,2,-1
 20 832 l 1,3,-1
 178 832 l 1,4,-1
 178 1470 l 1,5,-1
 602 1470 l 2,6,7
 930 1470 930 1470 1111 1281 c 128,-1,8
 1292 1092 1292 1092 1292 734 c 0,9,10
 1292 576 1292 576 1252 447 c 128,-1,11
 1212 318 1212 318 1132 216 c 128,-1,12
 1052 114 1052 114 916 57 c 128,-1,13
 780 0 780 0 598 0 c 2,14,-1
 178 0 l 1,0,-1
394 184 m 1,15,-1
 574 184 l 2,16,17
 1066 184 1066 184 1066 734 c 0,18,19
 1066 1286 1066 1286 576 1286 c 2,20,-1
 394 1286 l 1,21,-1
 394 832 l 1,22,-1
 770 832 l 1,23,-1
 770 658 l 1,24,-1
 394 658 l 1,25,-1
 394 184 l 1,15,-1
EndSplineSet
EndChar

StartChar: uni018B
Encoding: 395 395 333
Width: 1312
GlyphClass: 2
Flags: W
LayerCount: 2
Fore
SplineSet
302 422 m 0,0,1
 302 306 302 306 376 245 c 128,-1,2
 450 184 450 184 564 184 c 2,3,-1
 920 184 l 1,4,-1
 920 670 l 1,5,-1
 574 670 l 2,6,7
 448 670 448 670 375 599 c 128,-1,8
 302 528 302 528 302 422 c 0,0,1
80 422 m 0,9,10
 80 610 80 610 205 731 c 128,-1,11
 330 852 330 852 554 852 c 2,12,-1
 920 852 l 1,13,-1
 920 1284 l 1,14,-1
 248 1284 l 1,15,-1
 248 1470 l 1,16,-1
 1136 1470 l 1,17,-1
 1136 0 l 1,18,-1
 532 0 l 2,19,20
 324 0 324 0 202 120 c 128,-1,21
 80 240 80 240 80 422 c 0,9,10
EndSplineSet
EndChar

StartChar: uni018C
Encoding: 396 396 334
Width: 1170
GlyphClass: 2
Flags: W
LayerCount: 2
Fore
SplineSet
286 534 m 0,0,1
 286 348 286 348 361 246 c 128,-1,2
 436 144 436 144 552 144 c 0,3,4
 670 144 670 144 743 250 c 128,-1,5
 816 356 816 356 816 534 c 0,6,7
 816 710 816 710 743 817 c 128,-1,8
 670 924 670 924 552 924 c 0,9,10
 432 924 432 924 359 819 c 128,-1,11
 286 714 286 714 286 534 c 0,0,1
74 534 m 0,12,13
 74 794 74 794 201 948 c 128,-1,14
 328 1102 328 1102 524 1102 c 0,15,16
 636 1102 636 1102 711 1044 c 128,-1,17
 786 986 786 986 814 926 c 1,18,-1
 814 1346 l 1,19,-1
 260 1346 l 1,20,-1
 260 1522 l 1,21,-1
 1022 1522 l 1,22,-1
 1022 0 l 1,23,-1
 820 0 l 1,24,-1
 820 156 l 1,25,26
 784 80 784 80 706 23 c 128,-1,27
 628 -34 628 -34 522 -34 c 0,28,29
 440 -34 440 -34 364 -2 c 128,-1,30
 288 30 288 30 221 94 c 128,-1,31
 154 158 154 158 114 272 c 128,-1,32
 74 386 74 386 74 534 c 0,12,13
EndSplineSet
EndChar

StartChar: uni018D
Encoding: 397 397 335
Width: 1218
GlyphClass: 2
Flags: W
LayerCount: 2
Fore
SplineSet
288 640 m 0,0,1
 288 520 288 520 387 421 c 128,-1,2
 486 322 486 322 624 262 c 1,3,4
 760 326 760 326 846 425 c 128,-1,5
 932 524 932 524 932 636 c 0,6,7
 932 758 932 758 850 841 c 128,-1,8
 768 924 768 924 618 924 c 0,9,10
 470 924 470 924 379 844 c 128,-1,11
 288 764 288 764 288 640 c 0,0,1
74 632 m 0,12,13
 74 854 74 854 221 977 c 128,-1,14
 368 1100 368 1100 620 1100 c 0,15,16
 866 1100 866 1100 1007 971 c 128,-1,17
 1148 842 1148 842 1148 644 c 0,18,19
 1148 512 1148 512 1055 384 c 128,-1,20
 962 256 962 256 798 172 c 1,21,22
 1004 50 1004 50 1004 -112 c 0,23,24
 1004 -262 1004 -262 884 -350 c 128,-1,25
 764 -438 764 -438 570 -438 c 0,26,27
 402 -438 402 -438 287 -370 c 128,-1,28
 172 -302 172 -302 110 -194 c 1,29,-1
 262 -106 l 1,30,31
 308 -168 308 -168 387 -215 c 128,-1,32
 466 -262 466 -262 568 -262 c 0,33,34
 666 -262 666 -262 729 -222 c 128,-1,35
 792 -182 792 -182 792 -116 c 0,36,37
 792 -86 792 -86 771 -55 c 128,-1,38
 750 -24 750 -24 697 10 c 128,-1,39
 644 44 644 44 605 64 c 128,-1,40
 566 84 566 84 484 124 c 0,41,42
 74 332 74 332 74 632 c 0,12,13
EndSplineSet
EndChar

StartChar: uni018E
Encoding: 398 398 336
Width: 1208
GlyphClass: 2
Flags: W
LayerCount: 2
Fore
SplineSet
74 0 m 1,0,-1
 74 184 l 1,1,-1
 820 184 l 1,2,-1
 820 668 l 1,3,-1
 158 668 l 1,4,-1
 158 852 l 1,5,-1
 820 852 l 1,6,-1
 820 1284 l 1,7,-1
 78 1284 l 1,8,-1
 78 1470 l 1,9,-1
 1034 1470 l 1,10,-1
 1034 0 l 1,11,-1
 74 0 l 1,0,-1
EndSplineSet
EndChar

StartChar: uni018F
Encoding: 399 399 337
Width: 1410
GlyphClass: 2
Flags: W
LayerCount: 2
Fore
SplineSet
82 706 m 0,0,1
 82 756 82 756 86 828 c 1,2,-1
 1098 828 l 1,3,4
 1082 1060 1082 1060 973 1189 c 128,-1,5
 864 1318 864 1318 684 1318 c 0,6,7
 450 1318 450 1318 306 1104 c 1,8,-1
 122 1178 l 1,9,10
 202 1336 202 1336 350 1420 c 128,-1,11
 498 1504 498 1504 688 1504 c 0,12,13
 996 1504 996 1504 1161 1289 c 128,-1,14
 1326 1074 1326 1074 1326 732 c 0,15,16
 1326 384 1326 384 1149 175 c 128,-1,17
 972 -34 972 -34 692 -34 c 0,18,19
 406 -34 406 -34 244 173 c 128,-1,20
 82 380 82 380 82 706 c 0,0,1
308 644 m 1,21,22
 308 636 308 636 309 624 c 128,-1,23
 310 612 310 612 310 606 c 0,24,25
 316 518 316 518 340 442 c 128,-1,26
 364 366 364 366 407 298 c 128,-1,27
 450 230 450 230 525 191 c 128,-1,28
 600 152 600 152 696 152 c 0,29,30
 856 152 856 152 974 280 c 128,-1,31
 1092 408 1092 408 1100 644 c 1,32,-1
 308 644 l 1,21,22
EndSplineSet
EndChar

StartChar: uni0190
Encoding: 400 400 338
Width: 1216
GlyphClass: 2
Flags: W
LayerCount: 2
Fore
SplineSet
88 412 m 0,0,1
 88 558 88 558 174 651 c 128,-1,2
 260 744 260 744 370 778 c 1,3,4
 278 820 278 820 212 910 c 128,-1,5
 146 1000 146 1000 146 1118 c 0,6,7
 146 1290 146 1290 274 1397 c 128,-1,8
 402 1504 402 1504 616 1504 c 0,9,10
 728 1504 728 1504 820 1471 c 128,-1,11
 912 1438 912 1438 969 1383 c 128,-1,12
 1026 1328 1026 1328 1061 1276 c 128,-1,13
 1096 1224 1096 1224 1114 1170 c 1,14,-1
 932 1112 l 1,15,16
 822 1326 822 1326 630 1326 c 0,17,18
 514 1326 514 1326 441 1262 c 128,-1,19
 368 1198 368 1198 368 1098 c 0,20,21
 368 986 368 986 460 918 c 128,-1,22
 552 850 552 850 668 850 c 0,23,24
 768 850 768 850 814 854 c 1,25,-1
 814 676 l 1,26,27
 740 682 740 682 664 682 c 0,28,29
 518 682 518 682 414 610 c 128,-1,30
 310 538 310 538 310 414 c 0,31,32
 310 282 310 282 406 213 c 128,-1,33
 502 144 502 144 638 144 c 0,34,35
 738 144 738 144 834 203 c 128,-1,36
 930 262 930 262 976 346 c 1,37,-1
 1152 282 l 1,38,39
 1090 134 1090 134 951 50 c 128,-1,40
 812 -34 812 -34 628 -34 c 0,41,42
 388 -34 388 -34 238 86 c 128,-1,43
 88 206 88 206 88 412 c 0,0,1
EndSplineSet
EndChar

StartChar: uni0191
Encoding: 401 401 339
Width: 1132
GlyphClass: 2
Flags: W
LayerCount: 2
Fore
SplineSet
-82 -260 m 1,0,1
 -20 -270 -20 -270 20 -270 c 0,2,3
 104 -270 104 -270 141 -213 c 128,-1,4
 178 -156 178 -156 178 -34 c 2,5,-1
 178 1470 l 1,6,-1
 1100 1470 l 1,7,-1
 1100 1284 l 1,8,-1
 394 1284 l 1,9,-1
 394 828 l 1,10,-1
 1028 828 l 1,11,-1
 1028 646 l 1,12,-1
 394 646 l 1,13,-1
 394 -34 l 2,14,15
 394 -152 394 -152 365 -237 c 128,-1,16
 336 -322 336 -322 286 -367 c 128,-1,17
 236 -412 236 -412 181 -433 c 128,-1,18
 126 -454 126 -454 62 -454 c 0,19,20
 16 -454 16 -454 -82 -438 c 1,21,-1
 -82 -260 l 1,0,1
EndSplineSet
EndChar

StartChar: florin
Encoding: 402 402 340
Width: 686
GlyphClass: 2
Flags: W
LayerCount: 2
Fore
SplineSet
-52 -260 m 1,0,1
 10 -270 10 -270 52 -270 c 0,2,3
 216 -270 216 -270 216 -26 c 2,4,-1
 216 892 l 1,5,-1
 44 892 l 1,6,-1
 44 1066 l 1,7,-1
 216 1066 l 1,8,-1
 216 1198 l 2,9,10
 216 1360 216 1360 296 1441 c 128,-1,11
 376 1522 376 1522 522 1522 c 2,12,-1
 682 1522 l 1,13,-1
 682 1346 l 1,14,-1
 552 1346 l 2,15,16
 424 1346 424 1346 424 1180 c 2,17,-1
 424 1066 l 1,18,-1
 656 1066 l 1,19,-1
 656 892 l 1,20,-1
 424 892 l 1,21,-1
 424 -28 l 2,22,23
 424 -254 424 -254 328 -354 c 128,-1,24
 232 -454 232 -454 92 -454 c 0,25,26
 46 -454 46 -454 -52 -438 c 1,27,-1
 -52 -260 l 1,0,1
EndSplineSet
EndChar

StartChar: uni0194
Encoding: 404 404 342
Width: 1252
GlyphClass: 2
Flags: W
LayerCount: 2
Fore
SplineSet
0 1470 m 1,0,-1
 234 1470 l 1,1,-1
 600 434 l 1,2,-1
 626 350 l 1,3,-1
 630 350 l 1,4,-1
 656 434 l 1,5,-1
 1018 1470 l 1,6,-1
 1252 1470 l 1,7,-1
 792 248 l 1,8,9
 968 30 968 30 968 -132 c 0,10,11
 968 -270 968 -270 871 -362 c 128,-1,12
 774 -454 774 -454 626 -454 c 0,13,14
 474 -454 474 -454 378 -366 c 128,-1,15
 282 -278 282 -278 282 -132 c 0,16,17
 282 -64 282 -64 317 16 c 128,-1,18
 352 96 352 96 381 138 c 128,-1,19
 410 180 410 180 464 248 c 1,20,-1
 0 1470 l 1,0,-1
498 -124 m 0,21,22
 498 -192 498 -192 534 -236 c 128,-1,23
 570 -280 570 -280 626 -280 c 0,24,25
 684 -280 684 -280 718 -236 c 128,-1,26
 752 -192 752 -192 752 -124 c 0,27,28
 752 -8 752 -8 624 136 c 1,29,30
 498 0 498 0 498 -124 c 0,21,22
EndSplineSet
EndChar

StartChar: uni0195
Encoding: 405 405 343
Width: 1772
GlyphClass: 2
Flags: W
LayerCount: 2
Fore
SplineSet
150 0 m 1,0,-1
 150 1522 l 1,1,-1
 356 1522 l 1,2,-1
 356 938 l 1,3,-1
 358 938 l 1,4,5
 402 1010 402 1010 481 1056 c 128,-1,6
 560 1102 560 1102 652 1102 c 0,7,8
 706 1102 706 1102 752 1091 c 128,-1,9
 798 1080 798 1080 846 1052 c 128,-1,10
 894 1024 894 1024 928 979 c 128,-1,11
 962 934 962 934 984 860 c 128,-1,12
 1006 786 1006 786 1006 686 c 2,13,-1
 1006 376 l 2,14,15
 1006 144 1006 144 1224 144 c 0,16,17
 1438 144 1438 144 1438 380 c 2,18,-1
 1438 1066 l 1,19,-1
 1648 1066 l 1,20,-1
 1648 348 l 2,21,22
 1648 158 1648 158 1530 62 c 128,-1,23
 1412 -34 1412 -34 1224 -34 c 0,24,25
 1138 -34 1138 -34 1067 -16 c 128,-1,26
 996 2 996 2 933 42 c 128,-1,27
 870 82 870 82 834 157 c 128,-1,28
 798 232 798 232 798 338 c 2,29,-1
 798 658 l 2,30,31
 798 924 798 924 614 924 c 0,32,33
 508 924 508 924 432 834 c 128,-1,34
 356 744 356 744 356 624 c 0,35,36
 356 622 356 622 356 618 c 2,37,-1
 356 0 l 1,38,-1
 150 0 l 1,0,-1
EndSplineSet
EndChar

StartChar: uni0196
Encoding: 406 406 344
Width: 708
GlyphClass: 2
Flags: W
LayerCount: 2
Fore
SplineSet
180 326 m 2,0,-1
 180 1470 l 1,1,-1
 396 1470 l 1,2,-1
 396 334 l 2,3,4
 396 238 396 238 428 195 c 128,-1,5
 460 152 460 152 534 152 c 0,6,7
 606 152 606 152 682 162 c 1,8,-1
 682 -18 l 1,9,10
 534 -34 534 -34 492 -34 c 0,11,12
 354 -34 354 -34 267 51 c 128,-1,13
 180 136 180 136 180 326 c 2,0,-1
EndSplineSet
EndChar

StartChar: uni0197
Encoding: 407 407 345
Width: 570
GlyphClass: 2
Flags: W
LayerCount: 2
Fore
SplineSet
34 656 m 1,0,-1
 34 826 l 1,1,-1
 178 826 l 1,2,-1
 178 1470 l 1,3,-1
 394 1470 l 1,4,-1
 394 826 l 1,5,-1
 538 826 l 1,6,-1
 538 656 l 1,7,-1
 394 656 l 1,8,-1
 394 0 l 1,9,-1
 178 0 l 1,10,-1
 178 656 l 1,11,-1
 34 656 l 1,0,-1
EndSplineSet
EndChar

StartChar: uni0198
Encoding: 408 408 346
Width: 1292
GlyphClass: 2
Flags: W
LayerCount: 2
Fore
SplineSet
178 0 m 1,0,-1
 178 1470 l 1,1,-1
 394 1470 l 1,2,-1
 394 768 l 1,3,-1
 398 768 l 1,4,-1
 918 1372 l 2,5,6
 1034 1504 1034 1504 1216 1504 c 0,7,8
 1312 1504 1312 1504 1384 1484 c 1,9,-1
 1384 1298 l 1,10,11
 1312 1318 1312 1318 1224 1318 c 0,12,13
 1144 1318 1144 1318 1102 1270 c 2,14,-1
 714 830 l 1,15,-1
 1300 0 l 1,16,-1
 1034 0 l 1,17,-1
 576 676 l 1,18,-1
 394 470 l 1,19,-1
 394 0 l 1,20,-1
 178 0 l 1,0,-1
EndSplineSet
EndChar

StartChar: uni0199
Encoding: 409 409 347
Width: 1042
GlyphClass: 2
Flags: W
LayerCount: 2
Fore
SplineSet
152 0 m 1,0,-1
 152 1230 l 2,1,2
 152 1390 152 1390 248 1475 c 128,-1,3
 344 1560 344 1560 504 1560 c 0,4,5
 564 1560 564 1560 674 1554 c 1,6,-1
 674 1370 l 1,7,8
 578 1380 578 1380 542 1380 c 0,9,10
 464 1380 464 1380 411 1328 c 128,-1,11
 358 1276 358 1276 358 1190 c 2,12,-1
 358 606 l 1,13,-1
 764 1066 l 1,14,-1
 1030 1066 l 1,15,-1
 640 636 l 1,16,-1
 1062 0 l 1,17,-1
 814 0 l 1,18,-1
 508 490 l 1,19,-1
 358 326 l 1,20,-1
 358 0 l 1,21,-1
 152 0 l 1,0,-1
EndSplineSet
EndChar

StartChar: uni019A
Encoding: 410 410 348
Width: 524
GlyphClass: 2
Flags: W
LayerCount: 2
Fore
SplineSet
-2 744 m 1,0,-1
 -2 914 l 1,1,-1
 158 914 l 1,2,-1
 158 1522 l 1,3,-1
 368 1522 l 1,4,-1
 368 914 l 1,5,-1
 528 914 l 1,6,-1
 528 744 l 1,7,-1
 368 744 l 1,8,-1
 368 0 l 1,9,-1
 158 0 l 1,10,-1
 158 744 l 1,11,-1
 -2 744 l 1,0,-1
EndSplineSet
EndChar

StartChar: uni019B
Encoding: 411 411 349
Width: 1022
GlyphClass: 2
Flags: W
LayerCount: 2
Fore
SplineSet
14 0 m 1,0,-1
 416 1054 l 1,1,-1
 396 1118 l 1,2,-1
 168 950 l 1,3,-1
 70 1080 l 1,4,-1
 318 1258 l 1,5,6
 268 1338 268 1338 158 1338 c 2,7,-1
 120 1338 l 1,8,-1
 120 1512 l 1,9,-1
 192 1512 l 2,10,11
 374 1512 374 1512 478 1372 c 1,12,-1
 672 1516 l 1,13,-1
 772 1384 l 1,14,-1
 556 1232 l 1,15,-1
 1010 0 l 1,16,-1
 780 0 l 1,17,-1
 598 572 l 2,18,19
 544 744 544 744 522 824 c 1,20,-1
 514 824 l 1,21,22
 492 736 492 736 438 572 c 2,23,-1
 244 0 l 1,24,-1
 14 0 l 1,0,-1
EndSplineSet
EndChar

StartChar: uni019C
Encoding: 412 412 350
Width: 1920
GlyphClass: 2
Flags: W
LayerCount: 2
Fore
SplineSet
176 478 m 2,0,-1
 176 1470 l 1,1,-1
 392 1470 l 1,2,-1
 392 458 l 2,3,4
 392 150 392 150 580 150 c 0,5,6
 696 150 696 150 774 258 c 128,-1,7
 852 366 852 366 852 518 c 2,8,-1
 852 1470 l 1,9,-1
 1068 1470 l 1,10,-1
 1068 450 l 2,11,12
 1068 296 1068 296 1121 224 c 128,-1,13
 1174 152 1174 152 1262 152 c 0,14,15
 1382 152 1382 152 1455 253 c 128,-1,16
 1528 354 1528 354 1528 512 c 2,17,-1
 1528 1470 l 1,18,-1
 1742 1470 l 1,19,-1
 1742 0 l 1,20,-1
 1536 0 l 1,21,-1
 1536 154 l 1,22,-1
 1534 154 l 1,23,24
 1496 74 1496 74 1407 20 c 128,-1,25
 1318 -34 1318 -34 1214 -34 c 0,26,27
 974 -34 974 -34 904 186 c 1,28,29
 868 96 868 96 772 31 c 128,-1,30
 676 -34 676 -34 534 -34 c 0,31,32
 176 -34 176 -34 176 478 c 2,0,-1
EndSplineSet
EndChar

StartChar: uni019D
Encoding: 413 413 351
Width: 1430
GlyphClass: 2
Flags: W
LayerCount: 2
Fore
SplineSet
178 1470 m 1,0,-1
 410 1470 l 1,1,-1
 926 548 l 1,2,-1
 1050 318 l 1,3,-1
 1062 318 l 1,4,5
 1036 540 1036 540 1036 740 c 2,6,-1
 1036 1470 l 1,7,-1
 1254 1470 l 1,8,-1
 1254 0 l 1,9,-1
 1022 0 l 1,10,-1
 506 912 l 1,11,-1
 378 1148 l 1,12,-1
 368 1148 l 1,13,14
 394 940 394 940 394 728 c 2,15,-1
 394 -14 l 2,16,17
 394 -244 394 -244 298 -348 c 128,-1,18
 202 -452 202 -452 56 -452 c 0,19,20
 -4 -452 -4 -452 -74 -438 c 1,21,-1
 -74 -260 l 1,22,23
 -32 -268 -32 -268 16 -268 c 0,24,25
 106 -268 106 -268 142 -205 c 128,-1,26
 178 -142 178 -142 178 -10 c 2,27,-1
 178 1470 l 1,0,-1
EndSplineSet
EndChar

StartChar: uni019E
Encoding: 414 414 352
Width: 1144
GlyphClass: 2
Flags: W
LayerCount: 2
Fore
SplineSet
138 0 m 1,0,-1
 138 1066 l 1,1,-1
 338 1066 l 1,2,-1
 338 920 l 1,3,-1
 340 920 l 1,4,5
 376 994 376 994 456 1048 c 128,-1,6
 536 1102 536 1102 650 1102 c 0,7,8
 806 1102 806 1102 901 1004 c 128,-1,9
 996 906 996 906 996 686 c 2,10,-1
 996 -446 l 1,11,-1
 788 -446 l 1,12,-1
 788 658 l 2,13,14
 788 924 788 924 606 924 c 0,15,16
 498 924 498 924 422 837 c 128,-1,17
 346 750 346 750 346 624 c 2,18,-1
 346 0 l 1,19,-1
 138 0 l 1,0,-1
EndSplineSet
EndChar

StartChar: uni019F
Encoding: 415 415 353
Width: 1420
GlyphClass: 2
Flags: W
LayerCount: 2
Fore
SplineSet
86 734 m 0,0,1
 86 1080 86 1080 257 1292 c 128,-1,2
 428 1504 428 1504 712 1504 c 256,3,4
 996 1504 996 1504 1166 1293 c 128,-1,5
 1336 1082 1336 1082 1336 734 c 0,6,7
 1336 384 1336 384 1165 175 c 128,-1,8
 994 -34 994 -34 712 -34 c 0,9,10
 428 -34 428 -34 257 175 c 128,-1,11
 86 384 86 384 86 734 c 0,0,1
1108 644 m 1,12,-1
 314 644 l 1,13,14
 332 414 332 414 437 283 c 128,-1,15
 542 152 542 152 712 152 c 0,16,17
 880 152 880 152 986 282 c 128,-1,18
 1092 412 1092 412 1108 644 c 1,12,-1
312 814 m 1,19,-1
 1108 814 l 1,20,21
 1094 1046 1094 1046 991 1182 c 128,-1,22
 888 1318 888 1318 712 1318 c 0,23,24
 538 1318 538 1318 433 1184 c 128,-1,25
 328 1050 328 1050 312 814 c 1,19,-1
EndSplineSet
EndChar

StartChar: uni01A2
Encoding: 418 418 356
Width: 1936
GlyphClass: 2
Flags: W
LayerCount: 2
Fore
SplineSet
86 728 m 0,0,1
 86 1084 86 1084 258 1294 c 128,-1,2
 430 1504 430 1504 702 1504 c 0,3,4
 786 1504 786 1504 985 1464 c 128,-1,5
 1184 1424 1184 1424 1312 1424 c 0,6,7
 1512 1424 1512 1424 1762 1470 c 1,8,-1
 1762 0 l 1,9,-1
 1546 0 l 1,10,-1
 1546 1260 l 1,11,12
 1450 1240 1450 1240 1312 1240 c 0,13,14
 1204 1240 1204 1240 1102 1256 c 1,15,-1
 1102 120 l 1,16,17
 938 -34 938 -34 702 -34 c 0,18,19
 428 -34 428 -34 257 176 c 128,-1,20
 86 386 86 386 86 728 c 0,0,1
310 728 m 0,21,22
 310 462 310 462 419 307 c 128,-1,23
 528 152 528 152 702 152 c 0,24,25
 794 152 794 152 886 204 c 1,26,-1
 886 1288 l 1,27,28
 878 1290 878 1290 855 1298 c 128,-1,29
 832 1306 832 1306 823 1308 c 128,-1,30
 814 1310 814 1310 794 1314 c 128,-1,31
 774 1318 774 1318 752 1319 c 128,-1,32
 730 1320 730 1320 702 1320 c 0,33,34
 530 1320 530 1320 420 1163 c 128,-1,35
 310 1006 310 1006 310 728 c 0,21,22
EndSplineSet
EndChar

StartChar: uni01A3
Encoding: 419 419 357
Width: 1550
GlyphClass: 2
Flags: W
LayerCount: 2
Fore
SplineSet
74 532 m 256,0,1
 74 800 74 800 206 951 c 128,-1,2
 338 1102 338 1102 564 1102 c 0,3,4
 648 1102 648 1102 805 1072 c 128,-1,5
 962 1042 962 1042 1058 1042 c 0,6,7
 1238 1042 1238 1042 1414 1076 c 1,8,-1
 1414 0 l 1,9,-1
 1206 0 l 1,10,-1
 1206 874 l 1,11,12
 1136 864 1136 864 1056 864 c 0,13,14
 954 864 954 864 910 872 c 1,15,-1
 910 120 l 1,16,17
 782 -34 782 -34 564 -34 c 0,18,19
 340 -34 340 -34 207 115 c 128,-1,20
 74 264 74 264 74 532 c 256,0,1
286 532 m 0,21,22
 286 350 286 350 362 247 c 128,-1,23
 438 144 438 144 564 144 c 0,24,25
 634 144 634 144 702 218 c 1,26,-1
 702 904 l 1,27,28
 618 924 618 924 564 924 c 0,29,30
 432 924 432 924 359 818 c 128,-1,31
 286 712 286 712 286 532 c 0,21,22
EndSplineSet
EndChar

StartChar: uni01A5
Encoding: 421 421 359
Width: 1170
GlyphClass: 2
Flags: W
LayerCount: 2
Fore
SplineSet
354 534 m 0,0,1
 354 352 354 352 426 248 c 128,-1,2
 498 144 498 144 616 144 c 0,3,4
 736 144 736 144 810 248 c 128,-1,5
 884 352 884 352 884 534 c 0,6,7
 884 710 884 710 812 817 c 128,-1,8
 740 924 740 924 616 924 c 0,9,10
 502 924 502 924 428 817 c 128,-1,11
 354 710 354 710 354 534 c 0,0,1
150 -446 m 1,12,-1
 150 1200 l 2,13,14
 150 1368 150 1368 249 1451 c 128,-1,15
 348 1534 348 1534 496 1534 c 0,16,17
 526 1534 526 1534 664 1524 c 1,18,-1
 664 1344 l 1,19,20
 584 1350 584 1350 534 1350 c 0,21,22
 450 1350 450 1350 402 1297 c 128,-1,23
 354 1244 354 1244 354 1164 c 2,24,-1
 354 916 l 1,25,26
 384 986 384 986 463 1044 c 128,-1,27
 542 1102 542 1102 646 1102 c 0,28,29
 840 1102 840 1102 969 948 c 128,-1,30
 1098 794 1098 794 1098 534 c 0,31,32
 1098 386 1098 386 1056 272 c 128,-1,33
 1014 158 1014 158 947 94 c 128,-1,34
 880 30 880 30 803 -2 c 128,-1,35
 726 -34 726 -34 646 -34 c 0,36,37
 534 -34 534 -34 462 20 c 128,-1,38
 390 74 390 74 358 144 c 1,39,-1
 358 -446 l 1,40,-1
 150 -446 l 1,12,-1
EndSplineSet
EndChar

StartChar: uni01A6
Encoding: 422 422 360
Width: 1282
GlyphClass: 2
Flags: W
LayerCount: 2
Fore
SplineSet
376 624 m 1,0,-1
 680 624 l 2,1,2
 944 624 944 624 944 866 c 0,3,4
 944 1088 944 1088 682 1088 c 2,5,-1
 376 1088 l 1,6,-1
 376 624 l 1,0,-1
158 0 m 1,7,-1
 158 1470 l 1,8,-1
 376 1470 l 1,9,-1
 376 1272 l 1,10,-1
 724 1272 l 2,11,12
 946 1272 946 1272 1057 1161 c 128,-1,13
 1168 1050 1168 1050 1168 884 c 0,14,15
 1168 796 1168 796 1141 729 c 128,-1,16
 1114 662 1114 662 1065 620 c 128,-1,17
 1016 578 1016 578 987 560 c 128,-1,18
 958 542 958 542 912 522 c 1,19,20
 988 474 988 474 1019 419 c 128,-1,21
 1050 364 1050 364 1074 262 c 0,22,23
 1144 -2 1144 -2 1242 -166 c 1,24,-1
 1000 -166 l 1,25,26
 972 -118 972 -118 946 -54 c 128,-1,27
 920 10 920 10 908 43 c 128,-1,28
 896 76 896 76 872 157 c 128,-1,29
 848 238 848 238 844 252 c 0,30,31
 816 352 816 352 775 397 c 128,-1,32
 734 442 734 442 648 442 c 2,33,-1
 376 442 l 1,34,-1
 376 0 l 1,35,-1
 158 0 l 1,7,-1
EndSplineSet
EndChar

StartChar: uni01A7
Encoding: 423 423 361
Width: 1208
GlyphClass: 2
Flags: W
LayerCount: 2
Fore
SplineSet
66 396 m 0,0,1
 66 486 66 486 100 558 c 128,-1,2
 134 630 134 630 199 678 c 128,-1,3
 264 726 264 726 328 756 c 128,-1,4
 392 786 392 786 482 818 c 0,5,6
 696 888 696 888 756 922 c 0,7,8
 884 992 884 992 884 1106 c 0,9,10
 884 1204 884 1204 808 1261 c 128,-1,11
 732 1318 732 1318 602 1318 c 0,12,13
 402 1318 402 1318 272 1142 c 1,14,-1
 88 1206 l 1,15,16
 154 1334 154 1334 286 1419 c 128,-1,17
 418 1504 418 1504 600 1504 c 0,18,19
 826 1504 826 1504 967 1395 c 128,-1,20
 1108 1286 1108 1286 1108 1106 c 0,21,22
 1108 1028 1108 1028 1077 961 c 128,-1,23
 1046 894 1046 894 1013 857 c 128,-1,24
 980 820 980 820 900 778 c 128,-1,25
 820 736 820 736 784 723 c 128,-1,26
 748 710 748 710 646 676 c 0,27,28
 630 670 630 670 620 666 c 0,29,30
 542 640 542 640 494 619 c 128,-1,31
 446 598 446 598 393 565 c 128,-1,32
 340 532 340 532 316 487 c 128,-1,33
 292 442 292 442 292 386 c 0,34,35
 292 280 292 280 374 215 c 128,-1,36
 456 150 456 150 586 150 c 0,37,38
 700 150 700 150 804 211 c 128,-1,39
 908 272 908 272 962 364 c 1,40,-1
 1152 298 l 1,41,42
 1080 148 1080 148 932 57 c 128,-1,43
 784 -34 784 -34 592 -34 c 0,44,45
 360 -34 360 -34 213 79 c 128,-1,46
 66 192 66 192 66 396 c 0,0,1
EndSplineSet
EndChar

StartChar: uni01A8
Encoding: 424 424 362
Width: 980
GlyphClass: 2
Flags: W
LayerCount: 2
Fore
SplineSet
62 282 m 0,0,1
 62 348 62 348 92 401 c 128,-1,2
 122 454 122 454 177 491 c 128,-1,3
 232 528 232 528 282 550 c 128,-1,4
 332 572 332 572 404 594 c 0,5,6
 462 612 462 612 486 620 c 128,-1,7
 510 628 510 628 556 647 c 128,-1,8
 602 666 602 666 622 683 c 128,-1,9
 642 700 642 700 659 727 c 128,-1,10
 676 754 676 754 676 786 c 0,11,12
 676 852 676 852 624 888 c 128,-1,13
 572 924 572 924 480 924 c 0,14,15
 320 924 320 924 212 772 c 1,16,-1
 72 858 l 1,17,18
 128 962 128 962 239 1032 c 128,-1,19
 350 1102 350 1102 486 1102 c 0,20,21
 660 1102 660 1102 774 1017 c 128,-1,22
 888 932 888 932 888 786 c 0,23,24
 888 662 888 662 801 593 c 128,-1,25
 714 524 714 524 570 476 c 0,26,27
 552 472 552 472 510 458 c 128,-1,28
 468 444 468 444 449 438 c 128,-1,29
 430 432 430 432 396 417 c 128,-1,30
 362 402 362 402 346 391 c 128,-1,31
 330 380 330 380 310 363 c 128,-1,32
 290 346 290 346 282 326 c 128,-1,33
 274 306 274 306 274 282 c 0,34,35
 274 218 274 218 329 180 c 128,-1,36
 384 142 384 142 478 142 c 0,37,38
 662 142 662 142 774 306 c 1,39,-1
 926 220 l 1,40,41
 862 106 862 106 746 36 c 128,-1,42
 630 -34 630 -34 478 -34 c 0,43,44
 278 -34 278 -34 170 58 c 128,-1,45
 62 150 62 150 62 282 c 0,0,1
EndSplineSet
EndChar

StartChar: uni01A9
Encoding: 425 425 363
Width: 1236
GlyphClass: 2
Flags: W
LayerCount: 2
Fore
SplineSet
158 0 m 1,0,-1
 158 142 l 1,1,-1
 682 738 l 1,2,-1
 158 1328 l 1,3,-1
 158 1470 l 1,4,-1
 1118 1470 l 1,5,-1
 1118 1282 l 1,6,-1
 460 1282 l 1,7,-1
 928 738 l 1,8,-1
 460 184 l 1,9,-1
 1130 184 l 1,10,-1
 1130 0 l 1,11,-1
 158 0 l 1,0,-1
EndSplineSet
EndChar

StartChar: uni01AA
Encoding: 426 426 364
Width: 882
GlyphClass: 2
Flags: W
LayerCount: 2
Fore
SplineSet
88 1204 m 0,0,1
 88 1140 88 1140 128 1106 c 128,-1,2
 168 1072 168 1072 224 1072 c 0,3,4
 318 1072 318 1072 376 1126 c 1,5,6
 376 1216 376 1216 340 1276 c 128,-1,7
 304 1336 304 1336 228 1336 c 0,8,9
 168 1336 168 1336 128 1298 c 128,-1,10
 88 1260 88 1260 88 1204 c 0,0,1
-112 1194 m 0,11,12
 -112 1336 -112 1336 -16 1420 c 128,-1,13
 80 1504 80 1504 228 1504 c 0,14,15
 400 1504 400 1504 490 1400 c 128,-1,16
 580 1296 580 1296 580 1110 c 2,17,-1
 580 -98 l 2,18,19
 580 -270 580 -270 726 -270 c 0,20,21
 776 -270 776 -270 858 -258 c 1,22,-1
 858 -438 l 1,23,24
 722 -454 722 -454 684 -454 c 0,25,26
 542 -454 542 -454 456 -372 c 128,-1,27
 370 -290 370 -290 370 -112 c 2,28,-1
 370 950 l 1,29,30
 318 902 318 902 192 902 c 0,31,32
 60 902 60 902 -26 984 c 128,-1,33
 -112 1066 -112 1066 -112 1194 c 0,11,12
EndSplineSet
EndChar

StartChar: uni01AB
Encoding: 427 427 365
Width: 728
GlyphClass: 2
Flags: W
LayerCount: 2
Fore
SplineSet
36 892 m 1,0,-1
 36 1066 l 1,1,-1
 208 1066 l 1,2,-1
 208 1390 l 1,3,-1
 414 1390 l 1,4,-1
 414 1066 l 1,5,-1
 670 1066 l 1,6,-1
 670 892 l 1,7,-1
 414 892 l 1,8,-1
 414 332 l 2,9,10
 414 250 414 250 448 214 c 128,-1,11
 482 178 482 178 550 178 c 0,12,13
 642 178 642 178 702 188 c 1,14,-1
 702 -8 l 2,15,16
 702 -228 702 -228 613 -341 c 128,-1,17
 524 -454 524 -454 362 -454 c 0,18,19
 290 -454 290 -454 224 -440 c 1,20,-1
 224 -258 l 1,21,22
 290 -270 290 -270 336 -270 c 0,23,24
 500 -270 500 -270 500 -40 c 2,25,-1
 500 4 l 1,26,27
 448 8 448 8 394 20 c 0,28,29
 208 74 208 74 208 318 c 2,30,-1
 208 892 l 1,31,-1
 36 892 l 1,0,-1
EndSplineSet
EndChar

StartChar: uni01AC
Encoding: 428 428 366
Width: 1212
GlyphClass: 2
Flags: W
LayerCount: 2
Fore
SplineSet
-60 1158 m 0,0,1
 -60 1318 -60 1318 47 1394 c 128,-1,2
 154 1470 154 1470 330 1470 c 2,3,-1
 1194 1470 l 1,4,-1
 1194 1284 l 1,5,-1
 762 1284 l 1,6,-1
 762 0 l 1,7,-1
 546 0 l 1,8,-1
 546 1284 l 1,9,-1
 332 1284 l 2,10,11
 130 1284 130 1284 130 1142 c 0,12,13
 130 1098 130 1098 140 1056 c 1,14,-1
 -50 1056 l 1,15,16
 -60 1098 -60 1098 -60 1158 c 0,0,1
EndSplineSet
EndChar

StartChar: uni01AD
Encoding: 429 429 367
Width: 728
GlyphClass: 2
Flags: W
LayerCount: 2
Fore
SplineSet
36 892 m 1,0,-1
 36 1066 l 1,1,-1
 208 1066 l 1,2,-1
 208 1196 l 2,3,4
 208 1356 208 1356 305 1442 c 128,-1,5
 402 1528 402 1528 558 1528 c 0,6,7
 590 1528 590 1528 728 1520 c 1,8,-1
 728 1338 l 1,9,10
 652 1346 652 1346 596 1346 c 0,11,12
 512 1346 512 1346 463 1298 c 128,-1,13
 414 1250 414 1250 414 1170 c 2,14,-1
 414 1066 l 1,15,-1
 670 1066 l 1,16,-1
 670 892 l 1,17,-1
 414 892 l 1,18,-1
 414 332 l 2,19,20
 414 250 414 250 448 214 c 128,-1,21
 482 178 482 178 550 178 c 2,22,-1
 672 178 l 1,23,-1
 672 0 l 1,24,-1
 524 0 l 2,25,26
 208 0 208 0 208 318 c 2,27,-1
 208 892 l 1,28,-1
 36 892 l 1,0,-1
EndSplineSet
EndChar

StartChar: uni01AE
Encoding: 430 430 368
Width: 1118
GlyphClass: 2
Flags: W
LayerCount: 2
Fore
SplineSet
22 1284 m 1,0,-1
 22 1470 l 1,1,-1
 1102 1470 l 1,2,-1
 1102 1284 l 1,3,-1
 670 1284 l 1,4,-1
 670 -54 l 2,5,6
 670 -168 670 -168 707 -219 c 128,-1,7
 744 -270 744 -270 824 -270 c 0,8,9
 864 -270 864 -270 926 -260 c 1,10,-1
 926 -438 l 1,11,12
 834 -454 834 -454 784 -454 c 0,13,14
 718 -454 718 -454 665 -436 c 128,-1,15
 612 -418 612 -418 561 -375 c 128,-1,16
 510 -332 510 -332 482 -251 c 128,-1,17
 454 -170 454 -170 454 -54 c 2,18,-1
 454 1284 l 1,19,-1
 22 1284 l 1,0,-1
EndSplineSet
EndChar

StartChar: uni01B1
Encoding: 433 433 371
Width: 1478
GlyphClass: 2
Flags: W
LayerCount: 2
Fore
SplineSet
86 612 m 0,0,1
 86 824 86 824 193 971 c 128,-1,2
 300 1118 300 1118 490 1190 c 1,3,-1
 490 1284 l 1,4,-1
 108 1284 l 1,5,-1
 108 1470 l 1,6,-1
 654 1470 l 1,7,-1
 654 1070 l 1,8,9
 484 1024 484 1024 398 899 c 128,-1,10
 312 774 312 774 312 612 c 0,11,12
 312 418 312 418 429 287 c 128,-1,13
 546 156 546 156 740 156 c 0,14,15
 930 156 930 156 1048 286 c 128,-1,16
 1166 416 1166 416 1166 612 c 0,17,18
 1166 770 1166 770 1081 896 c 128,-1,19
 996 1022 996 1022 824 1070 c 1,20,-1
 824 1470 l 1,21,-1
 1370 1470 l 1,22,-1
 1370 1284 l 1,23,-1
 988 1284 l 1,24,-1
 988 1190 l 1,25,26
 1174 1122 1174 1122 1283 973 c 128,-1,27
 1392 824 1392 824 1392 612 c 0,28,29
 1392 332 1392 332 1218 149 c 128,-1,30
 1044 -34 1044 -34 740 -34 c 0,31,32
 438 -34 438 -34 262 149 c 128,-1,33
 86 332 86 332 86 612 c 0,0,1
EndSplineSet
EndChar

StartChar: uni01B2
Encoding: 434 434 372
Width: 1434
GlyphClass: 2
Flags: W
LayerCount: 2
Fore
SplineSet
174 508 m 2,0,-1
 174 1470 l 1,1,-1
 392 1470 l 1,2,-1
 392 528 l 2,3,4
 392 318 392 318 464 235 c 128,-1,5
 536 152 536 152 678 152 c 0,6,7
 858 152 858 152 990 344 c 128,-1,8
 1122 536 1122 536 1122 832 c 0,9,10
 1122 1070 1122 1070 1059 1194 c 128,-1,11
 996 1318 996 1318 886 1318 c 0,12,13
 814 1318 814 1318 736 1296 c 1,14,-1
 736 1486 l 1,15,16
 842 1504 842 1504 916 1504 c 0,17,18
 1120 1504 1120 1504 1233 1334 c 128,-1,19
 1346 1164 1346 1164 1346 836 c 0,20,21
 1346 602 1346 602 1268 406 c 128,-1,22
 1190 210 1190 210 1035 88 c 128,-1,23
 880 -34 880 -34 678 -34 c 0,24,25
 420 -34 420 -34 297 98 c 128,-1,26
 174 230 174 230 174 508 c 2,0,-1
EndSplineSet
EndChar

StartChar: uni01B3
Encoding: 435 435 373
Width: 1232
GlyphClass: 2
Flags: W
LayerCount: 2
Fore
SplineSet
-6 1470 m 1,0,-1
 244 1470 l 1,1,-1
 492 1004 l 2,2,3
 554 892 554 892 612 774 c 1,4,-1
 620 774 l 1,5,6
 654 842 654 842 744 1006 c 2,7,-1
 902 1308 l 2,8,9
 1006 1504 1006 1504 1180 1504 c 0,10,11
 1248 1504 1248 1504 1302 1496 c 1,12,-1
 1302 1312 l 1,13,14
 1264 1320 1264 1320 1206 1320 c 256,15,16
 1148 1320 1148 1320 1076 1194 c 2,17,-1
 724 600 l 1,18,-1
 724 0 l 1,19,-1
 508 0 l 1,20,-1
 508 600 l 1,21,-1
 -6 1470 l 1,0,-1
EndSplineSet
EndChar

StartChar: uni01B4
Encoding: 436 436 374
Width: 1020
GlyphClass: 2
Flags: W
LayerCount: 2
Fore
SplineSet
14 1066 m 1,0,-1
 246 1066 l 1,1,-1
 438 494 l 2,2,3
 484 350 484 350 516 240 c 1,4,-1
 524 240 l 1,5,6
 540 298 540 298 600 494 c 2,7,-1
 736 924 l 2,8,9
 788 1092 788 1092 996 1092 c 0,10,11
 1040 1092 1040 1092 1124 1078 c 1,12,-1
 1124 892 l 1,13,14
 1064 908 1064 908 1034 908 c 0,15,16
 950 908 950 908 924 832 c 2,17,-1
 570 -134 l 2,18,19
 508 -302 508 -302 420 -374 c 128,-1,20
 332 -446 332 -446 202 -446 c 2,21,-1
 126 -446 l 1,22,-1
 126 -270 l 1,23,-1
 166 -270 l 2,24,25
 248 -270 248 -270 302 -226 c 128,-1,26
 356 -182 356 -182 390 -72 c 2,27,-1
 418 14 l 1,28,-1
 14 1066 l 1,0,-1
EndSplineSet
EndChar

StartChar: uni01B5
Encoding: 437 437 375
Width: 1208
GlyphClass: 2
Flags: W
LayerCount: 2
Fore
SplineSet
188 642 m 1,0,-1
 188 812 l 1,1,-1
 528 812 l 1,2,-1
 856 1284 l 1,3,-1
 134 1284 l 1,4,-1
 134 1470 l 1,5,-1
 1124 1470 l 1,6,-1
 1124 1310 l 1,7,-1
 778 812 l 1,8,-1
 998 812 l 1,9,-1
 998 642 l 1,10,-1
 654 642 l 1,11,-1
 338 184 l 1,12,-1
 1144 184 l 1,13,-1
 1144 0 l 1,14,-1
 72 0 l 1,15,-1
 72 158 l 1,16,-1
 406 642 l 1,17,-1
 188 642 l 1,0,-1
EndSplineSet
EndChar

StartChar: uni01B6
Encoding: 438 438 376
Width: 968
GlyphClass: 2
Flags: W
LayerCount: 2
Fore
SplineSet
52 0 m 1,0,-1
 52 138 l 1,1,-1
 298 458 l 1,2,-1
 128 458 l 1,3,-1
 128 628 l 1,4,-1
 428 628 l 1,5,-1
 626 892 l 1,6,-1
 100 892 l 1,7,-1
 100 1066 l 1,8,-1
 896 1066 l 1,9,-1
 896 936 l 1,10,-1
 664 628 l 1,11,-1
 834 628 l 1,12,-1
 834 458 l 1,13,-1
 532 458 l 1,14,-1
 320 176 l 1,15,-1
 918 176 l 1,16,-1
 918 0 l 1,17,-1
 52 0 l 1,0,-1
EndSplineSet
EndChar

StartChar: uni01B7
Encoding: 439 439 377
Width: 1388
GlyphClass: 2
Flags: W
LayerCount: 2
Fore
SplineSet
94 -44 m 1,0,-1
 282 28 l 1,1,2
 324 -90 324 -90 422 -174 c 128,-1,3
 520 -258 520 -258 668 -258 c 0,4,5
 854 -258 854 -258 962 -139 c 128,-1,6
 1070 -20 1070 -20 1070 172 c 0,7,8
 1070 366 1070 366 947 480 c 128,-1,9
 824 594 824 594 600 594 c 2,10,-1
 416 594 l 1,11,-1
 416 764 l 1,12,-1
 874 1284 l 1,13,-1
 156 1284 l 1,14,-1
 156 1470 l 1,15,-1
 1202 1470 l 1,16,-1
 1202 1346 l 1,17,-1
 686 772 l 1,18,-1
 720 770 l 1,19,20
 984 744 984 744 1139 586 c 128,-1,21
 1294 428 1294 428 1294 172 c 0,22,23
 1294 -102 1294 -102 1121 -271 c 128,-1,24
 948 -440 948 -440 674 -440 c 0,25,26
 444 -440 444 -440 300 -325 c 128,-1,27
 156 -210 156 -210 94 -44 c 1,0,-1
EndSplineSet
EndChar

StartChar: uni01B8
Encoding: 440 440 378
Width: 1388
GlyphClass: 2
Flags: W
LayerCount: 2
Fore
SplineSet
94 172 m 0,0,1
 94 426 94 426 256 589 c 128,-1,2
 418 752 418 752 668 770 c 2,3,-1
 702 772 l 1,4,-1
 188 1346 l 1,5,-1
 188 1470 l 1,6,-1
 1234 1470 l 1,7,-1
 1234 1284 l 1,8,-1
 514 1284 l 1,9,-1
 974 764 l 1,10,-1
 974 594 l 1,11,-1
 790 594 l 2,12,13
 566 594 566 594 442 480 c 128,-1,14
 318 366 318 366 318 172 c 0,15,16
 318 -20 318 -20 427 -139 c 128,-1,17
 536 -258 536 -258 720 -258 c 0,18,19
 868 -258 868 -258 967 -174 c 128,-1,20
 1066 -90 1066 -90 1106 28 c 1,21,-1
 1294 -44 l 1,22,23
 1234 -212 1234 -212 1090 -326 c 128,-1,24
 946 -440 946 -440 716 -440 c 0,25,26
 442 -440 442 -440 268 -271 c 128,-1,27
 94 -102 94 -102 94 172 c 0,0,1
EndSplineSet
EndChar

StartChar: uni01B9
Encoding: 441 441 379
Width: 1136
GlyphClass: 2
Flags: W
LayerCount: 2
Fore
SplineSet
86 38 m 0,0,1
 86 228 86 228 211 363 c 128,-1,2
 336 498 336 498 528 508 c 1,3,-1
 564 508 l 1,4,-1
 148 936 l 1,5,-1
 148 1066 l 1,6,-1
 998 1066 l 1,7,-1
 998 892 l 1,8,-1
 454 892 l 1,9,-1
 822 496 l 1,10,-1
 822 354 l 1,11,-1
 644 354 l 2,12,13
 476 354 476 354 387 266 c 128,-1,14
 298 178 298 178 298 38 c 0,15,16
 298 -96 298 -96 377 -186 c 128,-1,17
 456 -276 456 -276 588 -276 c 0,18,19
 696 -276 696 -276 769 -211 c 128,-1,20
 842 -146 842 -146 876 -48 c 1,21,-1
 1060 -98 l 1,22,23
 1012 -254 1012 -254 890 -354 c 128,-1,24
 768 -454 768 -454 582 -454 c 0,25,26
 362 -454 362 -454 224 -314 c 128,-1,27
 86 -174 86 -174 86 38 c 0,0,1
EndSplineSet
EndChar

StartChar: uni01BA
Encoding: 442 442 380
Width: 898
GlyphClass: 2
Flags: W
LayerCount: 2
Fore
SplineSet
80 -126 m 0,0,1
 80 -52 80 -52 132 11 c 128,-1,2
 184 74 184 74 257 117 c 128,-1,3
 330 160 330 160 403 199 c 128,-1,4
 476 238 476 238 528 281 c 128,-1,5
 580 324 580 324 580 368 c 0,6,7
 580 420 580 420 510 454 c 128,-1,8
 440 488 440 488 314 488 c 2,9,-1
 244 488 l 1,10,-1
 244 600 l 1,11,-1
 550 892 l 1,12,-1
 86 892 l 1,13,-1
 86 1066 l 1,14,-1
 820 1066 l 1,15,-1
 820 928 l 1,16,-1
 474 608 l 1,17,-1
 516 606 l 2,18,19
 640 600 640 600 716 543 c 128,-1,20
 792 486 792 486 792 378 c 0,21,22
 792 302 792 302 741 238 c 128,-1,23
 690 174 690 174 616 131 c 128,-1,24
 542 88 542 88 469 49 c 128,-1,25
 396 10 396 10 345 -31 c 128,-1,26
 294 -72 294 -72 294 -114 c 0,27,28
 294 -220 294 -220 444 -220 c 0,29,30
 508 -220 508 -220 654 -192 c 1,31,-1
 654 -372 l 1,32,33
 526 -396 526 -396 412 -396 c 0,34,35
 262 -396 262 -396 171 -326 c 128,-1,36
 80 -256 80 -256 80 -126 c 0,0,1
EndSplineSet
EndChar

StartChar: uni01BB
Encoding: 443 443 381
Width: 1106
GlyphClass: 2
Flags: W
LayerCount: 2
Fore
SplineSet
202 624 m 1,0,-1
 202 796 l 1,1,-1
 634 796 l 1,2,3
 766 938 766 938 766 1092 c 0,4,5
 766 1206 766 1206 702 1266 c 128,-1,6
 638 1326 638 1326 542 1326 c 0,7,8
 346 1324 346 1324 270 1064 c 1,9,-1
 88 1118 l 1,10,11
 126 1290 126 1290 242 1397 c 128,-1,12
 358 1504 358 1504 548 1504 c 0,13,14
 744 1504 744 1504 867 1390 c 128,-1,15
 990 1276 990 1276 990 1082 c 0,16,17
 990 940 990 940 886 796 c 1,18,-1
 1052 796 l 1,19,-1
 1052 624 l 1,20,-1
 740 624 l 1,21,22
 724 610 724 610 663 551 c 128,-1,23
 602 492 602 492 585 474 c 128,-1,24
 568 456 568 456 522 408 c 128,-1,25
 476 360 476 360 457 331 c 128,-1,26
 438 302 438 302 410 261 c 128,-1,27
 382 220 382 220 364 178 c 1,28,-1
 984 178 l 1,29,-1
 984 0 l 1,30,-1
 102 0 l 1,31,32
 102 156 102 156 197 303 c 128,-1,33
 292 450 292 450 464 624 c 1,34,-1
 202 624 l 1,0,-1
EndSplineSet
EndChar

StartChar: uni01BC
Encoding: 444 444 382
Width: 1160
GlyphClass: 2
Flags: W
LayerCount: 2
Fore
SplineSet
90 262 m 1,0,-1
 266 324 l 1,1,2
 348 144 348 144 550 144 c 0,3,4
 680 144 680 144 756 225 c 128,-1,5
 832 306 832 306 832 442 c 0,6,7
 832 566 832 566 742 655 c 128,-1,8
 652 744 652 744 474 744 c 0,9,10
 360 744 360 744 228 716 c 1,11,-1
 298 1286 l 1,12,-1
 204 1286 l 1,13,-1
 204 1470 l 1,14,-1
 982 1470 l 1,15,-1
 982 1284 l 1,16,-1
 500 1284 l 1,17,-1
 456 918 l 1,18,19
 478 922 478 922 558 922 c 0,20,21
 784 922 784 922 921 788 c 128,-1,22
 1058 654 1058 654 1058 446 c 0,23,24
 1058 246 1058 246 928 106 c 128,-1,25
 798 -34 798 -34 560 -34 c 0,26,27
 384 -34 384 -34 263 50 c 128,-1,28
 142 134 142 134 90 262 c 1,0,-1
EndSplineSet
EndChar

StartChar: uni01BD
Encoding: 445 445 383
Width: 952
GlyphClass: 2
Flags: W
LayerCount: 2
Fore
SplineSet
88 202 m 1,0,-1
 254 276 l 1,1,2
 282 216 282 216 335 179 c 128,-1,3
 388 142 388 142 448 142 c 0,4,5
 540 142 540 142 592 192 c 128,-1,6
 644 242 644 242 644 324 c 0,7,8
 644 402 644 402 577 462 c 128,-1,9
 510 522 510 522 400 522 c 0,10,11
 316 522 316 522 192 504 c 1,12,-1
 254 892 l 1,13,-1
 180 892 l 1,14,-1
 180 1066 l 1,15,-1
 786 1066 l 1,16,-1
 786 892 l 1,17,-1
 434 892 l 1,18,-1
 402 698 l 1,19,-1
 452 698 l 2,20,21
 634 698 634 698 745 593 c 128,-1,22
 856 488 856 488 856 332 c 0,23,24
 856 180 856 180 754 73 c 128,-1,25
 652 -34 652 -34 450 -34 c 0,26,27
 202 -34 202 -34 88 202 c 1,0,-1
EndSplineSet
EndChar

StartChar: uni01BE
Encoding: 446 446 384
Width: 882
GlyphClass: 2
Flags: W
LayerCount: 2
Fore
SplineSet
52 892 m 1,0,-1
 52 1066 l 1,1,-1
 206 1066 l 1,2,-1
 206 1384 l 1,3,-1
 412 1384 l 1,4,-1
 412 1066 l 1,5,-1
 656 1066 l 1,6,-1
 656 892 l 1,7,-1
 412 892 l 1,8,-1
 412 802 l 2,9,10
 412 736 412 736 452 685 c 128,-1,11
 492 634 492 634 549 600 c 128,-1,12
 606 566 606 566 661 528 c 128,-1,13
 716 490 716 490 756 428 c 128,-1,14
 796 366 796 366 796 282 c 0,15,16
 796 150 796 150 709 58 c 128,-1,17
 622 -34 622 -34 436 -34 c 0,18,19
 192 -34 192 -34 68 190 c 1,20,-1
 218 270 l 1,21,22
 306 144 306 144 428 144 c 0,23,24
 504 144 504 144 546 180 c 128,-1,25
 588 216 588 216 588 276 c 0,26,27
 588 326 588 326 548 364 c 128,-1,28
 508 402 508 402 453 435 c 128,-1,29
 398 468 398 468 342 507 c 128,-1,30
 286 546 286 546 246 616 c 128,-1,31
 206 686 206 686 206 782 c 2,32,-1
 206 892 l 1,33,-1
 52 892 l 1,0,-1
EndSplineSet
EndChar

StartChar: uni01BF
Encoding: 447 447 385
Width: 1152
GlyphClass: 2
Flags: W
LayerCount: 2
Fore
SplineSet
150 -446 m 1,0,-1
 150 1066 l 1,1,-1
 352 1066 l 1,2,-1
 352 980 l 1,3,4
 476 1102 476 1102 656 1102 c 0,5,6
 858 1102 858 1102 969 983 c 128,-1,7
 1080 864 1080 864 1080 672 c 0,8,9
 1080 114 1080 114 358 4 c 1,10,-1
 358 -446 l 1,11,-1
 150 -446 l 1,0,-1
358 174 m 1,12,13
 582 206 582 206 726 327 c 128,-1,14
 870 448 870 448 870 646 c 0,15,16
 870 786 870 786 803 855 c 128,-1,17
 736 924 736 924 630 924 c 0,18,19
 546 924 546 924 472 881 c 128,-1,20
 398 838 398 838 358 778 c 1,21,-1
 358 174 l 1,12,13
EndSplineSet
EndChar

StartChar: uni01C0
Encoding: 448 448 386
Width: 500
GlyphClass: 2
Flags: W
LayerCount: 2
Fore
SplineSet
156 -412 m 1,0,-1
 156 1630 l 1,1,-1
 346 1630 l 1,2,-1
 346 -412 l 1,3,-1
 156 -412 l 1,0,-1
EndSplineSet
EndChar

StartChar: uni01C1
Encoding: 449 449 387
Width: 868
GlyphClass: 2
Flags: W
LayerCount: 2
Fore
SplineSet
156 -412 m 1,0,-1
 156 1630 l 1,1,-1
 346 1630 l 1,2,-1
 346 -412 l 1,3,-1
 156 -412 l 1,0,-1
526 -412 m 1,4,-1
 526 1630 l 1,5,-1
 716 1630 l 1,6,-1
 716 -412 l 1,7,-1
 526 -412 l 1,4,-1
EndSplineSet
EndChar

StartChar: uni01C2
Encoding: 450 450 388
Width: 682
GlyphClass: 2
Flags: W
LayerCount: 2
Fore
SplineSet
34 828 m 1,0,-1
 34 974 l 1,1,-1
 250 974 l 1,2,-1
 250 1630 l 1,3,-1
 440 1630 l 1,4,-1
 440 974 l 1,5,-1
 650 974 l 1,6,-1
 650 828 l 1,7,-1
 440 828 l 1,8,-1
 440 546 l 1,9,-1
 650 546 l 1,10,-1
 650 402 l 1,11,-1
 440 402 l 1,12,-1
 440 -412 l 1,13,-1
 250 -412 l 1,14,-1
 250 402 l 1,15,-1
 34 402 l 1,16,-1
 34 546 l 1,17,-1
 250 546 l 1,18,-1
 250 828 l 1,19,-1
 34 828 l 1,0,-1
EndSplineSet
EndChar

StartChar: uni01DD
Encoding: 477 477 415
Width: 1112
GlyphClass: 2
Flags: W
LayerCount: 2
Fore
SplineSet
70 514 m 0,0,1
 70 546 70 546 74 604 c 1,2,-1
 830 604 l 1,3,4
 830 738 830 738 752 834 c 128,-1,5
 674 930 674 930 536 930 c 0,6,7
 438 930 438 930 369 884 c 128,-1,8
 300 838 300 838 264 768 c 1,9,-1
 90 826 l 1,10,11
 142 944 142 944 255 1023 c 128,-1,12
 368 1102 368 1102 542 1102 c 0,13,14
 766 1102 766 1102 903 943 c 128,-1,15
 1040 784 1040 784 1040 526 c 0,16,17
 1040 270 1040 270 902 118 c 128,-1,18
 764 -34 764 -34 550 -34 c 0,19,20
 338 -34 338 -34 204 118 c 128,-1,21
 70 270 70 270 70 514 c 0,0,1
280 454 m 1,22,23
 280 322 280 322 353 228 c 128,-1,24
 426 134 426 134 550 134 c 256,25,26
 674 134 674 134 749 227 c 128,-1,27
 824 320 824 320 830 454 c 1,28,-1
 280 454 l 1,22,23
EndSplineSet
EndChar

StartChar: uni01E4
Encoding: 484 484 422
Width: 1448
GlyphClass: 2
Flags: W
LayerCount: 2
Fore
SplineSet
86 736 m 0,0,1
 86 1066 86 1066 260 1285 c 128,-1,2
 434 1504 434 1504 746 1504 c 0,3,4
 850 1504 850 1504 941 1470 c 128,-1,5
 1032 1436 1032 1436 1094 1381 c 128,-1,6
 1156 1326 1156 1326 1197 1273 c 128,-1,7
 1238 1220 1238 1220 1262 1166 c 1,8,-1
 1074 1104 l 1,9,10
 1042 1152 1042 1152 1025 1174 c 128,-1,11
 1008 1196 1008 1196 965 1237 c 128,-1,12
 922 1278 922 1278 868 1298 c 128,-1,13
 814 1318 814 1318 746 1318 c 0,14,15
 542 1318 542 1318 425 1160 c 128,-1,16
 308 1002 308 1002 308 736 c 256,17,18
 308 470 308 470 425 311 c 128,-1,19
 542 152 542 152 730 152 c 0,20,21
 836 152 836 152 920 203 c 128,-1,22
 1004 254 1004 254 1048 348 c 1,23,-1
 682 348 l 1,24,-1
 682 486 l 1,25,-1
 1092 486 l 1,26,27
 1098 524 1098 524 1098 554 c 2,28,-1
 1098 632 l 1,29,-1
 716 632 l 1,30,-1
 716 812 l 1,31,-1
 1308 812 l 1,32,-1
 1308 486 l 1,33,-1
 1432 486 l 1,34,-1
 1432 348 l 1,35,-1
 1308 348 l 1,36,-1
 1308 0 l 1,37,-1
 1154 0 l 1,38,-1
 1136 172 l 1,39,40
 1018 -34 1018 -34 728 -34 c 0,41,42
 446 -34 446 -34 266 173 c 128,-1,43
 86 380 86 380 86 736 c 0,0,1
EndSplineSet
EndChar

StartChar: uni01E5
Encoding: 485 485 423
Width: 1148
GlyphClass: 2
Flags: W
LayerCount: 2
Fore
SplineSet
78 576 m 0,0,1
 78 808 78 808 202 955 c 128,-1,2
 326 1102 326 1102 520 1102 c 0,3,4
 626 1102 626 1102 698 1048 c 128,-1,5
 770 994 770 994 796 928 c 1,6,-1
 796 1066 l 1,7,-1
 1002 1066 l 1,8,-1
 1002 178 l 2,9,10
 1002 52 1002 52 994 -16 c 1,11,-1
 1130 -16 l 1,12,-1
 1130 -144 l 1,13,-1
 968 -144 l 1,14,15
 922 -298 922 -298 819 -376 c 128,-1,16
 716 -454 716 -454 532 -454 c 0,17,18
 268 -454 268 -454 122 -252 c 1,19,-1
 262 -156 l 1,20,21
 368 -286 368 -286 536 -286 c 0,22,23
 684 -286 684 -286 754 -144 c 1,24,-1
 402 -144 l 1,25,-1
 402 -16 l 1,26,-1
 786 -16 l 1,27,28
 796 32 796 32 796 126 c 2,29,-1
 796 234 l 1,30,31
 760 164 760 164 686 119 c 128,-1,32
 612 74 612 74 520 74 c 0,33,34
 328 74 328 74 203 210 c 128,-1,35
 78 346 78 346 78 576 c 0,0,1
290 576 m 0,36,37
 290 422 290 422 363 336 c 128,-1,38
 436 250 436 250 540 250 c 0,39,40
 648 250 648 250 720 342 c 128,-1,41
 792 434 792 434 792 590 c 0,42,43
 792 744 792 744 722 834 c 128,-1,44
 652 924 652 924 544 924 c 0,45,46
 432 924 432 924 361 826 c 128,-1,47
 290 728 290 728 290 576 c 0,36,37
EndSplineSet
EndChar

StartChar: uni01EF
Encoding: 495 495 433
Width: 1136
GlyphClass: 2
Flags: W
LayerCount: 2
Fore
SplineSet
160 1574 m 1,0,-1
 368 1574 l 1,1,-1
 558 1362 l 1,2,-1
 750 1574 l 1,3,-1
 956 1574 l 1,4,-1
 646 1250 l 1,5,-1
 466 1250 l 1,6,-1
 160 1574 l 1,0,-1
80 -98 m 1,7,-1
 262 -48 l 1,8,9
 298 -146 298 -146 370 -211 c 128,-1,10
 442 -276 442 -276 550 -276 c 0,11,12
 682 -276 682 -276 761 -186 c 128,-1,13
 840 -96 840 -96 840 44 c 0,14,15
 840 180 840 180 751 267 c 128,-1,16
 662 354 662 354 496 354 c 2,17,-1
 316 354 l 1,18,-1
 316 496 l 1,19,-1
 684 892 l 1,20,-1
 140 892 l 1,21,-1
 140 1066 l 1,22,-1
 992 1066 l 1,23,-1
 992 936 l 1,24,-1
 576 508 l 1,25,-1
 664 498 l 1,26,27
 832 468 832 468 944 343 c 128,-1,28
 1056 218 1056 218 1056 44 c 0,29,30
 1056 -174 1056 -174 919 -314 c 128,-1,31
 782 -454 782 -454 558 -454 c 0,32,33
 372 -454 372 -454 249 -354 c 128,-1,34
 126 -254 126 -254 80 -98 c 1,7,-1
EndSplineSet
EndChar

StartChar: uni01F6
Encoding: 502 502 440
Width: 2010
GlyphClass: 2
Flags: W
LayerCount: 2
Fore
SplineSet
178 0 m 1,0,-1
 178 1470 l 1,1,-1
 394 1470 l 1,2,-1
 394 848 l 1,3,-1
 1012 848 l 1,4,-1
 1012 1470 l 1,5,-1
 1230 1470 l 1,6,-1
 1230 400 l 2,7,8
 1230 268 1230 268 1291 206 c 128,-1,9
 1352 144 1352 144 1454 144 c 0,10,11
 1548 144 1548 144 1609 209 c 128,-1,12
 1670 274 1670 274 1670 380 c 2,13,-1
 1670 1066 l 1,14,-1
 1884 1066 l 1,15,-1
 1884 356 l 2,16,17
 1884 164 1884 164 1760 65 c 128,-1,18
 1636 -34 1636 -34 1454 -34 c 0,19,20
 1268 -34 1268 -34 1140 59 c 128,-1,21
 1012 152 1012 152 1012 356 c 2,22,-1
 1012 664 l 1,23,-1
 394 664 l 1,24,-1
 394 0 l 1,25,-1
 178 0 l 1,0,-1
EndSplineSet
EndChar

StartChar: uni01F7
Encoding: 503 503 441
Width: 1290
GlyphClass: 2
Flags: W
LayerCount: 2
Fore
SplineSet
178 -434 m 1,0,-1
 178 1470 l 1,1,-1
 396 1470 l 1,2,-1
 396 1328 l 1,3,4
 576 1504 576 1504 778 1504 c 0,5,6
 992 1504 992 1504 1100 1367 c 128,-1,7
 1208 1230 1208 1230 1208 986 c 0,8,9
 1208 840 1208 840 1155 703 c 128,-1,10
 1102 566 1102 566 1019 462 c 128,-1,11
 936 358 936 358 824 265 c 128,-1,12
 712 172 712 172 608 111 c 128,-1,13
 504 50 504 50 396 2 c 1,14,-1
 396 -434 l 1,15,-1
 178 -434 l 1,0,-1
396 210 m 1,16,17
 496 262 496 262 590 332 c 128,-1,18
 684 402 684 402 778 498 c 128,-1,19
 872 594 872 594 930 719 c 128,-1,20
 988 844 988 844 988 976 c 0,21,22
 988 1138 988 1138 922 1229 c 128,-1,23
 856 1320 856 1320 732 1320 c 0,24,25
 644 1320 644 1320 551 1259 c 128,-1,26
 458 1198 458 1198 396 1114 c 1,27,-1
 396 210 l 1,16,17
EndSplineSet
EndChar

StartChar: Aringacute
Encoding: 506 506 444
Width: 1302
GlyphClass: 2
Flags: W
LayerCount: 2
Fore
SplineSet
-8 0 m 1,0,-1
 530 1470 l 1,1,-1
 556 1470 l 1,2,3
 498 1488 498 1488 452 1534 c 0,4,5
 368 1610 368 1610 368 1722 c 0,6,7
 368 1830 368 1830 448 1908 c 0,8,9
 498 1958 498 1958 568 1974 c 1,10,-1
 726 2220 l 1,11,-1
 982 2220 l 1,12,-1
 752 1968 l 1,13,14
 810 1950 810 1950 854 1908 c 0,15,16
 932 1830 932 1830 932 1722 c 0,17,18
 932 1610 932 1610 850 1534 c 0,19,20
 802 1488 802 1488 744 1470 c 1,21,-1
 774 1470 l 1,22,-1
 1312 0 l 1,23,-1
 1078 0 l 1,24,-1
 948 384 l 1,25,-1
 356 384 l 1,26,-1
 226 0 l 1,27,-1
 -8 0 l 1,0,-1
412 558 m 1,28,-1
 890 558 l 1,29,-1
 750 974 l 2,30,31
 738 1008 738 1008 705 1111 c 128,-1,32
 672 1214 672 1214 656 1264 c 1,33,-1
 646 1264 l 1,34,35
 622 1190 622 1190 554 974 c 2,36,-1
 412 558 l 1,28,-1
512 1722 m 0,37,38
 512 1664 512 1664 551 1626 c 128,-1,39
 590 1588 590 1588 648 1588 c 256,40,41
 706 1588 706 1588 746 1625 c 128,-1,42
 786 1662 786 1662 786 1722 c 0,43,44
 786 1778 786 1778 748 1816 c 128,-1,45
 710 1854 710 1854 648 1854 c 0,46,47
 588 1854 588 1854 550 1815 c 128,-1,48
 512 1776 512 1776 512 1722 c 0,37,38
EndSplineSet
EndChar

StartChar: aringacute
Encoding: 507 507 445
Width: 1098
GlyphClass: 2
Flags: W
LayerCount: 2
Fore
SplineSet
70 274 m 0,0,1
 70 574 70 574 522 644 c 0,2,3
 710 672 710 672 766 690 c 1,4,-1
 766 750 l 2,5,6
 766 834 766 834 705 884 c 128,-1,7
 644 934 644 934 540 934 c 0,8,9
 356 934 356 934 228 786 c 1,10,-1
 98 894 l 1,11,12
 180 992 180 992 294 1047 c 128,-1,13
 408 1102 408 1102 536 1102 c 0,14,15
 974 1102 974 1102 974 670 c 2,16,-1
 974 0 l 1,17,-1
 772 0 l 1,18,-1
 772 148 l 1,19,20
 740 74 740 74 651 20 c 128,-1,21
 562 -34 562 -34 444 -34 c 0,22,23
 270 -34 270 -34 170 52 c 128,-1,24
 70 138 70 138 70 274 c 0,0,1
262 1456 m 0,25,26
 262 1564 262 1564 342 1642 c 0,27,28
 394 1694 394 1694 466 1712 c 1,29,-1
 622 1956 l 1,30,-1
 878 1956 l 1,31,-1
 648 1704 l 1,32,33
 706 1684 706 1684 750 1642 c 0,34,35
 828 1564 828 1564 828 1456 c 0,36,37
 828 1346 828 1346 746 1269 c 128,-1,38
 664 1192 664 1192 544 1192 c 0,39,40
 430 1192 430 1192 346 1269 c 128,-1,41
 262 1346 262 1346 262 1456 c 0,25,26
282 292 m 0,42,43
 282 228 282 228 334 184 c 128,-1,44
 386 140 386 140 474 140 c 0,45,46
 596 140 596 140 681 219 c 128,-1,47
 766 298 766 298 766 424 c 2,48,-1
 766 540 l 1,49,50
 680 518 680 518 538 496 c 0,51,52
 408 474 408 474 345 425 c 128,-1,53
 282 376 282 376 282 292 c 0,42,43
408 1456 m 256,54,55
 408 1400 408 1400 447 1361 c 128,-1,56
 486 1322 486 1322 544 1322 c 256,57,58
 602 1322 602 1322 642 1360 c 128,-1,59
 682 1398 682 1398 682 1456 c 256,60,61
 682 1514 682 1514 644 1552 c 128,-1,62
 606 1590 606 1590 544 1590 c 0,63,64
 484 1590 484 1590 446 1551 c 128,-1,65
 408 1512 408 1512 408 1456 c 256,54,55
EndSplineSet
EndChar

StartChar: uni021C
Encoding: 540 540 478
Width: 1150
GlyphClass: 2
Flags: W
LayerCount: 2
Fore
SplineSet
82 -218 m 1,0,1
 238 -252 238 -252 382 -252 c 0,2,3
 586 -252 586 -252 712 -141 c 128,-1,4
 838 -30 838 -30 838 158 c 0,5,6
 838 358 838 358 737 449 c 128,-1,7
 636 540 636 540 502 540 c 0,8,9
 396 540 396 540 282 494 c 1,10,-1
 282 682 l 1,11,-1
 490 728 l 2,12,13
 636 762 636 762 723 848 c 128,-1,14
 810 934 810 934 810 1060 c 0,15,16
 810 1176 810 1176 737 1245 c 128,-1,17
 664 1314 664 1314 530 1314 c 0,18,19
 348 1314 348 1314 258 1136 c 1,20,-1
 86 1214 l 1,21,22
 140 1346 140 1346 258 1425 c 128,-1,23
 376 1504 376 1504 532 1504 c 0,24,25
 780 1504 780 1504 909 1389 c 128,-1,26
 1038 1274 1038 1274 1038 1084 c 0,27,28
 1038 920 1038 920 950 807 c 128,-1,29
 862 694 862 694 746 646 c 1,30,31
 874 608 874 608 969 484 c 128,-1,32
 1064 360 1064 360 1064 156 c 0,33,34
 1064 -122 1064 -122 875 -281 c 128,-1,35
 686 -440 686 -440 384 -440 c 0,36,37
 260 -440 260 -440 82 -412 c 1,38,-1
 82 -218 l 1,0,1
EndSplineSet
EndChar

StartChar: uni021D
Encoding: 541 541 479
Width: 900
GlyphClass: 2
Flags: W
LayerCount: 2
Fore
SplineSet
72 -252 m 1,0,1
 194 -276 194 -276 300 -276 c 0,2,3
 438 -276 438 -276 523 -199 c 128,-1,4
 608 -122 608 -122 608 24 c 0,5,6
 608 158 608 158 539 231 c 128,-1,7
 470 304 470 304 376 304 c 0,8,9
 314 304 314 304 224 276 c 1,10,-1
 224 450 l 1,11,-1
 374 484 l 2,12,13
 476 508 476 508 535 577 c 128,-1,14
 594 646 594 646 594 732 c 256,15,16
 594 818 594 818 551 871 c 128,-1,17
 508 924 508 924 424 924 c 0,18,19
 298 924 298 924 238 786 c 1,20,-1
 78 850 l 1,21,22
 112 960 112 960 205 1031 c 128,-1,23
 298 1102 298 1102 436 1102 c 0,24,25
 608 1102 608 1102 705 999 c 128,-1,26
 802 896 802 896 802 760 c 0,27,28
 802 516 802 516 586 408 c 1,29,30
 680 378 680 378 750 278 c 128,-1,31
 820 178 820 178 820 32 c 0,32,33
 820 -202 820 -202 683 -327 c 128,-1,34
 546 -452 546 -452 304 -452 c 0,35,36
 196 -452 196 -452 72 -434 c 1,37,-1
 72 -252 l 1,0,1
EndSplineSet
EndChar

StartChar: uni0220
Encoding: 544 544 482
Width: 1412
GlyphClass: 2
Flags: W
LayerCount: 2
Fore
SplineSet
178 0 m 1,0,-1
 178 1470 l 1,1,-1
 384 1470 l 1,2,-1
 384 1300 l 1,3,-1
 386 1300 l 1,4,5
 552 1504 552 1504 804 1504 c 0,6,7
 1240 1504 1240 1504 1240 984 c 2,8,-1
 1240 -446 l 1,9,-1
 1022 -446 l 1,10,-1
 1022 966 l 2,11,12
 1022 1140 1022 1140 959 1229 c 128,-1,13
 896 1318 896 1318 752 1318 c 0,14,15
 614 1318 614 1318 504 1202 c 128,-1,16
 394 1086 394 1086 394 938 c 2,17,-1
 394 0 l 1,18,-1
 178 0 l 1,0,-1
EndSplineSet
EndChar

StartChar: uni0221
Encoding: 545 545 483
Width: 1492
GlyphClass: 2
Flags: W
LayerCount: 2
Fore
SplineSet
1048 -182 m 1,0,1
 1064 -230 1064 -230 1107 -264 c 128,-1,2
 1150 -298 1150 -298 1208 -298 c 0,3,4
 1260 -298 1260 -298 1289 -272 c 128,-1,5
 1318 -246 1318 -246 1318 -206 c 0,6,7
 1318 -164 1318 -164 1286 -134 c 128,-1,8
 1254 -104 1254 -104 1204 -104 c 0,9,10
 1114 -104 1114 -104 1048 -182 c 1,0,1
74 534 m 0,11,12
 74 796 74 796 202 949 c 128,-1,13
 330 1102 330 1102 526 1102 c 0,14,15
 628 1102 628 1102 704 1049 c 128,-1,16
 780 996 780 996 814 926 c 1,17,-1
 814 1522 l 1,18,-1
 1022 1522 l 1,19,-1
 1022 102 l 2,20,21
 1022 4 1022 4 1026 -10 c 1,22,23
 1102 54 1102 54 1208 54 c 0,24,25
 1342 54 1342 54 1420 -19 c 128,-1,26
 1498 -92 1498 -92 1498 -198 c 0,27,28
 1498 -314 1498 -314 1420 -384 c 128,-1,29
 1342 -454 1342 -454 1210 -454 c 0,30,31
 1058 -454 1058 -454 962 -336 c 1,32,33
 940 -372 940 -372 910 -452 c 1,34,-1
 738 -390 l 1,35,36
 794 -248 794 -248 844 -180 c 1,37,38
 822 -124 822 -124 816 40 c 2,39,-1
 816 154 l 1,40,41
 782 80 782 80 706 23 c 128,-1,42
 630 -34 630 -34 524 -34 c 0,43,44
 440 -34 440 -34 364 -2 c 128,-1,45
 288 30 288 30 221 94 c 128,-1,46
 154 158 154 158 114 272 c 128,-1,47
 74 386 74 386 74 534 c 0,11,12
286 534 m 0,48,49
 286 350 286 350 360 247 c 128,-1,50
 434 144 434 144 552 144 c 0,51,52
 666 144 666 144 741 248 c 128,-1,53
 816 352 816 352 816 534 c 0,54,55
 816 710 816 710 742 817 c 128,-1,56
 668 924 668 924 552 924 c 0,57,58
 430 924 430 924 358 819 c 128,-1,59
 286 714 286 714 286 534 c 0,48,49
EndSplineSet
EndChar

StartChar: uni0222
Encoding: 546 546 484
Width: 1402
GlyphClass: 2
Flags: W
LayerCount: 2
Fore
SplineSet
80 482 m 0,0,1
 80 622 80 622 159 741 c 128,-1,2
 238 860 238 860 376 930 c 1,3,4
 136 1038 136 1038 136 1298 c 0,5,6
 136 1396 136 1396 162 1470 c 1,7,-1
 374 1470 l 1,8,9
 360 1380 360 1380 360 1312 c 0,10,11
 360 1190 360 1190 452 1100 c 128,-1,12
 544 1010 544 1010 702 1010 c 0,13,14
 854 1010 854 1010 948 1098 c 128,-1,15
 1042 1186 1042 1186 1042 1312 c 0,16,17
 1042 1388 1042 1388 1028 1470 c 1,18,-1
 1242 1470 l 1,19,20
 1266 1404 1266 1404 1266 1298 c 0,21,22
 1266 1038 1266 1038 1024 930 c 1,23,24
 1164 864 1164 864 1243 743 c 128,-1,25
 1322 622 1322 622 1322 482 c 0,26,27
 1322 388 1322 388 1286 300 c 128,-1,28
 1250 212 1250 212 1178 135 c 128,-1,29
 1106 58 1106 58 983 12 c 128,-1,30
 860 -34 860 -34 702 -34 c 256,31,32
 544 -34 544 -34 421 12 c 128,-1,33
 298 58 298 58 226 134 c 128,-1,34
 154 210 154 210 117 299 c 128,-1,35
 80 388 80 388 80 482 c 0,0,1
304 482 m 0,36,37
 304 332 304 332 415 242 c 128,-1,38
 526 152 526 152 702 152 c 0,39,40
 874 152 874 152 986 242 c 128,-1,41
 1098 332 1098 332 1098 482 c 0,42,43
 1098 630 1098 630 984 726 c 128,-1,44
 870 822 870 822 702 822 c 0,45,46
 536 822 536 822 420 728 c 128,-1,47
 304 634 304 634 304 482 c 0,36,37
EndSplineSet
EndChar

StartChar: uni0223
Encoding: 547 547 485
Width: 1114
GlyphClass: 2
Flags: W
LayerCount: 2
Fore
SplineSet
74 490 m 0,0,1
 74 654 74 654 145 775 c 128,-1,2
 216 896 216 896 332 946 c 1,3,4
 118 1044 118 1044 118 1314 c 0,5,6
 118 1410 118 1410 144 1492 c 1,7,-1
 348 1492 l 1,8,9
 332 1374 332 1374 332 1330 c 0,10,11
 332 1202 332 1202 385 1114 c 128,-1,12
 438 1026 438 1026 556 1026 c 0,13,14
 668 1026 668 1026 726 1113 c 128,-1,15
 784 1200 784 1200 784 1330 c 0,16,17
 784 1382 784 1382 766 1492 c 1,18,-1
 968 1492 l 1,19,20
 996 1414 996 1414 996 1314 c 0,21,22
 996 1038 996 1038 784 946 c 1,23,24
 898 898 898 898 970 776 c 128,-1,25
 1042 654 1042 654 1042 490 c 0,26,27
 1042 392 1042 392 1015 302 c 128,-1,28
 988 212 988 212 933 135 c 128,-1,29
 878 58 878 58 780 12 c 128,-1,30
 682 -34 682 -34 556 -34 c 0,31,32
 432 -34 432 -34 335 11 c 128,-1,33
 238 56 238 56 183 133 c 128,-1,34
 128 210 128 210 101 300 c 128,-1,35
 74 390 74 390 74 490 c 0,0,1
288 490 m 256,36,37
 288 334 288 334 362 239 c 128,-1,38
 436 144 436 144 556 144 c 0,39,40
 678 144 678 144 753 238 c 128,-1,41
 828 332 828 332 828 490 c 0,42,43
 828 644 828 644 752 745 c 128,-1,44
 676 846 676 846 556 846 c 0,45,46
 440 846 440 846 364 746 c 128,-1,47
 288 646 288 646 288 490 c 256,36,37
EndSplineSet
EndChar

StartChar: uni0224
Encoding: 548 548 486
Width: 1208
GlyphClass: 2
Flags: W
LayerCount: 2
Fore
SplineSet
72 0 m 1,0,-1
 72 158 l 1,1,-1
 856 1284 l 1,2,-1
 134 1284 l 1,3,-1
 134 1470 l 1,4,-1
 1124 1470 l 1,5,-1
 1124 1310 l 1,6,-1
 338 184 l 1,7,-1
 906 184 l 2,8,9
 1078 184 1078 184 1161 94 c 128,-1,10
 1244 4 1244 4 1244 -182 c 0,11,12
 1244 -316 1244 -316 1188 -446 c 1,13,-1
 994 -446 l 1,14,15
 1050 -322 1050 -322 1050 -210 c 0,16,17
 1050 0 1050 0 850 0 c 2,18,-1
 72 0 l 1,0,-1
EndSplineSet
EndChar

StartChar: uni0225
Encoding: 549 549 487
Width: 960
GlyphClass: 2
Flags: W
LayerCount: 2
Fore
SplineSet
52 0 m 1,0,-1
 52 138 l 1,1,-1
 626 894 l 1,2,-1
 100 894 l 1,3,-1
 100 1070 l 1,4,-1
 896 1070 l 1,5,-1
 896 940 l 1,6,-1
 320 176 l 1,7,-1
 748 176 l 2,8,9
 906 176 906 176 986 91 c 128,-1,10
 1066 6 1066 6 1066 -178 c 0,11,12
 1066 -346 1066 -346 1024 -446 c 1,13,-1
 840 -446 l 1,14,15
 882 -348 882 -348 882 -214 c 0,16,17
 882 -108 882 -108 840 -54 c 128,-1,18
 798 0 798 0 696 0 c 2,19,-1
 52 0 l 1,0,-1
EndSplineSet
EndChar

StartChar: uni0234
Encoding: 564 564 502
Width: 822
GlyphClass: 2
Flags: W
LayerCount: 2
Fore
SplineSet
388 -182 m 1,0,1
 402 -230 402 -230 446 -264 c 128,-1,2
 490 -298 490 -298 548 -298 c 0,3,4
 600 -298 600 -298 629 -272 c 128,-1,5
 658 -246 658 -246 658 -206 c 0,6,7
 658 -162 658 -162 626 -133 c 128,-1,8
 594 -104 594 -104 542 -104 c 0,9,10
 456 -104 456 -104 388 -182 c 1,0,1
78 -390 m 1,11,12
 140 -242 140 -242 186 -180 c 1,13,14
 154 -104 154 -104 154 56 c 2,15,-1
 154 1522 l 1,16,-1
 362 1522 l 1,17,-1
 362 102 l 2,18,19
 362 14 362 14 366 -12 c 1,20,21
 440 54 440 54 548 54 c 0,22,23
 682 54 682 54 760 -19 c 128,-1,24
 838 -92 838 -92 838 -198 c 0,25,26
 838 -314 838 -314 760 -384 c 128,-1,27
 682 -454 682 -454 550 -454 c 0,28,29
 398 -454 398 -454 302 -336 c 1,30,31
 268 -390 268 -390 250 -452 c 1,32,-1
 78 -390 l 1,11,12
EndSplineSet
EndChar

StartChar: uni0235
Encoding: 565 565 503
Width: 1458
GlyphClass: 2
Flags: W
LayerCount: 2
Fore
SplineSet
1024 -182 m 1,0,1
 1038 -232 1038 -232 1083 -265 c 128,-1,2
 1128 -298 1128 -298 1184 -298 c 0,3,4
 1236 -298 1236 -298 1265 -271 c 128,-1,5
 1294 -244 1294 -244 1294 -204 c 256,6,7
 1294 -164 1294 -164 1264 -134 c 128,-1,8
 1234 -104 1234 -104 1178 -104 c 0,9,10
 1092 -104 1092 -104 1024 -182 c 1,0,1
138 0 m 1,11,-1
 138 1066 l 1,12,-1
 338 1066 l 1,13,-1
 338 918 l 1,14,-1
 340 918 l 1,15,16
 368 982 368 982 449 1042 c 128,-1,17
 530 1102 530 1102 650 1102 c 0,18,19
 806 1102 806 1102 901 1004 c 128,-1,20
 996 906 996 906 996 686 c 2,21,-1
 996 98 l 2,22,23
 996 2 996 2 998 -10 c 1,24,25
 1072 54 1072 54 1184 54 c 0,26,27
 1314 54 1314 54 1394 -18 c 128,-1,28
 1474 -90 1474 -90 1474 -198 c 0,29,30
 1474 -314 1474 -314 1395 -384 c 128,-1,31
 1316 -454 1316 -454 1186 -454 c 0,32,33
 1032 -454 1032 -454 938 -336 c 1,34,35
 906 -396 906 -396 886 -452 c 1,36,-1
 714 -390 l 1,37,38
 754 -274 754 -274 822 -180 c 1,39,40
 788 -106 788 -106 788 62 c 2,41,-1
 788 658 l 2,42,43
 788 924 788 924 606 924 c 0,44,45
 498 924 498 924 422 837 c 128,-1,46
 346 750 346 750 346 624 c 2,47,-1
 346 0 l 1,48,-1
 138 0 l 1,11,-1
EndSplineSet
EndChar

StartChar: uni0236
Encoding: 566 566 504
Width: 882
GlyphClass: 2
Flags: W
LayerCount: 2
Fore
SplineSet
442 -182 m 1,0,1
 456 -228 456 -228 499 -263 c 128,-1,2
 542 -298 542 -298 602 -298 c 0,3,4
 656 -298 656 -298 685 -271 c 128,-1,5
 714 -244 714 -244 714 -206 c 256,6,7
 714 -168 714 -168 683 -136 c 128,-1,8
 652 -104 652 -104 598 -104 c 0,9,10
 510 -104 510 -104 442 -182 c 1,0,1
36 892 m 1,11,-1
 36 1066 l 1,12,-1
 208 1066 l 1,13,-1
 208 1390 l 1,14,-1
 414 1390 l 1,15,-1
 414 1066 l 1,16,-1
 670 1066 l 1,17,-1
 670 892 l 1,18,-1
 414 892 l 1,19,-1
 414 90 l 2,20,21
 414 12 414 12 418 -10 c 1,22,23
 492 54 492 54 604 54 c 0,24,25
 736 54 736 54 814 -19 c 128,-1,26
 892 -92 892 -92 892 -198 c 0,27,28
 892 -314 892 -314 814 -384 c 128,-1,29
 736 -454 736 -454 606 -454 c 0,30,31
 450 -454 450 -454 356 -336 c 1,32,33
 320 -400 320 -400 302 -452 c 1,34,-1
 132 -390 l 1,35,36
 192 -240 192 -240 238 -180 c 1,37,38
 208 -108 208 -108 208 64 c 2,39,-1
 208 892 l 1,40,-1
 36 892 l 1,11,-1
EndSplineSet
EndChar

StartChar: uni0237
Encoding: 567 567 505
Width: 542
GlyphClass: 2
Flags: W
LayerCount: 2
Fore
SplineSet
-24 -262 m 1,0,-1
 16 -262 l 2,1,2
 172 -262 172 -262 172 -42 c 2,3,-1
 172 1066 l 1,4,-1
 380 1066 l 1,5,-1
 380 -52 l 2,6,7
 380 -242 380 -242 294 -340 c 128,-1,8
 208 -438 208 -438 50 -438 c 2,9,-1
 -24 -438 l 1,10,-1
 -24 -262 l 1,0,-1
EndSplineSet
EndChar

StartChar: uni0238
Encoding: 568 568 506
Width: 1832
GlyphClass: 2
Flags: W
LayerCount: 2
Fore
SplineSet
74 534 m 0,0,1
 74 798 74 798 203 950 c 128,-1,2
 332 1102 332 1102 526 1102 c 0,3,4
 628 1102 628 1102 703 1049 c 128,-1,5
 778 996 778 996 812 926 c 1,6,-1
 812 1522 l 1,7,-1
 1020 1522 l 1,8,-1
 1020 926 l 1,9,10
 1058 996 1058 996 1133 1049 c 128,-1,11
 1208 1102 1208 1102 1310 1102 c 0,12,13
 1506 1102 1506 1102 1633 951 c 128,-1,14
 1760 800 1760 800 1760 534 c 0,15,16
 1760 384 1760 384 1719 270 c 128,-1,17
 1678 156 1678 156 1611 92 c 128,-1,18
 1544 28 1544 28 1468 -3 c 128,-1,19
 1392 -34 1392 -34 1312 -34 c 0,20,21
 1206 -34 1206 -34 1130 21 c 128,-1,22
 1054 76 1054 76 1020 152 c 1,23,-1
 1020 0 l 1,24,-1
 816 0 l 1,25,-1
 816 154 l 1,26,27
 778 72 778 72 700 19 c 128,-1,28
 622 -34 622 -34 522 -34 c 0,29,30
 442 -34 442 -34 368 -4 c 128,-1,31
 294 26 294 26 226 90 c 128,-1,32
 158 154 158 154 116 268 c 128,-1,33
 74 382 74 382 74 534 c 0,0,1
286 534 m 0,34,35
 286 346 286 346 360 245 c 128,-1,36
 434 144 434 144 552 144 c 256,37,38
 670 144 670 144 743 249 c 128,-1,39
 816 354 816 354 816 522 c 2,40,-1
 816 534 l 2,41,42
 816 704 816 704 743 814 c 128,-1,43
 670 924 670 924 552 924 c 256,44,45
 434 924 434 924 360 820 c 128,-1,46
 286 716 286 716 286 534 c 0,34,35
1016 520 m 2,47,48
 1016 358 1016 358 1090 251 c 128,-1,49
 1164 144 1164 144 1278 144 c 0,50,51
 1398 144 1398 144 1472 245 c 128,-1,52
 1546 346 1546 346 1546 534 c 0,53,54
 1546 714 1546 714 1473 819 c 128,-1,55
 1400 924 1400 924 1280 924 c 0,56,57
 1162 924 1162 924 1089 813 c 128,-1,58
 1016 702 1016 702 1016 534 c 2,59,-1
 1016 520 l 2,47,48
EndSplineSet
EndChar

StartChar: uni0239
Encoding: 569 569 507
Width: 1834
GlyphClass: 2
Flags: W
LayerCount: 2
Fore
SplineSet
74 534 m 0,0,1
 74 794 74 794 201 948 c 128,-1,2
 328 1102 328 1102 526 1102 c 0,3,4
 716 1102 716 1102 816 918 c 1,5,-1
 816 1066 l 1,6,-1
 1020 1066 l 1,7,-1
 1020 920 l 1,8,9
 1060 996 1060 996 1138 1049 c 128,-1,10
 1216 1102 1216 1102 1316 1102 c 0,11,12
 1514 1102 1514 1102 1638 948 c 128,-1,13
 1762 794 1762 794 1762 534 c 0,14,15
 1762 388 1762 388 1723 275 c 128,-1,16
 1684 162 1684 162 1619 97 c 128,-1,17
 1554 32 1554 32 1476 -1 c 128,-1,18
 1398 -34 1398 -34 1314 -34 c 0,19,20
 1206 -34 1206 -34 1129 21 c 128,-1,21
 1052 76 1052 76 1020 150 c 1,22,-1
 1020 -446 l 1,23,-1
 812 -446 l 1,24,-1
 812 148 l 1,25,26
 774 72 774 72 698 19 c 128,-1,27
 622 -34 622 -34 524 -34 c 0,28,29
 342 -34 342 -34 208 110 c 128,-1,30
 74 254 74 254 74 534 c 0,0,1
286 534 m 0,31,32
 286 350 286 350 360 247 c 128,-1,33
 434 144 434 144 550 144 c 0,34,35
 672 144 672 144 744 249 c 128,-1,36
 816 354 816 354 816 534 c 2,37,-1
 816 546 l 2,38,39
 816 714 816 714 743 819 c 128,-1,40
 670 924 670 924 550 924 c 0,41,42
 426 924 426 924 356 815 c 128,-1,43
 286 706 286 706 286 534 c 0,31,32
1020 536 m 2,44,45
 1020 356 1020 356 1094 250 c 128,-1,46
 1168 144 1168 144 1286 144 c 256,47,48
 1404 144 1404 144 1477 247 c 128,-1,49
 1550 350 1550 350 1550 534 c 0,50,51
 1550 708 1550 708 1481 816 c 128,-1,52
 1412 924 1412 924 1286 924 c 0,53,54
 1172 924 1172 924 1096 819 c 128,-1,55
 1020 714 1020 714 1020 548 c 2,56,-1
 1020 536 l 2,44,45
EndSplineSet
EndChar

StartChar: uni023A
Encoding: 570 570 508
Width: 1302
GlyphClass: 2
Flags: W
LayerCount: 2
Fore
SplineSet
-8 0 m 1,0,-1
 530 1470 l 1,1,-1
 776 1470 l 1,2,-1
 882 1180 l 1,3,-1
 1120 1556 l 1,4,-1
 1276 1556 l 1,5,-1
 938 1024 l 1,6,-1
 1312 0 l 1,7,-1
 1078 0 l 1,8,-1
 948 382 l 1,9,-1
 534 382 l 1,10,-1
 174 -186 l 1,11,-1
 14 -186 l 1,12,-1
 132 0 l 1,13,-1
 -8 0 l 1,0,-1
412 558 m 1,14,-1
 486 558 l 1,15,-1
 752 976 l 1,16,17
 746 988 746 988 714 1092 c 0,18,19
 676 1206 676 1206 656 1264 c 1,20,-1
 646 1264 l 1,21,22
 602 1116 602 1116 554 974 c 2,23,-1
 412 558 l 1,14,-1
644 558 m 1,24,-1
 892 558 l 1,25,-1
 806 814 l 1,26,-1
 644 558 l 1,24,-1
356 382 m 1,27,-1
 334 318 l 1,28,-1
 374 382 l 1,29,-1
 356 382 l 1,27,-1
EndSplineSet
EndChar

StartChar: uni023B
Encoding: 571 571 509
Width: 1318
GlyphClass: 2
Flags: W
LayerCount: 2
Fore
SplineSet
86 736 m 0,0,1
 86 1086 86 1086 263 1295 c 128,-1,2
 440 1504 440 1504 730 1504 c 0,3,4
 836 1504 836 1504 934 1464 c 1,5,-1
 978 1580 l 1,6,-1
 1136 1580 l 1,7,-1
 1066 1386 l 1,8,9
 1174 1300 1174 1300 1236 1160 c 1,10,-1
 1050 1098 l 1,11,12
 1014 1158 1014 1158 990 1186 c 1,13,-1
 608 174 l 1,14,15
 662 152 662 152 728 152 c 0,16,17
 852 152 852 152 943 225 c 128,-1,18
 1034 298 1034 298 1078 400 c 1,19,-1
 1274 338 l 1,20,21
 1244 274 1244 274 1202 216 c 128,-1,22
 1160 158 1160 158 1096 98 c 128,-1,23
 1032 38 1032 38 937 2 c 128,-1,24
 842 -34 842 -34 730 -34 c 0,25,26
 628 -34 628 -34 540 -6 c 1,27,-1
 496 -122 l 1,28,-1
 336 -122 l 1,29,-1
 402 54 l 1,30,31
 254 150 254 150 170 325 c 128,-1,32
 86 500 86 500 86 736 c 0,0,1
476 252 m 1,33,-1
 868 1286 l 1,34,35
 800 1318 800 1318 728 1318 c 0,36,37
 532 1318 532 1318 420 1157 c 128,-1,38
 308 996 308 996 308 736 c 0,39,40
 308 408 308 408 476 252 c 1,33,-1
EndSplineSet
EndChar

StartChar: uni023C
Encoding: 572 572 510
Width: 1022
GlyphClass: 2
Flags: W
LayerCount: 2
Fore
SplineSet
74 534 m 0,0,1
 74 782 74 782 203 942 c 128,-1,2
 332 1102 332 1102 566 1102 c 0,3,4
 632 1102 632 1102 700 1076 c 1,5,-1
 746 1204 l 1,6,-1
 892 1204 l 1,7,-1
 822 1006 l 1,8,9
 922 930 922 930 958 796 c 1,10,-1
 788 750 l 1,11,12
 770 792 770 792 752 818 c 1,13,-1
 510 150 l 1,14,15
 528 144 528 144 562 144 c 0,16,17
 720 144 720 144 806 332 c 1,18,-1
 984 282 l 1,19,20
 950 164 950 164 837 65 c 128,-1,21
 724 -34 724 -34 560 -34 c 0,22,23
 498 -34 498 -34 446 -22 c 1,24,-1
 412 -120 l 1,25,-1
 264 -120 l 1,26,-1
 318 28 l 1,27,28
 196 98 196 98 135 234 c 128,-1,29
 74 370 74 370 74 534 c 0,0,1
394 228 m 1,30,-1
 638 906 l 1,31,32
 604 924 604 924 562 924 c 0,33,34
 434 924 434 924 361 813 c 128,-1,35
 288 702 288 702 288 534 c 0,36,37
 288 328 288 328 394 228 c 1,30,-1
EndSplineSet
EndChar

StartChar: uni023D
Encoding: 573 573 511
Width: 1088
GlyphClass: 2
Flags: W
LayerCount: 2
Fore
SplineSet
18 744 m 1,0,-1
 18 916 l 1,1,-1
 178 916 l 1,2,-1
 178 1470 l 1,3,-1
 394 1470 l 1,4,-1
 394 916 l 1,5,-1
 774 916 l 1,6,-1
 774 744 l 1,7,-1
 394 744 l 1,8,-1
 394 184 l 1,9,-1
 1070 184 l 1,10,-1
 1070 0 l 1,11,-1
 178 0 l 1,12,-1
 178 744 l 1,13,-1
 18 744 l 1,0,-1
EndSplineSet
EndChar

StartChar: uni023E
Encoding: 574 574 512
Width: 1118
GlyphClass: 2
Flags: W
LayerCount: 2
Fore
SplineSet
668 1284 m 1,0,-1
 668 988 l 1,1,-1
 830 1284 l 1,2,-1
 668 1284 l 1,0,-1
20 1284 m 1,3,-1
 20 1470 l 1,4,-1
 934 1470 l 1,5,-1
 994 1580 l 1,6,-1
 1144 1580 l 1,7,-1
 1084 1470 l 1,8,-1
 1100 1470 l 1,9,-1
 1100 1284 l 1,10,-1
 982 1284 l 1,11,-1
 668 714 l 1,12,-1
 668 0 l 1,13,-1
 452 0 l 1,14,-1
 452 322 l 1,15,-1
 226 -90 l 1,16,-1
 74 -90 l 1,17,-1
 452 596 l 1,18,-1
 452 1284 l 1,19,-1
 20 1284 l 1,3,-1
EndSplineSet
EndChar

StartChar: uni023F
Encoding: 575 575 513
Width: 980
GlyphClass: 2
Flags: W
LayerCount: 2
Fore
SplineSet
54 218 m 1,0,-1
 204 306 l 1,1,2
 316 136 316 136 506 136 c 0,3,4
 600 136 600 136 658 174 c 128,-1,5
 716 212 716 212 716 276 c 0,6,7
 716 304 716 304 702 330 c 128,-1,8
 688 356 688 356 669 372 c 128,-1,9
 650 388 650 388 613 406 c 128,-1,10
 576 424 576 424 550 432 c 128,-1,11
 524 440 524 440 472 457 c 128,-1,12
 420 474 420 474 398 482 c 0,13,14
 332 506 332 506 284 528 c 128,-1,15
 236 550 236 550 190 586 c 128,-1,16
 144 622 144 622 119 673 c 128,-1,17
 94 724 94 724 94 790 c 0,18,19
 94 934 94 934 212 1018 c 128,-1,20
 330 1102 330 1102 500 1102 c 0,21,22
 638 1102 638 1102 749 1032 c 128,-1,23
 860 962 860 962 918 858 c 1,24,-1
 780 774 l 1,25,26
 666 930 666 930 502 930 c 0,27,28
 408 930 408 930 357 891 c 128,-1,29
 306 852 306 852 306 788 c 0,30,31
 306 674 306 674 540 608 c 0,32,33
 616 584 616 584 676 561 c 128,-1,34
 736 538 736 538 798 499 c 128,-1,35
 860 460 860 460 894 403 c 128,-1,36
 928 346 928 346 928 276 c 0,37,38
 928 142 928 142 816 54 c 128,-1,39
 704 -34 704 -34 504 -34 c 0,40,41
 394 -34 394 -34 312 4 c 1,42,43
 360 -158 360 -158 388 -206 c 0,44,45
 448 -304 448 -304 574 -304 c 0,46,47
 646 -304 646 -304 688 -296 c 1,48,-1
 688 -440 l 1,49,50
 612 -454 612 -454 566 -454 c 0,51,52
 482 -454 482 -454 416 -426 c 128,-1,53
 350 -398 350 -398 310 -360 c 128,-1,54
 270 -322 270 -322 238 -256 c 128,-1,55
 206 -190 206 -190 191 -140 c 128,-1,56
 176 -90 176 -90 158 -16 c 0,57,58
 124 136 124 136 54 218 c 1,0,-1
EndSplineSet
EndChar

StartChar: uni0240
Encoding: 576 576 514
Width: 968
GlyphClass: 2
Flags: W
LayerCount: 2
Fore
SplineSet
52 0 m 1,0,-1
 52 138 l 1,1,-1
 626 892 l 1,2,-1
 100 892 l 1,3,-1
 100 1066 l 1,4,-1
 896 1066 l 1,5,-1
 896 936 l 1,6,-1
 290 138 l 1,7,8
 360 124 360 124 419 76 c 128,-1,9
 478 28 478 28 521 -30 c 128,-1,10
 564 -88 564 -88 605 -144 c 128,-1,11
 646 -200 646 -200 697 -238 c 128,-1,12
 748 -276 748 -276 806 -276 c 0,13,14
 870 -276 870 -276 922 -266 c 1,15,-1
 922 -438 l 1,16,17
 860 -454 860 -454 794 -454 c 0,18,19
 708 -454 708 -454 636 -410 c 128,-1,20
 564 -366 564 -366 513 -301 c 128,-1,21
 462 -236 462 -236 415 -171 c 128,-1,22
 368 -106 368 -106 305 -57 c 128,-1,23
 242 -8 242 -8 172 0 c 1,24,-1
 52 0 l 1,0,-1
EndSplineSet
EndChar

StartChar: uni0241
Encoding: 577 577 515
Width: 1156
GlyphClass: 2
Flags: W
LayerCount: 2
Fore
SplineSet
118 1156 m 1,0,1
 162 1312 162 1312 288 1408 c 128,-1,2
 414 1504 414 1504 586 1504 c 0,3,4
 780 1504 780 1504 901 1390 c 128,-1,5
 1022 1276 1022 1276 1022 1094 c 0,6,7
 1022 1004 1022 1004 987 931 c 128,-1,8
 952 858 952 858 901 808 c 128,-1,9
 850 758 850 758 800 709 c 128,-1,10
 750 660 750 660 715 596 c 128,-1,11
 680 532 680 532 680 454 c 2,12,-1
 680 0 l 1,13,-1
 464 0 l 1,14,-1
 464 472 l 2,15,16
 464 562 464 562 499 636 c 128,-1,17
 534 710 534 710 583 761 c 128,-1,18
 632 812 632 812 681 859 c 128,-1,19
 730 906 730 906 765 968 c 128,-1,20
 800 1030 800 1030 800 1102 c 0,21,22
 800 1200 800 1200 741 1260 c 128,-1,23
 682 1320 682 1320 588 1320 c 256,24,25
 494 1320 494 1320 422 1261 c 128,-1,26
 350 1202 350 1202 312 1098 c 1,27,-1
 118 1156 l 1,0,1
EndSplineSet
EndChar

StartChar: uni0250
Encoding: 592 592 516
Width: 1098
GlyphClass: 2
Flags: W
LayerCount: 2
Fore
SplineSet
334 526 m 1,0,1
 408 544 408 544 564 570 c 0,2,3
 692 590 692 590 755 639 c 128,-1,4
 818 688 818 688 818 774 c 0,5,6
 818 838 818 838 767 882 c 128,-1,7
 716 926 716 926 626 926 c 0,8,9
 508 926 508 926 421 847 c 128,-1,10
 334 768 334 768 334 648 c 2,11,-1
 334 526 l 1,0,1
126 398 m 2,12,-1
 126 1066 l 1,13,-1
 330 1066 l 1,14,-1
 330 922 l 1,15,16
 362 992 362 992 449 1047 c 128,-1,17
 536 1102 536 1102 654 1102 c 0,18,19
 826 1102 826 1102 928 1016 c 128,-1,20
 1030 930 1030 930 1030 790 c 0,21,22
 1030 492 1030 492 566 422 c 0,23,24
 418 400 418 400 334 376 c 1,25,-1
 334 312 l 2,26,27
 334 230 334 230 398 180 c 128,-1,28
 462 130 462 130 562 130 c 0,29,30
 742 130 742 130 874 282 c 1,31,-1
 1002 172 l 1,32,33
 922 74 922 74 806 20 c 128,-1,34
 690 -34 690 -34 564 -34 c 0,35,36
 334 -34 334 -34 230 77 c 128,-1,37
 126 188 126 188 126 398 c 2,12,-1
EndSplineSet
EndChar

StartChar: uni0251
Encoding: 593 593 517
Width: 1156
GlyphClass: 2
Flags: W
LayerCount: 2
Fore
SplineSet
286 534 m 0,0,1
 286 348 286 348 361 246 c 128,-1,2
 436 144 436 144 552 144 c 0,3,4
 654 144 654 144 733 241 c 128,-1,5
 812 338 812 338 812 534 c 0,6,7
 812 710 812 710 739 817 c 128,-1,8
 666 924 666 924 550 924 c 0,9,10
 430 924 430 924 358 819 c 128,-1,11
 286 714 286 714 286 534 c 0,0,1
74 534 m 0,12,13
 74 796 74 796 200 949 c 128,-1,14
 326 1102 326 1102 524 1102 c 0,15,16
 624 1102 624 1102 700 1048 c 128,-1,17
 776 994 776 994 808 926 c 1,18,-1
 808 1066 l 1,19,-1
 1016 1066 l 1,20,-1
 1016 0 l 1,21,-1
 812 0 l 1,22,-1
 812 156 l 1,23,24
 776 78 776 78 698 22 c 128,-1,25
 620 -34 620 -34 522 -34 c 0,26,27
 438 -34 438 -34 362 -2 c 128,-1,28
 286 30 286 30 220 94 c 128,-1,29
 154 158 154 158 114 272 c 128,-1,30
 74 386 74 386 74 534 c 0,12,13
EndSplineSet
EndChar

StartChar: uni0252
Encoding: 594 594 518
Width: 1156
GlyphClass: 2
Flags: W
LayerCount: 2
Fore
SplineSet
140 0 m 1,0,-1
 140 1066 l 1,1,-1
 348 1066 l 1,2,-1
 348 926 l 1,3,4
 388 996 388 996 461 1049 c 128,-1,5
 534 1102 534 1102 636 1102 c 0,6,7
 834 1102 834 1102 959 949 c 128,-1,8
 1084 796 1084 796 1084 534 c 0,9,10
 1084 384 1084 384 1043 271 c 128,-1,11
 1002 158 1002 158 935 93 c 128,-1,12
 868 28 868 28 792 -3 c 128,-1,13
 716 -34 716 -34 638 -34 c 0,14,15
 534 -34 534 -34 456 23 c 128,-1,16
 378 80 378 80 346 154 c 1,17,-1
 346 0 l 1,18,-1
 140 0 l 1,0,-1
344 534 m 0,19,20
 344 354 344 354 418 249 c 128,-1,21
 492 144 492 144 606 144 c 0,22,23
 724 144 724 144 797 246 c 128,-1,24
 870 348 870 348 870 534 c 0,25,26
 870 716 870 716 799 820 c 128,-1,27
 728 924 728 924 608 924 c 0,28,29
 492 924 492 924 418 817 c 128,-1,30
 344 710 344 710 344 534 c 0,19,20
EndSplineSet
EndChar

StartChar: uni0253
Encoding: 595 595 519
Width: 1166
GlyphClass: 2
Flags: W
LayerCount: 2
Fore
SplineSet
350 534 m 0,0,1
 350 354 350 354 423 249 c 128,-1,2
 496 144 496 144 612 144 c 0,3,4
 734 144 734 144 807 248 c 128,-1,5
 880 352 880 352 880 536 c 0,6,7
 880 712 880 712 809 818 c 128,-1,8
 738 924 738 924 614 924 c 0,9,10
 496 924 496 924 423 817 c 128,-1,11
 350 710 350 710 350 534 c 0,0,1
146 0 m 1,12,-1
 146 1148 l 2,13,14
 146 1342 146 1342 247 1447 c 128,-1,15
 348 1552 348 1552 520 1552 c 0,16,17
 592 1552 592 1552 734 1530 c 1,18,-1
 730 1348 l 1,19,20
 608 1368 608 1368 556 1368 c 0,21,22
 458 1368 458 1368 405 1299 c 128,-1,23
 352 1230 352 1230 352 1110 c 2,24,-1
 352 926 l 1,25,26
 394 1000 394 1000 468 1051 c 128,-1,27
 542 1102 542 1102 644 1102 c 0,28,29
 844 1102 844 1102 969 947 c 128,-1,30
 1094 792 1094 792 1094 536 c 0,31,32
 1094 262 1094 262 962 114 c 128,-1,33
 830 -34 830 -34 646 -34 c 0,34,35
 538 -34 538 -34 462 23 c 128,-1,36
 386 80 386 80 348 154 c 1,37,-1
 348 0 l 1,38,-1
 146 0 l 1,12,-1
EndSplineSet
EndChar

StartChar: uni0254
Encoding: 596 596 520
Width: 1022
GlyphClass: 2
Flags: W
LayerCount: 2
Fore
SplineSet
40 282 m 1,0,-1
 218 332 l 1,1,2
 244 258 244 258 309 201 c 128,-1,3
 374 144 374 144 460 144 c 0,4,5
 578 144 578 144 658 247 c 128,-1,6
 738 350 738 350 738 532 c 0,7,8
 738 700 738 700 663 812 c 128,-1,9
 588 924 588 924 460 924 c 0,10,11
 382 924 382 924 325 873 c 128,-1,12
 268 822 268 822 244 748 c 1,13,-1
 68 796 l 1,14,15
 98 918 98 918 204 1010 c 128,-1,16
 310 1102 310 1102 466 1102 c 0,17,18
 682 1102 682 1102 816 945 c 128,-1,19
 950 788 950 788 950 532 c 0,20,21
 950 272 950 272 816 119 c 128,-1,22
 682 -34 682 -34 466 -34 c 0,23,24
 310 -34 310 -34 193 61 c 128,-1,25
 76 156 76 156 40 282 c 1,0,-1
EndSplineSet
EndChar

StartChar: uni0255
Encoding: 597 597 521
Width: 1026
GlyphClass: 2
Flags: W
LayerCount: 2
Fore
SplineSet
508 146 m 1,0,1
 572 120 572 120 634 120 c 0,2,3
 706 120 706 120 747 147 c 128,-1,4
 788 174 788 174 788 212 c 0,5,6
 788 284 788 284 694 284 c 0,7,8
 632 284 632 284 584 243 c 128,-1,9
 536 202 536 202 508 146 c 1,0,1
74 546 m 0,10,11
 74 782 74 782 203 942 c 128,-1,12
 332 1102 332 1102 562 1102 c 0,13,14
 718 1102 718 1102 822 1007 c 128,-1,15
 926 912 926 912 958 796 c 1,16,-1
 782 748 l 1,17,18
 758 818 758 818 701 871 c 128,-1,19
 644 924 644 924 562 924 c 0,20,21
 434 924 434 924 361 813 c 128,-1,22
 288 702 288 702 288 534 c 0,23,24
 288 352 288 352 374 244 c 1,25,26
 422 326 422 326 506 382 c 128,-1,27
 590 438 590 438 700 438 c 0,28,29
 822 438 822 438 896 374 c 128,-1,30
 970 310 970 310 970 214 c 0,31,32
 970 102 970 102 878 34 c 128,-1,33
 786 -34 786 -34 628 -34 c 0,34,35
 520 -34 520 -34 444 -14 c 1,36,37
 418 -88 418 -88 410 -128 c 1,38,-1
 230 -88 l 1,39,40
 248 -8 248 -8 278 60 c 1,41,42
 74 216 74 216 74 546 c 0,10,11
EndSplineSet
EndChar

StartChar: uni0256
Encoding: 598 598 522
Width: 1162
GlyphClass: 2
Flags: W
LayerCount: 2
Fore
SplineSet
74 534 m 0,0,1
 74 800 74 800 203 951 c 128,-1,2
 332 1102 332 1102 526 1102 c 0,3,4
 628 1102 628 1102 703 1049 c 128,-1,5
 778 996 778 996 814 926 c 1,6,-1
 814 1522 l 1,7,-1
 1022 1522 l 1,8,-1
 1022 -62 l 2,9,10
 1022 -270 1022 -270 1172 -270 c 0,11,12
 1224 -270 1224 -270 1314 -256 c 1,13,-1
 1314 -438 l 1,14,15
 1168 -454 1168 -454 1134 -454 c 0,16,17
 818 -454 818 -454 818 -76 c 2,18,-1
 818 154 l 1,19,20
 780 72 780 72 702 19 c 128,-1,21
 624 -34 624 -34 524 -34 c 0,22,23
 440 -34 440 -34 364 -2 c 128,-1,24
 288 30 288 30 221 94 c 128,-1,25
 154 158 154 158 114 272 c 128,-1,26
 74 386 74 386 74 534 c 0,0,1
286 534 m 0,27,28
 286 354 286 354 359 249 c 128,-1,29
 432 144 432 144 554 144 c 0,30,31
 668 144 668 144 742 250 c 128,-1,32
 816 356 816 356 816 534 c 0,33,34
 816 710 816 710 742 817 c 128,-1,35
 668 924 668 924 552 924 c 0,36,37
 434 924 434 924 360 820 c 128,-1,38
 286 716 286 716 286 534 c 0,27,28
EndSplineSet
EndChar

StartChar: uni0257
Encoding: 599 599 523
Width: 1162
GlyphClass: 2
Flags: W
LayerCount: 2
Fore
SplineSet
74 536 m 0,0,1
 74 800 74 800 202 951 c 128,-1,2
 330 1102 330 1102 526 1102 c 0,3,4
 626 1102 626 1102 704 1048 c 128,-1,5
 782 994 782 994 814 924 c 1,6,-1
 814 1226 l 2,7,8
 814 1384 814 1384 911 1468 c 128,-1,9
 1008 1552 1008 1552 1164 1552 c 0,10,11
 1196 1552 1196 1552 1332 1542 c 1,12,-1
 1332 1358 l 1,13,14
 1264 1366 1264 1366 1202 1366 c 0,15,16
 1122 1366 1122 1366 1072 1318 c 128,-1,17
 1022 1270 1022 1270 1022 1184 c 2,18,-1
 1022 0 l 1,19,-1
 820 0 l 1,20,-1
 820 158 l 1,21,22
 786 80 786 80 705 23 c 128,-1,23
 624 -34 624 -34 524 -34 c 0,24,25
 440 -34 440 -34 363 -2 c 128,-1,26
 286 30 286 30 220 95 c 128,-1,27
 154 160 154 160 114 274 c 128,-1,28
 74 388 74 388 74 536 c 0,0,1
286 536 m 0,29,30
 286 350 286 350 360 246 c 128,-1,31
 434 142 434 142 554 142 c 0,32,33
 666 142 666 142 741 247 c 128,-1,34
 816 352 816 352 816 536 c 0,35,36
 816 712 816 712 742 818 c 128,-1,37
 668 924 668 924 552 924 c 0,38,39
 430 924 430 924 358 820 c 128,-1,40
 286 716 286 716 286 536 c 0,29,30
EndSplineSet
EndChar

StartChar: uni0258
Encoding: 600 600 524
Width: 1112
GlyphClass: 2
Flags: W
LayerCount: 2
Fore
SplineSet
74 464 m 1,0,1
 70 520 70 520 70 552 c 0,2,3
 70 798 70 798 205 950 c 128,-1,4
 340 1102 340 1102 550 1102 c 0,5,6
 764 1102 764 1102 902 948 c 128,-1,7
 1040 794 1040 794 1040 540 c 0,8,9
 1040 274 1040 274 900 120 c 128,-1,10
 760 -34 760 -34 540 -34 c 0,11,12
 368 -34 368 -34 254 44 c 128,-1,13
 140 122 140 122 88 238 c 1,14,-1
 264 298 l 1,15,16
 302 226 302 226 372 181 c 128,-1,17
 442 136 442 136 536 136 c 0,18,19
 670 136 670 136 748 231 c 128,-1,20
 826 326 826 326 828 464 c 1,21,-1
 74 464 l 1,0,1
282 612 m 1,22,-1
 828 612 l 1,23,24
 822 746 822 746 749 839 c 128,-1,25
 676 932 676 932 550 932 c 0,26,27
 426 932 426 932 355 840 c 128,-1,28
 284 748 284 748 282 612 c 1,22,-1
EndSplineSet
EndChar

StartChar: uni025A
Encoding: 602 602 526
Width: 1308
GlyphClass: 2
Flags: W
LayerCount: 2
Fore
SplineSet
70 454 m 1,0,-1
 790 772 l 1,1,2
 706 930 706 930 538 930 c 0,3,4
 352 930 352 930 262 768 c 1,5,-1
 88 826 l 1,6,7
 140 948 140 948 255 1025 c 128,-1,8
 370 1102 370 1102 542 1102 c 0,9,10
 688 1102 688 1102 794 1033 c 128,-1,11
 900 964 900 964 962 854 c 1,12,-1
 1118 930 l 1,13,14
 1138 862 1138 862 1184 821 c 128,-1,15
 1230 780 1230 780 1284 780 c 0,16,17
 1340 780 1340 780 1370 790 c 1,18,-1
 1370 626 l 1,19,20
 1312 612 1312 612 1268 612 c 0,21,22
 1204 612 1204 612 1152 641 c 128,-1,23
 1100 670 1100 670 1074 714 c 1,24,-1
 1022 684 l 1,25,26
 1038 610 1038 610 1038 530 c 0,27,28
 1038 282 1038 282 904 124 c 128,-1,29
 770 -34 770 -34 546 -34 c 0,30,31
 400 -34 400 -34 290 42 c 128,-1,32
 180 118 180 118 129 225 c 128,-1,33
 78 332 78 332 70 454 c 1,0,-1
290 368 m 1,34,35
 308 258 308 258 379 196 c 128,-1,36
 450 134 450 134 546 134 c 0,37,38
 660 134 660 134 734 219 c 128,-1,39
 808 304 808 304 818 442 c 0,40,41
 826 484 826 484 826 536 c 0,42,43
 826 566 826 566 824 600 c 1,44,-1
 290 368 l 1,34,35
EndSplineSet
EndChar

StartChar: uni025B
Encoding: 603 603 527
Width: 974
GlyphClass: 2
Flags: W
LayerCount: 2
Fore
SplineSet
74 300 m 0,0,1
 74 400 74 400 129 467 c 128,-1,2
 184 534 184 534 264 564 c 1,3,-1
 264 566 l 1,4,5
 114 642 114 642 114 796 c 0,6,7
 114 930 114 930 222 1016 c 128,-1,8
 330 1102 330 1102 508 1102 c 0,9,10
 776 1102 776 1102 910 856 c 1,11,-1
 740 786 l 1,12,13
 704 846 704 846 643 885 c 128,-1,14
 582 924 582 924 512 924 c 0,15,16
 422 924 422 924 374 886 c 128,-1,17
 326 848 326 848 326 784 c 0,18,19
 326 716 326 716 380 673 c 128,-1,20
 434 630 434 630 542 630 c 2,21,-1
 650 630 l 1,22,-1
 650 474 l 1,23,-1
 542 474 l 2,24,25
 408 474 408 474 347 424 c 128,-1,26
 286 374 286 374 286 302 c 0,27,28
 286 228 286 228 355 186 c 128,-1,29
 424 144 424 144 516 144 c 0,30,31
 596 144 596 144 666 184 c 128,-1,32
 736 224 736 224 774 278 c 1,33,-1
 934 204 l 1,34,35
 878 98 878 98 766 32 c 128,-1,36
 654 -34 654 -34 512 -34 c 0,37,38
 322 -34 322 -34 198 55 c 128,-1,39
 74 144 74 144 74 300 c 0,0,1
EndSplineSet
EndChar

StartChar: uni025C
Encoding: 604 604 528
Width: 974
GlyphClass: 2
Flags: W
LayerCount: 2
Fore
SplineSet
40 204 m 1,0,-1
 200 278 l 1,1,2
 238 224 238 224 308 184 c 128,-1,3
 378 144 378 144 458 144 c 0,4,5
 550 144 550 144 619 186 c 128,-1,6
 688 228 688 228 688 302 c 0,7,8
 688 374 688 374 628 424 c 128,-1,9
 568 474 568 474 436 474 c 2,10,-1
 324 474 l 1,11,-1
 324 630 l 1,12,-1
 436 630 l 2,13,14
 542 630 542 630 596 673 c 128,-1,15
 650 716 650 716 650 784 c 0,16,17
 650 848 650 848 602 886 c 128,-1,18
 554 924 554 924 464 924 c 0,19,20
 394 924 394 924 332 885 c 128,-1,21
 270 846 270 846 234 786 c 1,22,-1
 64 856 l 1,23,24
 198 1102 198 1102 466 1102 c 0,25,26
 646 1102 646 1102 754 1016 c 128,-1,27
 862 930 862 930 862 796 c 0,28,29
 862 644 862 644 708 566 c 1,30,-1
 710 564 l 1,31,32
 790 534 790 534 846 467 c 128,-1,33
 902 400 902 400 902 300 c 0,34,35
 902 144 902 144 777 55 c 128,-1,36
 652 -34 652 -34 462 -34 c 0,37,38
 320 -34 320 -34 208 32 c 128,-1,39
 96 98 96 98 40 204 c 1,0,-1
EndSplineSet
EndChar

StartChar: uni025D
Encoding: 605 605 529
Width: 1134
GlyphClass: 2
Flags: W
LayerCount: 2
Fore
SplineSet
40 204 m 1,0,-1
 200 278 l 1,1,2
 232 228 232 228 304 186 c 128,-1,3
 376 144 376 144 458 144 c 0,4,5
 564 144 564 144 626 187 c 128,-1,6
 688 230 688 230 688 304 c 0,7,8
 688 376 688 376 626 425 c 128,-1,9
 564 474 564 474 434 474 c 2,10,-1
 324 474 l 1,11,-1
 324 630 l 1,12,-1
 434 630 l 2,13,14
 542 630 542 630 596 674 c 128,-1,15
 650 718 650 718 650 784 c 0,16,17
 650 846 650 846 604 885 c 128,-1,18
 558 924 558 924 464 924 c 0,19,20
 320 924 320 924 234 786 c 1,21,-1
 64 856 l 1,22,23
 202 1102 202 1102 466 1102 c 0,24,25
 704 1102 704 1102 812 954 c 1,26,-1
 962 1038 l 1,27,28
 986 970 986 970 1035 924 c 128,-1,29
 1084 878 1084 878 1138 878 c 0,30,31
 1188 878 1188 878 1220 890 c 1,32,-1
 1220 722 l 1,33,34
 1172 710 1172 710 1122 710 c 0,35,36
 1054 710 1054 710 999 742 c 128,-1,37
 944 774 944 774 920 818 c 1,38,-1
 860 786 l 2,39,40
 860 784 860 784 858 766 c 128,-1,41
 856 748 856 748 856 738 c 0,42,43
 844 680 844 680 801 634 c 128,-1,44
 758 588 758 588 710 566 c 1,45,-1
 712 564 l 1,46,47
 788 534 788 534 845 467 c 128,-1,48
 902 400 902 400 902 302 c 0,49,50
 902 144 902 144 779 55 c 128,-1,51
 656 -34 656 -34 458 -34 c 0,52,53
 316 -34 316 -34 204 34 c 128,-1,54
 92 102 92 102 40 204 c 1,0,-1
EndSplineSet
EndChar

StartChar: uni025E
Encoding: 606 606 530
Width: 1108
GlyphClass: 2
Flags: W
LayerCount: 2
Fore
SplineSet
74 536 m 0,0,1
 74 786 74 786 203 944 c 128,-1,2
 332 1102 332 1102 586 1102 c 0,3,4
 758 1102 758 1102 877 1022 c 128,-1,5
 996 942 996 942 996 794 c 0,6,7
 996 712 996 712 957 651 c 128,-1,8
 918 590 918 590 856 560 c 1,9,-1
 856 558 l 1,10,11
 1034 486 1034 486 1034 302 c 0,12,13
 1034 134 1034 134 908 50 c 128,-1,14
 782 -34 782 -34 586 -34 c 0,15,16
 338 -34 338 -34 206 120 c 128,-1,17
 74 274 74 274 74 536 c 0,0,1
288 536 m 0,18,19
 288 324 288 324 379 234 c 128,-1,20
 470 144 470 144 590 144 c 0,21,22
 822 144 822 144 822 298 c 0,23,24
 822 366 822 366 764 416 c 128,-1,25
 706 466 706 466 586 466 c 2,26,-1
 510 466 l 1,27,-1
 510 628 l 1,28,-1
 586 628 l 2,29,30
 684 628 684 628 734 673 c 128,-1,31
 784 718 784 718 784 780 c 0,32,33
 784 852 784 852 731 888 c 128,-1,34
 678 924 678 924 588 924 c 0,35,36
 466 924 466 924 377 829 c 128,-1,37
 288 734 288 734 288 536 c 0,18,19
EndSplineSet
EndChar

StartChar: uni025F
Encoding: 607 607 531
Width: 548
GlyphClass: 2
Flags: W
LayerCount: 2
Fore
SplineSet
-30 512 m 1,0,-1
 -30 682 l 1,1,-1
 176 682 l 1,2,-1
 176 1066 l 1,3,-1
 384 1066 l 1,4,-1
 384 682 l 1,5,-1
 576 682 l 1,6,-1
 576 512 l 1,7,-1
 384 512 l 1,8,-1
 384 -52 l 2,9,10
 384 -242 384 -242 298 -340 c 128,-1,11
 212 -438 212 -438 52 -438 c 2,12,-1
 -20 -438 l 1,13,-1
 -20 -262 l 1,14,-1
 18 -262 l 2,15,16
 176 -262 176 -262 176 -42 c 2,17,-1
 176 512 l 1,18,-1
 -30 512 l 1,0,-1
EndSplineSet
EndChar

StartChar: uni0260
Encoding: 608 608 532
Width: 1154
GlyphClass: 2
Flags: W
LayerCount: 2
Fore
SplineSet
78 554 m 256,0,1
 78 802 78 802 201 952 c 128,-1,2
 324 1102 324 1102 518 1102 c 0,3,4
 620 1102 620 1102 691 1049 c 128,-1,5
 762 996 762 996 796 926 c 1,6,-1
 796 1226 l 2,7,8
 796 1382 796 1382 896 1467 c 128,-1,9
 996 1552 996 1552 1148 1552 c 0,10,11
 1210 1552 1210 1552 1316 1544 c 1,12,-1
 1316 1360 l 1,13,14
 1248 1368 1248 1368 1186 1368 c 0,15,16
 1108 1368 1108 1368 1055 1319 c 128,-1,17
 1002 1270 1002 1270 1002 1184 c 2,18,-1
 1002 140 l 2,19,20
 1002 6 1002 6 981 -96 c 128,-1,21
 960 -198 960 -198 908 -282 c 128,-1,22
 856 -366 856 -366 761 -410 c 128,-1,23
 666 -454 666 -454 532 -454 c 0,24,25
 268 -454 268 -454 122 -252 c 1,26,-1
 262 -156 l 1,27,28
 378 -286 378 -286 536 -286 c 0,29,30
 664 -286 664 -286 728 -188 c 128,-1,31
 792 -90 792 -90 794 56 c 2,32,-1
 796 166 l 1,33,34
 758 96 758 96 687 52 c 128,-1,35
 616 8 616 8 526 8 c 0,36,37
 328 8 328 8 203 157 c 128,-1,38
 78 306 78 306 78 554 c 256,0,1
290 554 m 0,39,40
 290 374 290 374 362 279 c 128,-1,41
 434 184 434 184 542 184 c 0,42,43
 660 184 660 184 727 281 c 128,-1,44
 794 378 794 378 794 556 c 0,45,46
 794 724 794 724 726 824 c 128,-1,47
 658 924 658 924 544 924 c 0,48,49
 432 924 432 924 361 825 c 128,-1,50
 290 726 290 726 290 554 c 0,39,40
EndSplineSet
EndChar

StartChar: uni0262
Encoding: 610 610 534
Width: 1122
GlyphClass: 2
Flags: W
LayerCount: 2
Fore
SplineSet
74 530 m 0,0,1
 74 788 74 788 209 944 c 128,-1,2
 344 1100 344 1100 584 1100 c 0,3,4
 856 1100 856 1100 996 838 c 1,5,-1
 822 764 l 1,6,7
 734 922 734 922 584 922 c 0,8,9
 444 922 444 922 365 818 c 128,-1,10
 286 714 286 714 286 530 c 0,11,12
 286 350 286 350 366 248 c 128,-1,13
 446 146 446 146 582 146 c 0,14,15
 690 146 690 146 755 209 c 128,-1,16
 820 272 820 272 826 372 c 2,17,-1
 826 436 l 1,18,-1
 550 436 l 1,19,-1
 550 598 l 1,20,-1
 1022 598 l 1,21,-1
 1022 0 l 1,22,-1
 864 0 l 1,23,-1
 856 110 l 1,24,25
 824 52 824 52 748 9 c 128,-1,26
 672 -34 672 -34 572 -34 c 0,27,28
 352 -34 352 -34 213 114 c 128,-1,29
 74 262 74 262 74 530 c 0,0,1
EndSplineSet
EndChar

StartChar: uni0263
Encoding: 611 611 535
Width: 1024
GlyphClass: 2
Flags: W
LayerCount: 2
Fore
SplineSet
16 1066 m 1,0,-1
 244 1066 l 1,1,-1
 490 298 l 1,2,-1
 508 228 l 1,3,-1
 512 228 l 1,4,-1
 536 298 l 1,5,-1
 782 1066 l 1,6,-1
 1010 1066 l 1,7,-1
 654 118 l 1,8,9
 798 -22 798 -22 798 -172 c 0,10,11
 798 -296 798 -296 719 -375 c 128,-1,12
 640 -454 640 -454 512 -454 c 0,13,14
 390 -454 390 -454 309 -376 c 128,-1,15
 228 -298 228 -298 228 -172 c 0,16,17
 228 -36 228 -36 368 114 c 1,18,-1
 16 1066 l 1,0,-1
402 -172 m 0,19,20
 402 -228 402 -228 432 -267 c 128,-1,21
 462 -306 462 -306 512 -306 c 0,22,23
 564 -306 564 -306 595 -267 c 128,-1,24
 626 -228 626 -228 626 -172 c 0,25,26
 626 -68 626 -68 512 40 c 1,27,28
 402 -56 402 -56 402 -172 c 0,19,20
EndSplineSet
Substitution2: "'sups' Superscript lookup 5 subtable" uni02E0
Substitution2: "'aalt' Access All Alternates lookup 0 subtable" uni02E0
EndChar

StartChar: uni0264
Encoding: 612 612 536
Width: 964
GlyphClass: 2
Flags: W
LayerCount: 2
Fore
SplineSet
484 646 m 1,0,1
 350 474 350 474 350 326 c 0,2,3
 350 246 350 246 387 195 c 128,-1,4
 424 144 424 144 488 144 c 0,5,6
 548 144 548 144 583 197 c 128,-1,7
 618 250 618 250 618 326 c 0,8,9
 618 478 618 478 484 646 c 1,0,1
40 908 m 1,10,-1
 40 1082 l 1,11,12
 120 1102 120 1102 168 1102 c 0,13,14
 262 1102 262 1102 333 1062 c 128,-1,15
 404 1022 404 1022 484 940 c 1,16,17
 636 1102 636 1102 804 1102 c 0,18,19
 856 1102 856 1102 928 1084 c 1,20,-1
 928 906 l 1,21,22
 876 922 876 922 808 922 c 0,23,24
 712 922 712 922 610 804 c 1,25,26
 720 666 720 666 771 563 c 128,-1,27
 822 460 822 460 822 324 c 0,28,29
 822 164 822 164 734 65 c 128,-1,30
 646 -34 646 -34 488 -34 c 0,31,32
 324 -34 324 -34 236 67 c 128,-1,33
 148 168 148 168 148 324 c 0,34,35
 148 420 148 420 183 514 c 128,-1,36
 218 608 218 608 257 665 c 128,-1,37
 296 722 296 722 362 804 c 1,38,39
 310 860 310 860 265 891 c 128,-1,40
 220 922 220 922 158 922 c 0,41,42
 132 922 132 922 40 908 c 1,10,-1
EndSplineSet
EndChar

StartChar: uni0265
Encoding: 613 613 537
Width: 1132
GlyphClass: 2
Flags: W
LayerCount: 2
Fore
SplineSet
126 380 m 2,0,-1
 126 1066 l 1,1,-1
 334 1066 l 1,2,-1
 334 404 l 2,3,4
 334 144 334 144 522 144 c 0,5,6
 624 144 624 144 700 236 c 128,-1,7
 776 328 776 328 776 448 c 2,8,-1
 776 1066 l 1,9,-1
 984 1066 l 1,10,-1
 984 -446 l 1,11,-1
 776 -446 l 1,12,-1
 776 128 l 1,13,-1
 774 128 l 1,14,15
 736 62 736 62 658 14 c 128,-1,16
 580 -34 580 -34 478 -34 c 0,17,18
 412 -34 412 -34 355 -15 c 128,-1,19
 298 4 298 4 244 47 c 128,-1,20
 190 90 190 90 158 176 c 128,-1,21
 126 262 126 262 126 380 c 2,0,-1
EndSplineSet
EndChar

StartChar: uni0266
Encoding: 614 614 538
Width: 1132
GlyphClass: 2
Flags: W
LayerCount: 2
Fore
SplineSet
150 0 m 1,0,-1
 150 1210 l 2,1,2
 150 1376 150 1376 250 1464 c 128,-1,3
 350 1552 350 1552 506 1552 c 0,4,5
 616 1552 616 1552 708 1540 c 1,6,-1
 708 1358 l 1,7,8
 626 1368 626 1368 542 1368 c 256,9,10
 458 1368 458 1368 407 1311 c 128,-1,11
 356 1254 356 1254 356 1172 c 2,12,-1
 356 938 l 1,13,-1
 358 938 l 1,14,15
 402 1006 402 1006 479 1054 c 128,-1,16
 556 1102 556 1102 652 1102 c 0,17,18
 718 1102 718 1102 776 1084 c 128,-1,19
 834 1066 834 1066 889 1022 c 128,-1,20
 944 978 944 978 975 893 c 128,-1,21
 1006 808 1006 808 1006 686 c 2,22,-1
 1006 0 l 1,23,-1
 798 0 l 1,24,-1
 798 658 l 2,25,26
 798 924 798 924 614 924 c 0,27,28
 508 924 508 924 432 834 c 128,-1,29
 356 744 356 744 356 618 c 2,30,-1
 356 0 l 1,31,-1
 150 0 l 1,0,-1
EndSplineSet
Substitution2: "'sups' Superscript lookup 5 subtable" uni02B1
Substitution2: "'aalt' Access All Alternates lookup 0 subtable" uni02B1
EndChar

